<svg width="336" height="189" viewBox="0 0 336 189" fill="none" xmlns="http://www.w3.org/2000/svg">
<rect width="336" height="189" fill="#FAEDE6"/>
<path d="M126.896 98H128.576V95.144H130.914C133.126 95.144 134.33 93.996 134.33 91.994C134.33 89.936 132.986 88.788 130.704 88.788H126.896V98ZM128.576 93.954V90.188H130.648C131.992 90.188 132.734 90.86 132.734 92.078C132.734 93.338 132.034 93.954 130.816 93.954H128.576ZM135.895 98H137.463V88.298H135.895V98ZM141.74 98.112C143.266 98.112 144.092 97.496 144.316 96.474H144.33C144.33 97.034 144.288 97.664 144.26 98H145.828V93.786C145.828 91.966 144.596 90.972 142.496 90.972C140.522 90.972 139.318 91.798 139.318 93.184C139.318 93.31 139.332 93.492 139.346 93.59H140.788C140.774 93.478 140.774 93.366 140.774 93.324C140.774 92.554 141.376 92.148 142.44 92.148C143.658 92.148 144.26 92.61 144.26 93.646V94.136H141.698C139.85 94.136 139.108 94.962 139.108 96.012C139.108 97.356 140.158 98.112 141.74 98.112ZM142.062 96.936C141.11 96.936 140.55 96.572 140.55 95.942C140.55 95.396 140.942 95.088 141.838 95.088H144.26V95.214C144.26 96.278 143.42 96.936 142.062 96.936ZM150.717 98.112C152.691 98.112 154.007 97.034 154.007 95.186H152.593C152.579 96.208 151.893 96.824 150.787 96.824C149.625 96.824 148.897 95.956 148.897 94.542C148.897 93.114 149.639 92.26 150.843 92.26C151.893 92.26 152.565 92.89 152.579 93.926H153.993C153.993 92.092 152.733 90.972 150.801 90.972C148.715 90.972 147.329 92.33 147.329 94.542C147.329 96.754 148.687 98.112 150.717 98.112ZM162.162 94.29C162.162 92.134 160.916 90.972 158.956 90.972C156.772 90.972 155.4 92.358 155.4 94.598C155.4 96.768 156.772 98.112 158.956 98.112C160.846 98.112 162.106 97.174 162.162 95.634H160.748C160.678 96.446 159.992 96.894 158.984 96.894C157.808 96.894 157.066 96.18 156.982 94.85H162.162V94.29ZM160.748 93.898H157.024C157.206 92.75 157.892 92.19 158.97 92.19C160.104 92.19 160.748 92.764 160.748 93.8V93.898ZM163.778 98H165.346V94.724C165.346 93.17 166.214 92.316 167.6 92.316C168.846 92.316 169.462 92.932 169.462 94.024V98H171.03V93.674C171.03 91.966 169.952 90.972 168.202 90.972C166.578 90.972 165.682 91.686 165.318 92.946H165.304C165.318 92.568 165.346 91.77 165.346 91.434V88.298H163.778V98ZM176.139 98.112C178.351 98.112 179.765 96.754 179.765 94.556C179.765 92.344 178.351 90.972 176.139 90.972C173.941 90.972 172.527 92.344 172.527 94.556C172.527 96.754 173.941 98.112 176.139 98.112ZM176.139 96.824C174.865 96.824 174.095 95.956 174.095 94.556C174.095 93.142 174.865 92.26 176.139 92.26C177.413 92.26 178.197 93.142 178.197 94.556C178.197 95.956 177.413 96.824 176.139 96.824ZM181.357 98H182.925V88.298H181.357V98ZM187.817 98.112C189.231 98.112 190.099 97.412 190.365 96.32H190.393C190.365 96.992 190.351 97.594 190.323 98H191.891V88.298H190.323V92.302H190.309C190.029 91.49 189.217 90.972 187.915 90.972C185.857 90.972 184.555 92.414 184.555 94.5C184.555 96.656 185.815 98.112 187.817 98.112ZM188.139 96.824C186.907 96.824 186.109 95.872 186.109 94.5C186.109 93.184 186.921 92.26 188.167 92.26C189.469 92.26 190.323 93.044 190.323 94.276V94.612C190.323 95.956 189.455 96.824 188.139 96.824ZM200.263 94.29C200.263 92.134 199.017 90.972 197.057 90.972C194.873 90.972 193.501 92.358 193.501 94.598C193.501 96.768 194.873 98.112 197.057 98.112C198.947 98.112 200.207 97.174 200.263 95.634H198.849C198.779 96.446 198.093 96.894 197.085 96.894C195.909 96.894 195.167 96.18 195.083 94.85H200.263V94.29ZM198.849 93.898H195.125C195.307 92.75 195.993 92.19 197.071 92.19C198.205 92.19 198.849 92.764 198.849 93.8V93.898ZM201.837 98H203.405V94.976C203.405 93.324 204.147 92.316 205.337 92.316C206.261 92.316 206.709 92.862 206.709 94.024C206.709 94.346 206.681 94.696 206.653 94.962H208.081C208.109 94.668 208.151 94.108 208.151 93.674C208.151 91.952 207.325 90.972 205.827 90.972C204.399 90.972 203.685 91.826 203.363 93.072H203.349L203.405 91.084H201.837V98Z" fill="#C7C7C7"/>
</svg>
