<svg width="80" height="80" viewBox="0 0 80 80" fill="none" xmlns="http://www.w3.org/2000/svg">
<path d="M66.6693 24.334V69.0007C66.6693 70.1052 65.7738 71.0007 64.6693 71.0007H15.3359C14.2314 71.0007 13.3359 70.1052 13.3359 69.0007V24.334" stroke="white" stroke-width="2"/>
<path d="M61.8243 10.0157L61.0723 10.6748L61.8243 10.0157ZM8.99407 22.0082L18.928 10.6748L17.424 9.35653L7.49005 20.6899L8.99407 22.0082ZM40.0002 23.6673H9.74608V25.6673H40.0002V23.6673ZM40.0002 25.6673H70.2542V23.6673H40.0002V25.6673ZM72.5103 20.6899L62.5764 9.35653L61.0723 10.6748L71.0063 22.0082L72.5103 20.6899ZM60.3203 8.33398H40.0002V10.334H60.3203V8.33398ZM19.68 10.334H40.0002V8.33398H19.68V10.334ZM62.5764 9.35653C62.0067 8.70665 61.1845 8.33398 60.3203 8.33398V10.334C60.6084 10.334 60.8825 10.4582 61.0723 10.6748L62.5764 9.35653ZM70.2542 25.6673C72.8329 25.6673 74.21 22.6291 72.5103 20.6899L71.0063 22.0082C71.5728 22.6546 71.1138 23.6673 70.2542 23.6673V25.6673ZM18.928 10.6748C19.1179 10.4582 19.3919 10.334 19.68 10.334V8.33398C18.8158 8.33398 17.9936 8.70665 17.424 9.35653L18.928 10.6748ZM7.49005 20.6899C5.7903 22.6291 7.16739 25.6673 9.74608 25.6673V23.6673C8.88652 23.6673 8.42749 22.6546 8.99407 22.0082L7.49005 20.6899Z" fill="#FF3520"/>
</svg>
