<svg width="165" height="44" viewBox="0 0 165 44" fill="none" xmlns="http://www.w3.org/2000/svg">
<path fill-rule="evenodd" clip-rule="evenodd" d="M30.7969 8.80078H8.79688V26.4008H13.1969V13.2008H26.3969V26.4008H30.7969V8.80078ZM17.5969 35.2008H39.5969V17.6008H35.1969V30.8008H21.9969V17.6008H17.5969V35.2008ZM8.79688 30.8008H13.1969V35.2008H8.79688V30.8008ZM39.5969 8.80078H35.1969V13.2008H39.5969V8.80078Z" fill="#242424"/>
<path d="M55.9608 30.7992C60.5531 30.7992 63.4982 28.3708 63.4982 24.1648V14.0755H59.8793V24.0146C59.8793 26.2678 58.3568 27.3944 56.1854 27.3944C54.0141 27.3944 52.4916 26.2678 52.4916 24.0146V14.0755H48.3984V24.1648C48.3984 28.3708 51.3685 30.7992 55.9608 30.7992Z" fill="#242424"/>
<path d="M71.7226 30.7491C72.7459 30.7491 73.7941 30.5489 74.1186 30.4738V27.5947C73.6943 27.6948 72.9206 27.7699 72.3965 27.7699C70.899 27.7699 70.3 27.3693 70.3 26.0925V21.1355H74.2434V18.1813H70.3V15.3773H67.1802L67.0055 17.1048C66.9306 17.8558 66.7309 18.1813 66.1569 18.1813H64.6843V21.1355H66.5063V26.2928C66.5063 29.0467 67.879 30.7491 71.7226 30.7491Z" fill="#242424"/>
<path d="M82.2275 30.7491C83.2508 30.7491 84.299 30.5489 84.6235 30.4738V27.5947C84.1992 27.6948 83.4255 27.7699 82.9014 27.7699C81.4039 27.7699 80.8049 27.3693 80.8049 26.0925V21.1355H84.7483V18.1813H80.8049V15.3773H77.6851L77.5104 17.1048C77.4355 17.8558 77.2358 18.1813 76.6618 18.1813H75.1893V21.1355H77.0112V26.2928C77.0112 29.0467 78.3839 30.7491 82.2275 30.7491Z" fill="#242424"/>
<path d="M98.1642 24.0146C98.1642 19.9588 95.7432 17.981 92.299 17.981C88.1309 17.981 85.5852 20.4095 85.5852 24.4903C85.5852 28.4208 88.1309 30.7491 92.2241 30.7491C95.7432 30.7491 98.0893 29.0968 98.1642 26.2678H94.8198C94.7199 27.4695 93.7715 27.9952 92.299 27.9952C90.6018 27.9952 89.5785 27.119 89.4038 25.0911H98.1642V24.0146ZM94.8198 23.0632H89.5036C89.8031 21.4359 90.7016 20.7349 92.299 20.7349C93.8713 20.7349 94.8198 21.461 94.8198 22.8629V23.0632Z" fill="#242424"/>
<path d="M99.8245 30.5489H103.618V25.2163C103.618 22.4624 104.741 21.1355 106.364 21.1355C107.562 21.1355 108.285 21.8615 108.285 23.6641C108.285 24.0396 108.26 24.6655 108.21 25.2664H111.655C111.705 24.6154 111.78 23.5139 111.78 22.8129C111.78 19.6083 110.307 17.981 107.786 17.981C105.365 17.981 104.042 19.358 103.518 21.7113H103.468L103.618 18.1813H99.8245V30.5489Z" fill="#242424"/>
<path d="M119.665 30.7491C120.688 30.7491 121.737 30.5489 122.061 30.4738V27.5947C121.637 27.6948 120.863 27.7699 120.339 27.7699C118.841 27.7699 118.242 27.3693 118.242 26.0925V21.1355H122.186V18.1813H118.242V15.3773H115.123L114.948 17.1048C114.873 17.8558 114.673 18.1813 114.099 18.1813H112.627V21.1355H114.449V26.2928C114.449 29.0467 115.821 30.7491 119.665 30.7491Z" fill="#242424"/>
<path d="M128.159 30.7491C130.406 30.7491 131.803 29.7978 132.178 28.0453H132.203C132.203 28.7964 132.103 29.923 132.028 30.5489H135.822V23.0382C135.822 19.7335 133.525 17.981 129.607 17.981C125.863 17.981 123.667 19.4581 123.667 21.9617C123.667 22.212 123.692 22.4874 123.717 22.6877H127.211C127.186 22.4373 127.186 22.2371 127.186 22.162C127.186 21.1605 128.01 20.5597 129.432 20.5597C131.179 20.5597 132.028 21.1605 132.028 22.6627V23.4888H128.01C124.74 23.4888 123.293 24.9659 123.293 26.9938C123.293 29.4974 125.289 30.7491 128.159 30.7491ZM128.908 28.1705C127.535 28.1705 126.712 27.6698 126.712 26.7184C126.712 26.0174 127.336 25.5417 128.359 25.5417H132.028V25.7921C132.028 27.2942 130.88 28.1705 128.908 28.1705Z" fill="#242424"/>
<path d="M137.653 30.5489H141.447V13.1992H137.653V30.5489Z" fill="#242424"/>
<path d="M155.758 24.0146C155.758 19.9588 153.337 17.981 149.893 17.981C145.725 17.981 143.179 20.4095 143.179 24.4903C143.179 28.4208 145.725 30.7491 149.818 30.7491C153.337 30.7491 155.684 29.0968 155.758 26.2678H152.414C152.314 27.4695 151.366 27.9952 149.893 27.9952C148.196 27.9952 147.173 27.119 146.998 25.0911H155.758V24.0146ZM152.414 23.0632H147.098C147.397 21.4359 148.296 20.7349 149.893 20.7349C151.466 20.7349 152.414 21.461 152.414 22.8629V23.0632Z" fill="#242424"/>
</svg>
