<svg width="20" height="20" viewBox="0 0 20 20" fill="none" xmlns="http://www.w3.org/2000/svg">
<path d="M10.0026 10.8346C10.4628 10.8346 10.8359 10.4615 10.8359 10.0013C10.8359 9.54106 10.4628 9.16797 10.0026 9.16797C9.54237 9.16797 9.16927 9.54106 9.16927 10.0013C9.16927 10.4615 9.54237 10.8346 10.0026 10.8346Z" stroke="#242424" stroke-width="1.5" stroke-linecap="round" stroke-linejoin="round"/>
<path d="M15.8359 10.8346C16.2962 10.8346 16.6693 10.4615 16.6693 10.0013C16.6693 9.54106 16.2962 9.16797 15.8359 9.16797C15.3757 9.16797 15.0026 9.54106 15.0026 10.0013C15.0026 10.4615 15.3757 10.8346 15.8359 10.8346Z" stroke="#242424" stroke-width="1.5" stroke-linecap="round" stroke-linejoin="round"/>
<path d="M4.16927 10.8346C4.62951 10.8346 5.0026 10.4615 5.0026 10.0013C5.0026 9.54106 4.62951 9.16797 4.16927 9.16797C3.70903 9.16797 3.33594 9.54106 3.33594 10.0013C3.33594 10.4615 3.70903 10.8346 4.16927 10.8346Z" stroke="#242424" stroke-width="1.5" stroke-linecap="round" stroke-linejoin="round"/>
</svg>
