<svg width="32" height="32" viewBox="0 0 32 32" fill="none" xmlns="http://www.w3.org/2000/svg">
<path d="M24.0974 10.8851C23.569 11.1124 23.0135 11.2708 22.4447 11.3562C22.7106 11.3106 23.102 10.8319 23.2577 10.6381C23.4944 10.3458 23.6747 10.0122 23.7896 9.65408C23.7896 9.62749 23.8162 9.58949 23.7896 9.5705C23.7762 9.56318 23.7612 9.55935 23.7459 9.55935C23.7307 9.55935 23.7156 9.56318 23.7022 9.5705C23.0845 9.905 22.4272 10.1603 21.7456 10.3304C21.7218 10.3376 21.6966 10.3383 21.6725 10.3322C21.6484 10.3262 21.6264 10.3137 21.6088 10.2962C21.5558 10.233 21.4987 10.1733 21.4379 10.1176C21.1599 9.86853 20.8445 9.66468 20.5032 9.51351C20.0426 9.32452 19.545 9.24268 19.0481 9.27415C18.5659 9.3046 18.0952 9.43393 17.6652 9.65408C17.2417 9.88619 16.8695 10.2015 16.571 10.5811C16.2569 10.9718 16.0302 11.4252 15.9061 11.9109C15.8037 12.3728 15.7921 12.8502 15.8719 13.3166C15.8719 13.3964 15.8719 13.4078 15.8035 13.3964C13.0946 12.9975 10.872 12.0362 9.05596 9.97322C8.97617 9.88204 8.93438 9.88204 8.86979 9.97322C8.07954 11.1738 8.46327 13.0734 9.45108 14.0119C9.58406 14.1372 9.72083 14.2588 9.86521 14.3728C9.4123 14.3407 8.97045 14.2179 8.56585 14.0119C8.48986 13.9625 8.44807 13.9891 8.44427 14.0803C8.4335 14.2067 8.4335 14.3338 8.44427 14.4602C8.52355 15.066 8.7623 15.6399 9.13612 16.1232C9.50994 16.6065 10.0054 16.9819 10.5719 17.2109C10.71 17.27 10.8539 17.3146 11.0012 17.3439C10.5819 17.4264 10.1519 17.4392 9.72843 17.3818C9.63725 17.3629 9.60306 17.4122 9.63725 17.4996C10.1957 19.0193 11.4077 19.4829 12.2968 19.7412C12.4183 19.7602 12.5399 19.7602 12.6767 19.7906C12.6767 19.7906 12.6767 19.7906 12.6539 19.8134C12.3917 20.2921 11.3317 20.615 10.8454 20.7822C9.95779 21.1011 9.0114 21.2229 8.07194 21.1393C7.92377 21.1166 7.88957 21.1204 7.85158 21.1393C7.81359 21.1583 7.85158 21.2001 7.89337 21.2381C8.08334 21.3635 8.2733 21.4737 8.47087 21.5801C9.05901 21.9009 9.6808 22.1557 10.3249 22.3399C13.6607 23.2594 17.4144 22.5831 19.9181 20.0945C21.8862 18.1417 22.5776 15.448 22.5776 12.7505C22.5776 12.6479 22.703 12.5871 22.7752 12.5339C23.2731 12.146 23.7121 11.6878 24.0784 11.1738C24.1418 11.0972 24.1743 10.9996 24.1696 10.9003C24.1696 10.8433 24.1696 10.8547 24.0974 10.8851Z" fill="#424242"/>
</svg>
