<svg width="236" height="168" viewBox="0 0 236 168" fill="none" xmlns="http://www.w3.org/2000/svg">
<path d="M118 4.53003C126.533 4.53003 133.385 11.3215 133.385 19.6972C133.385 28.0729 126.533 34.8644 118 34.8644C109.468 34.8644 102.616 28.0729 102.616 19.6972C102.616 11.3215 109.468 4.53003 118 4.53003ZM118 42.4088C134.161 42.4088 147.198 55.5961 147.198 72.1127V90.9621C138.436 93.8025 128.557 95.4706 118 95.4706C107.46 95.4706 97.5522 93.8359 88.8023 91.0088V72.1127C88.8023 55.5974 101.839 42.4088 118 42.4088Z" stroke="black" stroke-width="3"/>
<path d="M11.688 157.36C12.664 157.568 13.448 158.056 14.04 158.824C14.632 159.576 14.928 160.44 14.928 161.416C14.928 162.824 14.432 163.944 13.44 164.776C12.464 165.592 11.096 166 9.336 166H1.488V149.152H9.072C10.784 149.152 12.12 149.544 13.08 150.328C14.056 151.112 14.544 152.176 14.544 153.52C14.544 154.512 14.28 155.336 13.752 155.992C13.24 156.648 12.552 157.104 11.688 157.36ZM5.592 155.968H8.28C8.952 155.968 9.464 155.824 9.816 155.536C10.184 155.232 10.368 154.792 10.368 154.216C10.368 153.64 10.184 153.2 9.816 152.896C9.464 152.592 8.952 152.44 8.28 152.44H5.592V155.968ZM8.616 162.688C9.304 162.688 9.832 162.536 10.2 162.232C10.584 161.912 10.776 161.456 10.776 160.864C10.776 160.272 10.576 159.808 10.176 159.472C9.792 159.136 9.256 158.968 8.568 158.968H5.592V162.688H8.616ZM30.2923 159.088C30.2923 159.472 30.2683 159.872 30.2203 160.288H20.9323C20.9963 161.12 21.2603 161.76 21.7243 162.208C22.2043 162.64 22.7883 162.856 23.4763 162.856C24.5003 162.856 25.2123 162.424 25.6123 161.56H29.9803C29.7563 162.44 29.3483 163.232 28.7563 163.936C28.1803 164.64 27.4523 165.192 26.5723 165.592C25.6923 165.992 24.7083 166.192 23.6203 166.192C22.3083 166.192 21.1403 165.912 20.1163 165.352C19.0923 164.792 18.2923 163.992 17.7163 162.952C17.1403 161.912 16.8523 160.696 16.8523 159.304C16.8523 157.912 17.1323 156.696 17.6923 155.656C18.2683 154.616 19.0683 153.816 20.0923 153.256C21.1163 152.696 22.2923 152.416 23.6203 152.416C24.9163 152.416 26.0683 152.688 27.0763 153.232C28.0843 153.776 28.8683 154.552 29.4283 155.56C30.0043 156.568 30.2923 157.744 30.2923 159.088ZM26.0923 158.008C26.0923 157.304 25.8523 156.744 25.3723 156.328C24.8923 155.912 24.2923 155.704 23.5723 155.704C22.8843 155.704 22.3003 155.904 21.8203 156.304C21.3563 156.704 21.0683 157.272 20.9563 158.008H26.0923ZM32.0014 159.304C32.0014 157.912 32.2814 156.696 32.8414 155.656C33.4174 154.616 34.2094 153.816 35.2174 153.256C36.2414 152.696 37.4094 152.416 38.7214 152.416C40.4014 152.416 41.8014 152.856 42.9214 153.736C44.0574 154.616 44.8014 155.856 45.1534 157.456H40.7854C40.4174 156.432 39.7054 155.92 38.6494 155.92C37.8974 155.92 37.2974 156.216 36.8494 156.808C36.4014 157.384 36.1774 158.216 36.1774 159.304C36.1774 160.392 36.4014 161.232 36.8494 161.824C37.2974 162.4 37.8974 162.688 38.6494 162.688C39.7054 162.688 40.4174 162.176 40.7854 161.152H45.1534C44.8014 162.72 44.0574 163.952 42.9214 164.848C41.7854 165.744 40.3854 166.192 38.7214 166.192C37.4094 166.192 36.2414 165.912 35.2174 165.352C34.2094 164.792 33.4174 163.992 32.8414 162.952C32.2814 161.912 32.0014 160.696 32.0014 159.304ZM53.8046 166.192C52.4926 166.192 51.3086 165.912 50.2526 165.352C49.2126 164.792 48.3886 163.992 47.7806 162.952C47.1886 161.912 46.8926 160.696 46.8926 159.304C46.8926 157.928 47.1966 156.72 47.8046 155.68C48.4126 154.624 49.2446 153.816 50.3006 153.256C51.3566 152.696 52.5406 152.416 53.8526 152.416C55.1646 152.416 56.3486 152.696 57.4046 153.256C58.4606 153.816 59.2926 154.624 59.9006 155.68C60.5086 156.72 60.8126 157.928 60.8126 159.304C60.8126 160.68 60.5006 161.896 59.8766 162.952C59.2686 163.992 58.4286 164.792 57.3566 165.352C56.3006 165.912 55.1166 166.192 53.8046 166.192ZM53.8046 162.64C54.5886 162.64 55.2526 162.352 55.7966 161.776C56.3566 161.2 56.6366 160.376 56.6366 159.304C56.6366 158.232 56.3646 157.408 55.8206 156.832C55.2926 156.256 54.6366 155.968 53.8526 155.968C53.0526 155.968 52.3886 156.256 51.8606 156.832C51.3326 157.392 51.0686 158.216 51.0686 159.304C51.0686 160.376 51.3246 161.2 51.8366 161.776C52.3646 162.352 53.0206 162.64 53.8046 162.64ZM80.4379 152.464C82.1019 152.464 83.4219 152.968 84.3979 153.976C85.3899 154.984 85.8859 156.384 85.8859 158.176V166H81.8059V158.728C81.8059 157.864 81.5739 157.2 81.1099 156.736C80.6619 156.256 80.0379 156.016 79.2379 156.016C78.4379 156.016 77.8059 156.256 77.3419 156.736C76.8939 157.2 76.6699 157.864 76.6699 158.728V166H72.5899V158.728C72.5899 157.864 72.3579 157.2 71.8939 156.736C71.4459 156.256 70.8219 156.016 70.0219 156.016C69.2219 156.016 68.5899 156.256 68.1259 156.736C67.6779 157.2 67.4539 157.864 67.4539 158.728V166H63.3499V152.608H67.4539V154.288C67.8699 153.728 68.4139 153.288 69.0859 152.968C69.7579 152.632 70.5179 152.464 71.3659 152.464C72.3739 152.464 73.2699 152.68 74.0539 153.112C74.8539 153.544 75.4779 154.16 75.9259 154.96C76.3899 154.224 77.0219 153.624 77.8219 153.16C78.6219 152.696 79.4939 152.464 80.4379 152.464ZM101.74 159.088C101.74 159.472 101.716 159.872 101.668 160.288H92.3801C92.4441 161.12 92.7081 161.76 93.1721 162.208C93.6521 162.64 94.2361 162.856 94.9241 162.856C95.9481 162.856 96.6601 162.424 97.0601 161.56H101.428C101.204 162.44 100.796 163.232 100.204 163.936C99.6281 164.64 98.9001 165.192 98.0201 165.592C97.1401 165.992 96.1561 166.192 95.0681 166.192C93.7561 166.192 92.5881 165.912 91.5641 165.352C90.5401 164.792 89.7401 163.992 89.1641 162.952C88.5881 161.912 88.3001 160.696 88.3001 159.304C88.3001 157.912 88.5801 156.696 89.1401 155.656C89.7161 154.616 90.5161 153.816 91.5401 153.256C92.5641 152.696 93.7401 152.416 95.0681 152.416C96.3641 152.416 97.5161 152.688 98.5241 153.232C99.5321 153.776 100.316 154.552 100.876 155.56C101.452 156.568 101.74 157.744 101.74 159.088ZM97.5401 158.008C97.5401 157.304 97.3001 156.744 96.8201 156.328C96.3401 155.912 95.7401 155.704 95.0201 155.704C94.3321 155.704 93.7481 155.904 93.2681 156.304C92.8041 156.704 92.5161 157.272 92.4041 158.008H97.5401ZM108.895 159.28C108.895 157.904 109.151 156.696 109.663 155.656C110.191 154.616 110.903 153.816 111.799 153.256C112.695 152.696 113.695 152.416 114.799 152.416C115.743 152.416 116.567 152.608 117.271 152.992C117.991 153.376 118.543 153.88 118.927 154.504V152.608H123.031V166H118.927V164.104C118.527 164.728 117.967 165.232 117.247 165.616C116.543 166 115.719 166.192 114.775 166.192C113.687 166.192 112.695 165.912 111.799 165.352C110.903 164.776 110.191 163.968 109.663 162.928C109.151 161.872 108.895 160.656 108.895 159.28ZM118.927 159.304C118.927 158.28 118.639 157.472 118.063 156.88C117.503 156.288 116.815 155.992 115.999 155.992C115.183 155.992 114.487 156.288 113.911 156.88C113.351 157.456 113.071 158.256 113.071 159.28C113.071 160.304 113.351 161.12 113.911 161.728C114.487 162.32 115.183 162.616 115.999 162.616C116.815 162.616 117.503 162.32 118.063 161.728C118.639 161.136 118.927 160.328 118.927 159.304ZM150.886 149.152V166H146.782V155.896L143.014 166H139.702L135.91 155.872V166H131.806V149.152H136.654L141.382 160.816L146.062 149.152H150.886ZM166.821 159.088C166.821 159.472 166.797 159.872 166.749 160.288H157.461C157.525 161.12 157.789 161.76 158.253 162.208C158.733 162.64 159.317 162.856 160.005 162.856C161.029 162.856 161.741 162.424 162.141 161.56H166.509C166.285 162.44 165.877 163.232 165.285 163.936C164.709 164.64 163.981 165.192 163.101 165.592C162.221 165.992 161.237 166.192 160.149 166.192C158.837 166.192 157.669 165.912 156.645 165.352C155.621 164.792 154.821 163.992 154.245 162.952C153.669 161.912 153.381 160.696 153.381 159.304C153.381 157.912 153.661 156.696 154.221 155.656C154.797 154.616 155.597 153.816 156.621 153.256C157.645 152.696 158.821 152.416 160.149 152.416C161.445 152.416 162.597 152.688 163.605 153.232C164.613 153.776 165.397 154.552 165.957 155.56C166.533 156.568 166.821 157.744 166.821 159.088ZM162.621 158.008C162.621 157.304 162.381 156.744 161.901 156.328C161.421 155.912 160.821 155.704 160.101 155.704C159.413 155.704 158.829 155.904 158.349 156.304C157.885 156.704 157.597 157.272 157.485 158.008H162.621ZM186.434 152.464C188.098 152.464 189.418 152.968 190.394 153.976C191.386 154.984 191.882 156.384 191.882 158.176V166H187.802V158.728C187.802 157.864 187.57 157.2 187.106 156.736C186.658 156.256 186.034 156.016 185.234 156.016C184.434 156.016 183.802 156.256 183.338 156.736C182.89 157.2 182.666 157.864 182.666 158.728V166H178.586V158.728C178.586 157.864 178.354 157.2 177.89 156.736C177.442 156.256 176.818 156.016 176.018 156.016C175.218 156.016 174.586 156.256 174.122 156.736C173.674 157.2 173.45 157.864 173.45 158.728V166H169.346V152.608H173.45V154.288C173.866 153.728 174.41 153.288 175.082 152.968C175.754 152.632 176.514 152.464 177.362 152.464C178.37 152.464 179.266 152.68 180.05 153.112C180.85 153.544 181.474 154.16 181.922 154.96C182.386 154.224 183.018 153.624 183.818 153.16C184.618 152.696 185.49 152.464 186.434 152.464ZM199.217 154.504C199.601 153.88 200.153 153.376 200.873 152.992C201.593 152.608 202.417 152.416 203.345 152.416C204.449 152.416 205.449 152.696 206.345 153.256C207.241 153.816 207.945 154.616 208.457 155.656C208.985 156.696 209.249 157.904 209.249 159.28C209.249 160.656 208.985 161.872 208.457 162.928C207.945 163.968 207.241 164.776 206.345 165.352C205.449 165.912 204.449 166.192 203.345 166.192C202.401 166.192 201.577 166.008 200.873 165.64C200.169 165.256 199.617 164.752 199.217 164.128V166H195.113V148.24H199.217V154.504ZM205.073 159.28C205.073 158.256 204.785 157.456 204.209 156.88C203.649 156.288 202.953 155.992 202.121 155.992C201.305 155.992 200.609 156.288 200.033 156.88C199.473 157.472 199.193 158.28 199.193 159.304C199.193 160.328 199.473 161.136 200.033 161.728C200.609 162.32 201.305 162.616 202.121 162.616C202.937 162.616 203.633 162.32 204.209 161.728C204.785 161.12 205.073 160.304 205.073 159.28ZM224.386 159.088C224.386 159.472 224.362 159.872 224.314 160.288H215.026C215.09 161.12 215.354 161.76 215.818 162.208C216.298 162.64 216.882 162.856 217.57 162.856C218.594 162.856 219.306 162.424 219.706 161.56H224.074C223.85 162.44 223.442 163.232 222.85 163.936C222.274 164.64 221.546 165.192 220.666 165.592C219.786 165.992 218.802 166.192 217.714 166.192C216.402 166.192 215.234 165.912 214.21 165.352C213.186 164.792 212.386 163.992 211.81 162.952C211.234 161.912 210.946 160.696 210.946 159.304C210.946 157.912 211.226 156.696 211.786 155.656C212.362 154.616 213.162 153.816 214.186 153.256C215.21 152.696 216.386 152.416 217.714 152.416C219.01 152.416 220.162 152.688 221.17 153.232C222.178 153.776 222.962 154.552 223.522 155.56C224.098 156.568 224.386 157.744 224.386 159.088ZM220.186 158.008C220.186 157.304 219.946 156.744 219.466 156.328C218.986 155.912 218.386 155.704 217.666 155.704C216.978 155.704 216.394 155.904 215.914 156.304C215.45 156.704 215.162 157.272 215.05 158.008H220.186ZM231.015 154.84C231.495 154.104 232.095 153.528 232.815 153.112C233.535 152.68 234.335 152.464 235.215 152.464V156.808H234.087C233.063 156.808 232.295 157.032 231.783 157.48C231.271 157.912 231.015 158.68 231.015 159.784V166H226.911V152.608H231.015V154.84Z" fill="#424242"/>
<g clip-path="url(#clip0_4752_24149)">
<path d="M162 2V22M152 12H172" stroke="#101828" stroke-width="3" stroke-linecap="round" stroke-linejoin="round"/>
</g>
<defs>
<clipPath id="clip0_4752_24149">
<rect width="24" height="24" fill="white" transform="translate(150)"/>
</clipPath>
</defs>
</svg>
