<svg width="1120" height="168" viewBox="0 0 1120 168" fill="none" xmlns="http://www.w3.org/2000/svg">
<path d="M118 4.53003C126.533 4.53003 133.385 11.3215 133.385 19.6972C133.385 28.0729 126.533 34.8644 118 34.8644C109.468 34.8644 102.616 28.0729 102.616 19.6972C102.616 11.3215 109.468 4.53003 118 4.53003ZM118 42.4088C134.161 42.4088 147.198 55.5961 147.198 72.1127V90.9621C138.436 93.8025 128.557 95.4706 118 95.4706C107.46 95.4706 97.5522 93.8359 88.8023 91.0088V72.1127C88.8023 55.5974 101.839 42.4088 118 42.4088Z" stroke="black" stroke-width="3"/>
<path d="M11.688 157.36C12.664 157.568 13.448 158.056 14.04 158.824C14.632 159.576 14.928 160.44 14.928 161.416C14.928 162.824 14.432 163.944 13.44 164.776C12.464 165.592 11.096 166 9.336 166H1.488V149.152H9.072C10.784 149.152 12.12 149.544 13.08 150.328C14.056 151.112 14.544 152.176 14.544 153.52C14.544 154.512 14.28 155.336 13.752 155.992C13.24 156.648 12.552 157.104 11.688 157.36ZM5.592 155.968H8.28C8.952 155.968 9.464 155.824 9.816 155.536C10.184 155.232 10.368 154.792 10.368 154.216C10.368 153.64 10.184 153.2 9.816 152.896C9.464 152.592 8.952 152.44 8.28 152.44H5.592V155.968ZM8.616 162.688C9.304 162.688 9.832 162.536 10.2 162.232C10.584 161.912 10.776 161.456 10.776 160.864C10.776 160.272 10.576 159.808 10.176 159.472C9.792 159.136 9.256 158.968 8.568 158.968H5.592V162.688H8.616ZM30.2923 159.088C30.2923 159.472 30.2683 159.872 30.2203 160.288H20.9323C20.9963 161.12 21.2603 161.76 21.7243 162.208C22.2043 162.64 22.7883 162.856 23.4763 162.856C24.5003 162.856 25.2123 162.424 25.6123 161.56H29.9803C29.7563 162.44 29.3483 163.232 28.7563 163.936C28.1803 164.64 27.4523 165.192 26.5723 165.592C25.6923 165.992 24.7083 166.192 23.6203 166.192C22.3083 166.192 21.1403 165.912 20.1163 165.352C19.0923 164.792 18.2923 163.992 17.7163 162.952C17.1403 161.912 16.8523 160.696 16.8523 159.304C16.8523 157.912 17.1323 156.696 17.6923 155.656C18.2683 154.616 19.0683 153.816 20.0923 153.256C21.1163 152.696 22.2923 152.416 23.6203 152.416C24.9163 152.416 26.0683 152.688 27.0763 153.232C28.0843 153.776 28.8683 154.552 29.4283 155.56C30.0043 156.568 30.2923 157.744 30.2923 159.088ZM26.0923 158.008C26.0923 157.304 25.8523 156.744 25.3723 156.328C24.8923 155.912 24.2923 155.704 23.5723 155.704C22.8843 155.704 22.3003 155.904 21.8203 156.304C21.3563 156.704 21.0683 157.272 20.9563 158.008H26.0923ZM32.0014 159.304C32.0014 157.912 32.2814 156.696 32.8414 155.656C33.4174 154.616 34.2094 153.816 35.2174 153.256C36.2414 152.696 37.4094 152.416 38.7214 152.416C40.4014 152.416 41.8014 152.856 42.9214 153.736C44.0574 154.616 44.8014 155.856 45.1534 157.456H40.7854C40.4174 156.432 39.7054 155.92 38.6494 155.92C37.8974 155.92 37.2974 156.216 36.8494 156.808C36.4014 157.384 36.1774 158.216 36.1774 159.304C36.1774 160.392 36.4014 161.232 36.8494 161.824C37.2974 162.4 37.8974 162.688 38.6494 162.688C39.7054 162.688 40.4174 162.176 40.7854 161.152H45.1534C44.8014 162.72 44.0574 163.952 42.9214 164.848C41.7854 165.744 40.3854 166.192 38.7214 166.192C37.4094 166.192 36.2414 165.912 35.2174 165.352C34.2094 164.792 33.4174 163.992 32.8414 162.952C32.2814 161.912 32.0014 160.696 32.0014 159.304ZM53.8046 166.192C52.4926 166.192 51.3086 165.912 50.2526 165.352C49.2126 164.792 48.3886 163.992 47.7806 162.952C47.1886 161.912 46.8926 160.696 46.8926 159.304C46.8926 157.928 47.1966 156.72 47.8046 155.68C48.4126 154.624 49.2446 153.816 50.3006 153.256C51.3566 152.696 52.5406 152.416 53.8526 152.416C55.1646 152.416 56.3486 152.696 57.4046 153.256C58.4606 153.816 59.2926 154.624 59.9006 155.68C60.5086 156.72 60.8126 157.928 60.8126 159.304C60.8126 160.68 60.5006 161.896 59.8766 162.952C59.2686 163.992 58.4286 164.792 57.3566 165.352C56.3006 165.912 55.1166 166.192 53.8046 166.192ZM53.8046 162.64C54.5886 162.64 55.2526 162.352 55.7966 161.776C56.3566 161.2 56.6366 160.376 56.6366 159.304C56.6366 158.232 56.3646 157.408 55.8206 156.832C55.2926 156.256 54.6366 155.968 53.8526 155.968C53.0526 155.968 52.3886 156.256 51.8606 156.832C51.3326 157.392 51.0686 158.216 51.0686 159.304C51.0686 160.376 51.3246 161.2 51.8366 161.776C52.3646 162.352 53.0206 162.64 53.8046 162.64ZM80.4379 152.464C82.1019 152.464 83.4219 152.968 84.3979 153.976C85.3899 154.984 85.8859 156.384 85.8859 158.176V166H81.8059V158.728C81.8059 157.864 81.5739 157.2 81.1099 156.736C80.6619 156.256 80.0379 156.016 79.2379 156.016C78.4379 156.016 77.8059 156.256 77.3419 156.736C76.8939 157.2 76.6699 157.864 76.6699 158.728V166H72.5899V158.728C72.5899 157.864 72.3579 157.2 71.8939 156.736C71.4459 156.256 70.8219 156.016 70.0219 156.016C69.2219 156.016 68.5899 156.256 68.1259 156.736C67.6779 157.2 67.4539 157.864 67.4539 158.728V166H63.3499V152.608H67.4539V154.288C67.8699 153.728 68.4139 153.288 69.0859 152.968C69.7579 152.632 70.5179 152.464 71.3659 152.464C72.3739 152.464 73.2699 152.68 74.0539 153.112C74.8539 153.544 75.4779 154.16 75.9259 154.96C76.3899 154.224 77.0219 153.624 77.8219 153.16C78.6219 152.696 79.4939 152.464 80.4379 152.464ZM101.74 159.088C101.74 159.472 101.716 159.872 101.668 160.288H92.3801C92.4441 161.12 92.7081 161.76 93.1721 162.208C93.6521 162.64 94.2361 162.856 94.9241 162.856C95.9481 162.856 96.6601 162.424 97.0601 161.56H101.428C101.204 162.44 100.796 163.232 100.204 163.936C99.6281 164.64 98.9001 165.192 98.0201 165.592C97.1401 165.992 96.1561 166.192 95.0681 166.192C93.7561 166.192 92.5881 165.912 91.5641 165.352C90.5401 164.792 89.7401 163.992 89.1641 162.952C88.5881 161.912 88.3001 160.696 88.3001 159.304C88.3001 157.912 88.5801 156.696 89.1401 155.656C89.7161 154.616 90.5161 153.816 91.5401 153.256C92.5641 152.696 93.7401 152.416 95.0681 152.416C96.3641 152.416 97.5161 152.688 98.5241 153.232C99.5321 153.776 100.316 154.552 100.876 155.56C101.452 156.568 101.74 157.744 101.74 159.088ZM97.5401 158.008C97.5401 157.304 97.3001 156.744 96.8201 156.328C96.3401 155.912 95.7401 155.704 95.0201 155.704C94.3321 155.704 93.7481 155.904 93.2681 156.304C92.8041 156.704 92.5161 157.272 92.4041 158.008H97.5401ZM108.895 159.28C108.895 157.904 109.151 156.696 109.663 155.656C110.191 154.616 110.903 153.816 111.799 153.256C112.695 152.696 113.695 152.416 114.799 152.416C115.743 152.416 116.567 152.608 117.271 152.992C117.991 153.376 118.543 153.88 118.927 154.504V152.608H123.031V166H118.927V164.104C118.527 164.728 117.967 165.232 117.247 165.616C116.543 166 115.719 166.192 114.775 166.192C113.687 166.192 112.695 165.912 111.799 165.352C110.903 164.776 110.191 163.968 109.663 162.928C109.151 161.872 108.895 160.656 108.895 159.28ZM118.927 159.304C118.927 158.28 118.639 157.472 118.063 156.88C117.503 156.288 116.815 155.992 115.999 155.992C115.183 155.992 114.487 156.288 113.911 156.88C113.351 157.456 113.071 158.256 113.071 159.28C113.071 160.304 113.351 161.12 113.911 161.728C114.487 162.32 115.183 162.616 115.999 162.616C116.815 162.616 117.503 162.32 118.063 161.728C118.639 161.136 118.927 160.328 118.927 159.304ZM150.886 149.152V166H146.782V155.896L143.014 166H139.702L135.91 155.872V166H131.806V149.152H136.654L141.382 160.816L146.062 149.152H150.886ZM166.821 159.088C166.821 159.472 166.797 159.872 166.749 160.288H157.461C157.525 161.12 157.789 161.76 158.253 162.208C158.733 162.64 159.317 162.856 160.005 162.856C161.029 162.856 161.741 162.424 162.141 161.56H166.509C166.285 162.44 165.877 163.232 165.285 163.936C164.709 164.64 163.981 165.192 163.101 165.592C162.221 165.992 161.237 166.192 160.149 166.192C158.837 166.192 157.669 165.912 156.645 165.352C155.621 164.792 154.821 163.992 154.245 162.952C153.669 161.912 153.381 160.696 153.381 159.304C153.381 157.912 153.661 156.696 154.221 155.656C154.797 154.616 155.597 153.816 156.621 153.256C157.645 152.696 158.821 152.416 160.149 152.416C161.445 152.416 162.597 152.688 163.605 153.232C164.613 153.776 165.397 154.552 165.957 155.56C166.533 156.568 166.821 157.744 166.821 159.088ZM162.621 158.008C162.621 157.304 162.381 156.744 161.901 156.328C161.421 155.912 160.821 155.704 160.101 155.704C159.413 155.704 158.829 155.904 158.349 156.304C157.885 156.704 157.597 157.272 157.485 158.008H162.621ZM186.434 152.464C188.098 152.464 189.418 152.968 190.394 153.976C191.386 154.984 191.882 156.384 191.882 158.176V166H187.802V158.728C187.802 157.864 187.57 157.2 187.106 156.736C186.658 156.256 186.034 156.016 185.234 156.016C184.434 156.016 183.802 156.256 183.338 156.736C182.89 157.2 182.666 157.864 182.666 158.728V166H178.586V158.728C178.586 157.864 178.354 157.2 177.89 156.736C177.442 156.256 176.818 156.016 176.018 156.016C175.218 156.016 174.586 156.256 174.122 156.736C173.674 157.2 173.45 157.864 173.45 158.728V166H169.346V152.608H173.45V154.288C173.866 153.728 174.41 153.288 175.082 152.968C175.754 152.632 176.514 152.464 177.362 152.464C178.37 152.464 179.266 152.68 180.05 153.112C180.85 153.544 181.474 154.16 181.922 154.96C182.386 154.224 183.018 153.624 183.818 153.16C184.618 152.696 185.49 152.464 186.434 152.464ZM199.217 154.504C199.601 153.88 200.153 153.376 200.873 152.992C201.593 152.608 202.417 152.416 203.345 152.416C204.449 152.416 205.449 152.696 206.345 153.256C207.241 153.816 207.945 154.616 208.457 155.656C208.985 156.696 209.249 157.904 209.249 159.28C209.249 160.656 208.985 161.872 208.457 162.928C207.945 163.968 207.241 164.776 206.345 165.352C205.449 165.912 204.449 166.192 203.345 166.192C202.401 166.192 201.577 166.008 200.873 165.64C200.169 165.256 199.617 164.752 199.217 164.128V166H195.113V148.24H199.217V154.504ZM205.073 159.28C205.073 158.256 204.785 157.456 204.209 156.88C203.649 156.288 202.953 155.992 202.121 155.992C201.305 155.992 200.609 156.288 200.033 156.88C199.473 157.472 199.193 158.28 199.193 159.304C199.193 160.328 199.473 161.136 200.033 161.728C200.609 162.32 201.305 162.616 202.121 162.616C202.937 162.616 203.633 162.32 204.209 161.728C204.785 161.12 205.073 160.304 205.073 159.28ZM224.386 159.088C224.386 159.472 224.362 159.872 224.314 160.288H215.026C215.09 161.12 215.354 161.76 215.818 162.208C216.298 162.64 216.882 162.856 217.57 162.856C218.594 162.856 219.306 162.424 219.706 161.56H224.074C223.85 162.44 223.442 163.232 222.85 163.936C222.274 164.64 221.546 165.192 220.666 165.592C219.786 165.992 218.802 166.192 217.714 166.192C216.402 166.192 215.234 165.912 214.21 165.352C213.186 164.792 212.386 163.992 211.81 162.952C211.234 161.912 210.946 160.696 210.946 159.304C210.946 157.912 211.226 156.696 211.786 155.656C212.362 154.616 213.162 153.816 214.186 153.256C215.21 152.696 216.386 152.416 217.714 152.416C219.01 152.416 220.162 152.688 221.17 153.232C222.178 153.776 222.962 154.552 223.522 155.56C224.098 156.568 224.386 157.744 224.386 159.088ZM220.186 158.008C220.186 157.304 219.946 156.744 219.466 156.328C218.986 155.912 218.386 155.704 217.666 155.704C216.978 155.704 216.394 155.904 215.914 156.304C215.45 156.704 215.162 157.272 215.05 158.008H220.186ZM231.015 154.84C231.495 154.104 232.095 153.528 232.815 153.112C233.535 152.68 234.335 152.464 235.215 152.464V156.808H234.087C233.063 156.808 232.295 157.032 231.783 157.48C231.271 157.912 231.015 158.68 231.015 159.784V166H226.911V152.608H231.015V154.84Z" fill="#424242"/>
<g clip-path="url(#clip0_4752_24148)">
<path d="M162 2V22M152 12H172" stroke="#101828" stroke-width="3" stroke-linecap="round" stroke-linejoin="round"/>
</g>
<path d="M299.25 94L309.25 84L299.25 74M285.25 94L295.25 84L285.25 74" stroke="#101828" stroke-width="4" stroke-linecap="round" stroke-linejoin="round"/>
<path d="M533.501 0C522.499 0 513.547 8.83657 513.547 19.6972C513.547 28.4683 519.365 35.9034 527.409 38.4474C520.425 39.7358 514.188 43.1928 509.422 48.1063C506.178 44.8839 502.046 42.5026 497.383 41.4775C503.219 39.3288 507.408 33.7697 507.408 27.273C507.408 18.9226 500.517 12.1215 492.059 12.1215C483.6 12.1215 476.71 18.9226 476.71 27.273C476.71 33.7697 480.898 39.3289 486.734 41.4775C475.73 43.8861 467.5 53.5884 467.5 65.1993V81.2025C467.509 81.8504 467.933 82.4211 468.556 82.623C475.565 85.0253 483.55 86.3632 492.059 86.3632C494.674 86.3632 497.232 86.2322 499.733 85.9849V93.2286C499.734 93.8638 500.136 94.4314 500.741 94.6491C510.484 98.0733 521.646 100 533.5 100C545.353 100 556.47 98.0733 566.212 94.6491C566.835 94.4472 567.259 93.8765 567.267 93.2286V85.9849C569.768 86.2322 572.326 86.3632 574.941 86.3632C583.45 86.3632 591.435 85.0252 598.444 82.623C599.067 82.4211 599.491 81.8504 599.5 81.2025V65.1993C599.5 53.5884 591.27 43.8863 580.266 41.4775C586.102 39.3288 590.29 33.7697 590.29 27.273C590.29 18.9226 583.4 12.1215 574.941 12.1215C566.483 12.1215 559.592 18.9226 559.592 27.273C559.592 33.7632 563.743 39.3246 569.57 41.4775C564.921 42.5048 560.764 44.8584 557.53 48.0586C552.77 43.1707 546.552 39.7315 539.591 38.4474C547.635 35.9035 553.453 28.4683 553.453 19.6972C553.453 8.83657 544.501 0 533.499 0H533.501ZM533.501 3.03003C542.844 3.03003 550.385 10.4748 550.385 19.6972C550.385 28.9196 542.844 36.3644 533.501 36.3644C524.158 36.3644 516.617 28.9196 516.617 19.6972C516.617 10.4748 524.158 3.03003 533.501 3.03003ZM492.059 15.1515C498.859 15.1515 504.338 20.5606 504.338 27.273C504.338 33.9853 498.859 39.3944 492.059 39.3944C485.259 39.3944 479.779 33.9853 479.779 27.273C479.779 20.5606 485.259 15.1515 492.059 15.1515ZM574.943 15.1515C581.743 15.1515 587.223 20.5606 587.223 27.273C587.223 33.9853 581.743 39.3944 574.943 39.3944C568.143 39.3944 562.664 33.9853 562.664 27.273C562.664 20.5606 568.143 15.1515 574.943 15.1515ZM533.501 40.9088C550.513 40.9088 564.199 54.79 564.199 72.1127V92.0456C555.032 95.1432 544.633 96.9706 533.501 96.9706C522.39 96.9706 511.958 95.1803 502.803 92.0932V72.1127C502.803 54.7913 516.489 40.9088 533.501 40.9088ZM492.059 43.9399C498.099 43.9399 503.513 46.395 507.408 50.3319C502.597 56.2494 499.733 63.8411 499.733 72.1122V82.9071C497.234 83.1671 494.665 83.333 492.059 83.333C484.276 83.333 476.994 82.0933 470.57 80.0186V65.1991C470.57 53.3958 480.129 43.9399 492.059 43.9399ZM574.943 43.9399C586.873 43.9399 596.432 53.3957 596.432 65.199V80.0185C589.999 82.1017 582.743 83.3329 574.943 83.3329C572.337 83.3329 569.768 83.167 567.269 82.907V72.1121C567.269 63.841 564.405 56.2493 559.594 50.3318C563.49 46.4098 568.915 43.9399 574.943 43.9399Z" fill="black"/>
<path d="M370.548 149.152V160.624C370.548 162.4 370.044 163.768 369.036 164.728C368.044 165.688 366.7 166.168 365.004 166.168C363.228 166.168 361.804 165.664 360.732 164.656C359.66 163.648 359.124 162.216 359.124 160.36H363.204C363.204 161.064 363.348 161.6 363.636 161.968C363.924 162.32 364.34 162.496 364.884 162.496C365.38 162.496 365.764 162.336 366.036 162.016C366.308 161.696 366.444 161.232 366.444 160.624V149.152H370.548ZM380.319 166.192C379.007 166.192 377.823 165.912 376.767 165.352C375.727 164.792 374.903 163.992 374.295 162.952C373.703 161.912 373.407 160.696 373.407 159.304C373.407 157.928 373.711 156.72 374.319 155.68C374.927 154.624 375.759 153.816 376.815 153.256C377.871 152.696 379.055 152.416 380.367 152.416C381.679 152.416 382.863 152.696 383.919 153.256C384.975 153.816 385.807 154.624 386.415 155.68C387.023 156.72 387.327 157.928 387.327 159.304C387.327 160.68 387.015 161.896 386.391 162.952C385.783 163.992 384.943 164.792 383.871 165.352C382.815 165.912 381.631 166.192 380.319 166.192ZM380.319 162.64C381.103 162.64 381.767 162.352 382.311 161.776C382.871 161.2 383.151 160.376 383.151 159.304C383.151 158.232 382.879 157.408 382.335 156.832C381.807 156.256 381.151 155.968 380.367 155.968C379.567 155.968 378.903 156.256 378.375 156.832C377.847 157.392 377.583 158.216 377.583 159.304C377.583 160.376 377.839 161.2 378.351 161.776C378.879 162.352 379.535 162.64 380.319 162.64ZM391.928 151.216C391.208 151.216 390.616 151.008 390.152 150.592C389.704 150.16 389.48 149.632 389.48 149.008C389.48 148.368 389.704 147.84 390.152 147.424C390.616 146.992 391.208 146.776 391.928 146.776C392.632 146.776 393.208 146.992 393.656 147.424C394.12 147.84 394.352 148.368 394.352 149.008C394.352 149.632 394.12 150.16 393.656 150.592C393.208 151.008 392.632 151.216 391.928 151.216ZM393.968 152.608V166H389.864V152.608H393.968ZM405.462 152.464C407.03 152.464 408.278 152.976 409.206 154C410.15 155.008 410.622 156.4 410.622 158.176V166H406.542V158.728C406.542 157.832 406.31 157.136 405.846 156.64C405.382 156.144 404.758 155.896 403.974 155.896C403.19 155.896 402.566 156.144 402.102 156.64C401.638 157.136 401.406 157.832 401.406 158.728V166H397.302V152.608H401.406V154.384C401.822 153.792 402.382 153.328 403.086 152.992C403.79 152.64 404.582 152.464 405.462 152.464ZM427.872 166L424.368 159.64H423.384V166H419.28V149.152H426.168C427.496 149.152 428.624 149.384 429.552 149.848C430.496 150.312 431.2 150.952 431.664 151.768C432.128 152.568 432.36 153.464 432.36 154.456C432.36 155.576 432.04 156.576 431.4 157.456C430.776 158.336 429.848 158.96 428.616 159.328L432.504 166H427.872ZM423.384 156.736H425.928C426.68 156.736 427.24 156.552 427.608 156.184C427.992 155.816 428.184 155.296 428.184 154.624C428.184 153.984 427.992 153.48 427.608 153.112C427.24 152.744 426.68 152.56 425.928 152.56H423.384V156.736ZM447.92 159.088C447.92 159.472 447.896 159.872 447.848 160.288H438.56C438.624 161.12 438.888 161.76 439.352 162.208C439.832 162.64 440.416 162.856 441.104 162.856C442.128 162.856 442.84 162.424 443.24 161.56H447.608C447.384 162.44 446.976 163.232 446.384 163.936C445.808 164.64 445.08 165.192 444.2 165.592C443.32 165.992 442.336 166.192 441.248 166.192C439.936 166.192 438.768 165.912 437.744 165.352C436.72 164.792 435.92 163.992 435.344 162.952C434.768 161.912 434.48 160.696 434.48 159.304C434.48 157.912 434.76 156.696 435.32 155.656C435.896 154.616 436.696 153.816 437.72 153.256C438.744 152.696 439.92 152.416 441.248 152.416C442.544 152.416 443.696 152.688 444.704 153.232C445.712 153.776 446.496 154.552 447.056 155.56C447.632 156.568 447.92 157.744 447.92 159.088ZM443.72 158.008C443.72 157.304 443.48 156.744 443 156.328C442.52 155.912 441.92 155.704 441.2 155.704C440.512 155.704 439.928 155.904 439.448 156.304C438.984 156.704 438.696 157.272 438.584 158.008H443.72ZM454.549 148.24V166H450.445V148.24H454.549ZM470.508 159.088C470.508 159.472 470.484 159.872 470.436 160.288H461.148C461.212 161.12 461.476 161.76 461.94 162.208C462.42 162.64 463.004 162.856 463.692 162.856C464.716 162.856 465.428 162.424 465.828 161.56H470.196C469.972 162.44 469.564 163.232 468.972 163.936C468.396 164.64 467.668 165.192 466.788 165.592C465.908 165.992 464.924 166.192 463.836 166.192C462.524 166.192 461.356 165.912 460.332 165.352C459.308 164.792 458.508 163.992 457.932 162.952C457.356 161.912 457.068 160.696 457.068 159.304C457.068 157.912 457.348 156.696 457.908 155.656C458.484 154.616 459.284 153.816 460.308 153.256C461.332 152.696 462.508 152.416 463.836 152.416C465.132 152.416 466.284 152.688 467.292 153.232C468.3 153.776 469.084 154.552 469.644 155.56C470.22 156.568 470.508 157.744 470.508 159.088ZM466.308 158.008C466.308 157.304 466.068 156.744 465.588 156.328C465.108 155.912 464.508 155.704 463.788 155.704C463.1 155.704 462.516 155.904 462.036 156.304C461.572 156.704 461.284 157.272 461.172 158.008H466.308ZM479.057 162.16L481.961 152.608H486.329L481.577 166H476.513L471.761 152.608H476.153L479.057 162.16ZM487.6 159.28C487.6 157.904 487.856 156.696 488.368 155.656C488.896 154.616 489.608 153.816 490.504 153.256C491.4 152.696 492.4 152.416 493.504 152.416C494.448 152.416 495.272 152.608 495.976 152.992C496.696 153.376 497.248 153.88 497.632 154.504V152.608H501.736V166H497.632V164.104C497.232 164.728 496.672 165.232 495.952 165.616C495.248 166 494.424 166.192 493.48 166.192C492.392 166.192 491.4 165.912 490.504 165.352C489.608 164.776 488.896 163.968 488.368 162.928C487.856 161.872 487.6 160.656 487.6 159.28ZM497.632 159.304C497.632 158.28 497.344 157.472 496.768 156.88C496.208 156.288 495.52 155.992 494.704 155.992C493.888 155.992 493.192 156.288 492.616 156.88C492.056 157.456 491.776 158.256 491.776 159.28C491.776 160.304 492.056 161.12 492.616 161.728C493.192 162.32 493.888 162.616 494.704 162.616C495.52 162.616 496.208 162.32 496.768 161.728C497.344 161.136 497.632 160.328 497.632 159.304ZM513.225 152.464C514.793 152.464 516.041 152.976 516.969 154C517.913 155.008 518.385 156.4 518.385 158.176V166H514.305V158.728C514.305 157.832 514.073 157.136 513.609 156.64C513.145 156.144 512.521 155.896 511.737 155.896C510.953 155.896 510.329 156.144 509.865 156.64C509.401 157.136 509.169 157.832 509.169 158.728V166H505.065V152.608H509.169V154.384C509.585 153.792 510.145 153.328 510.849 152.992C511.553 152.64 512.345 152.464 513.225 152.464ZM529.061 162.52V166H526.973C525.485 166 524.325 165.64 523.493 164.92C522.661 164.184 522.245 162.992 522.245 161.344V156.016H520.613V152.608H522.245V149.344H526.349V152.608H529.037V156.016H526.349V161.392C526.349 161.792 526.445 162.08 526.637 162.256C526.829 162.432 527.149 162.52 527.597 162.52H529.061ZM536.457 157.552C536.457 155.888 536.817 154.408 537.537 153.112C538.257 151.8 539.257 150.784 540.537 150.064C541.833 149.328 543.297 148.96 544.929 148.96C546.929 148.96 548.641 149.488 550.065 150.544C551.489 151.6 552.441 153.04 552.921 154.864H548.409C548.073 154.16 547.593 153.624 546.969 153.256C546.361 152.888 545.665 152.704 544.881 152.704C543.617 152.704 542.593 153.144 541.809 154.024C541.025 154.904 540.633 156.08 540.633 157.552C540.633 159.024 541.025 160.2 541.809 161.08C542.593 161.96 543.617 162.4 544.881 162.4C545.665 162.4 546.361 162.216 546.969 161.848C547.593 161.48 548.073 160.944 548.409 160.24H552.921C552.441 162.064 551.489 163.504 550.065 164.56C548.641 165.6 546.929 166.12 544.929 166.12C543.297 166.12 541.833 165.76 540.537 165.04C539.257 164.304 538.257 163.288 537.537 161.992C536.817 160.696 536.457 159.216 536.457 157.552ZM561.89 166.192C560.578 166.192 559.394 165.912 558.338 165.352C557.298 164.792 556.474 163.992 555.866 162.952C555.274 161.912 554.978 160.696 554.978 159.304C554.978 157.928 555.282 156.72 555.89 155.68C556.498 154.624 557.33 153.816 558.386 153.256C559.442 152.696 560.626 152.416 561.938 152.416C563.25 152.416 564.434 152.696 565.49 153.256C566.546 153.816 567.378 154.624 567.986 155.68C568.594 156.72 568.898 157.928 568.898 159.304C568.898 160.68 568.586 161.896 567.962 162.952C567.354 163.992 566.514 164.792 565.442 165.352C564.386 165.912 563.202 166.192 561.89 166.192ZM561.89 162.64C562.674 162.64 563.338 162.352 563.882 161.776C564.442 161.2 564.722 160.376 564.722 159.304C564.722 158.232 564.45 157.408 563.906 156.832C563.378 156.256 562.722 155.968 561.938 155.968C561.138 155.968 560.474 156.256 559.946 156.832C559.418 157.392 559.154 158.216 559.154 159.304C559.154 160.376 559.41 161.2 559.922 161.776C560.45 162.352 561.106 162.64 561.89 162.64ZM588.523 152.464C590.187 152.464 591.507 152.968 592.483 153.976C593.475 154.984 593.971 156.384 593.971 158.176V166H589.891V158.728C589.891 157.864 589.659 157.2 589.195 156.736C588.747 156.256 588.123 156.016 587.323 156.016C586.523 156.016 585.891 156.256 585.427 156.736C584.979 157.2 584.755 157.864 584.755 158.728V166H580.675V158.728C580.675 157.864 580.443 157.2 579.979 156.736C579.531 156.256 578.907 156.016 578.107 156.016C577.307 156.016 576.675 156.256 576.211 156.736C575.763 157.2 575.539 157.864 575.539 158.728V166H571.435V152.608H575.539V154.288C575.955 153.728 576.499 153.288 577.171 152.968C577.843 152.632 578.603 152.464 579.451 152.464C580.459 152.464 581.355 152.68 582.139 153.112C582.939 153.544 583.563 154.16 584.011 154.96C584.475 154.224 585.107 153.624 585.907 153.16C586.707 152.696 587.579 152.464 588.523 152.464ZM614.29 152.464C615.954 152.464 617.274 152.968 618.25 153.976C619.242 154.984 619.738 156.384 619.738 158.176V166H615.658V158.728C615.658 157.864 615.426 157.2 614.962 156.736C614.514 156.256 613.89 156.016 613.09 156.016C612.29 156.016 611.658 156.256 611.194 156.736C610.746 157.2 610.522 157.864 610.522 158.728V166H606.442V158.728C606.442 157.864 606.21 157.2 605.746 156.736C605.298 156.256 604.674 156.016 603.874 156.016C603.074 156.016 602.442 156.256 601.978 156.736C601.53 157.2 601.306 157.864 601.306 158.728V166H597.202V152.608H601.306V154.288C601.722 153.728 602.266 153.288 602.938 152.968C603.61 152.632 604.37 152.464 605.218 152.464C606.226 152.464 607.122 152.68 607.906 153.112C608.706 153.544 609.33 154.16 609.778 154.96C610.242 154.224 610.874 153.624 611.674 153.16C612.474 152.696 613.346 152.464 614.29 152.464ZM636.192 152.608V166H632.088V164.176C631.672 164.768 631.104 165.248 630.384 165.616C629.68 165.968 628.896 166.144 628.032 166.144C627.008 166.144 626.104 165.92 625.32 165.472C624.536 165.008 623.928 164.344 623.496 163.48C623.064 162.616 622.848 161.6 622.848 160.432V152.608H626.928V159.88C626.928 160.776 627.16 161.472 627.624 161.968C628.088 162.464 628.712 162.712 629.496 162.712C630.296 162.712 630.928 162.464 631.392 161.968C631.856 161.472 632.088 160.776 632.088 159.88V152.608H636.192ZM647.66 152.464C649.228 152.464 650.476 152.976 651.404 154C652.348 155.008 652.82 156.4 652.82 158.176V166H648.74V158.728C648.74 157.832 648.508 157.136 648.044 156.64C647.58 156.144 646.956 155.896 646.172 155.896C645.388 155.896 644.764 156.144 644.3 156.64C643.836 157.136 643.604 157.832 643.604 158.728V166H639.5V152.608H643.604V154.384C644.02 153.792 644.58 153.328 645.284 152.992C645.988 152.64 646.78 152.464 647.66 152.464ZM658.096 151.216C657.376 151.216 656.784 151.008 656.32 150.592C655.872 150.16 655.648 149.632 655.648 149.008C655.648 148.368 655.872 147.84 656.32 147.424C656.784 146.992 657.376 146.776 658.096 146.776C658.8 146.776 659.376 146.992 659.824 147.424C660.288 147.84 660.52 148.368 660.52 149.008C660.52 149.632 660.288 150.16 659.824 150.592C659.376 151.008 658.8 151.216 658.096 151.216ZM660.136 152.608V166H656.032V152.608H660.136ZM670.934 162.52V166H668.846C667.358 166 666.198 165.64 665.366 164.92C664.534 164.184 664.118 162.992 664.118 161.344V156.016H662.486V152.608H664.118V149.344H668.222V152.608H670.91V156.016H668.222V161.392C668.222 161.792 668.318 162.08 668.51 162.256C668.702 162.432 669.022 162.52 669.47 162.52H670.934ZM675.644 151.216C674.924 151.216 674.332 151.008 673.868 150.592C673.42 150.16 673.196 149.632 673.196 149.008C673.196 148.368 673.42 147.84 673.868 147.424C674.332 146.992 674.924 146.776 675.644 146.776C676.348 146.776 676.924 146.992 677.372 147.424C677.836 147.84 678.068 148.368 678.068 149.008C678.068 149.632 677.836 150.16 677.372 150.592C676.924 151.008 676.348 151.216 675.644 151.216ZM677.684 152.608V166H673.58V152.608H677.684ZM693.642 159.088C693.642 159.472 693.618 159.872 693.57 160.288H684.282C684.346 161.12 684.61 161.76 685.074 162.208C685.554 162.64 686.138 162.856 686.826 162.856C687.85 162.856 688.562 162.424 688.962 161.56H693.33C693.106 162.44 692.698 163.232 692.106 163.936C691.53 164.64 690.802 165.192 689.922 165.592C689.042 165.992 688.058 166.192 686.97 166.192C685.658 166.192 684.49 165.912 683.466 165.352C682.442 164.792 681.642 163.992 681.066 162.952C680.49 161.912 680.202 160.696 680.202 159.304C680.202 157.912 680.482 156.696 681.042 155.656C681.618 154.616 682.418 153.816 683.442 153.256C684.466 152.696 685.642 152.416 686.97 152.416C688.266 152.416 689.418 152.688 690.426 153.232C691.434 153.776 692.218 154.552 692.778 155.56C693.354 156.568 693.642 157.744 693.642 159.088ZM689.442 158.008C689.442 157.304 689.202 156.744 688.722 156.328C688.242 155.912 687.642 155.704 686.922 155.704C686.234 155.704 685.65 155.904 685.17 156.304C684.706 156.704 684.418 157.272 684.306 158.008H689.442ZM701.615 166.192C700.447 166.192 699.407 165.992 698.495 165.592C697.583 165.192 696.863 164.648 696.335 163.96C695.807 163.256 695.511 162.472 695.447 161.608H699.503C699.551 162.072 699.767 162.448 700.151 162.736C700.535 163.024 701.007 163.168 701.567 163.168C702.079 163.168 702.471 163.072 702.743 162.88C703.031 162.672 703.175 162.408 703.175 162.088C703.175 161.704 702.975 161.424 702.575 161.248C702.175 161.056 701.527 160.848 700.631 160.624C699.671 160.4 698.871 160.168 698.231 159.928C697.591 159.672 697.039 159.28 696.575 158.752C696.111 158.208 695.879 157.48 695.879 156.568C695.879 155.8 696.087 155.104 696.503 154.48C696.935 153.84 697.559 153.336 698.375 152.968C699.207 152.6 700.191 152.416 701.327 152.416C703.007 152.416 704.327 152.832 705.287 153.664C706.263 154.496 706.823 155.6 706.967 156.976H703.175C703.111 156.512 702.903 156.144 702.551 155.872C702.215 155.6 701.767 155.464 701.207 155.464C700.727 155.464 700.359 155.56 700.103 155.752C699.847 155.928 699.719 156.176 699.719 156.496C699.719 156.88 699.919 157.168 700.319 157.36C700.735 157.552 701.375 157.744 702.239 157.936C703.231 158.192 704.039 158.448 704.663 158.704C705.287 158.944 705.831 159.344 706.295 159.904C706.775 160.448 707.023 161.184 707.039 162.112C707.039 162.896 706.815 163.6 706.367 164.224C705.935 164.832 705.303 165.312 704.471 165.664C703.655 166.016 702.703 166.192 701.615 166.192Z" fill="#424242"/>
<path d="M771.75 94L781.75 84L771.75 74M757.75 94L767.75 84L757.75 74" stroke="#101828" stroke-width="4" stroke-linecap="round" stroke-linejoin="round"/>
<path d="M1007.77 9.06459C1010.36 9.06459 1012.46 7.03784 1012.46 4.53229C1012.46 2.02675 1010.36 0 1007.77 0C1005.17 0 1003.07 2.02675 1003.07 4.53229C1003.07 7.03782 1005.17 9.06459 1007.77 9.06459Z" fill="black"/>
<path d="M1005.95 21.4699C1007.57 21.4699 1008.89 20.2009 1008.89 18.6314C1008.89 17.0619 1007.57 15.793 1005.95 15.793C1004.32 15.793 1003.01 17.0619 1003.01 18.6314C1003.01 20.2009 1004.32 21.4699 1005.95 21.4699Z" fill="black"/>
<path d="M999.781 9.72043C999.781 10.6798 998.975 11.4574 997.982 11.4574C996.989 11.4574 996.184 10.6798 996.184 9.72043C996.184 8.76195 996.989 7.98438 997.982 7.98438C998.975 7.98438 999.781 8.76195 999.781 9.72043Z" fill="black"/>
<path d="M931.3 92.2039C931.3 91.9078 931.134 91.6397 930.866 91.4948L924.914 88.3557L921.657 82.6094C921.367 82.0937 920.488 82.0937 920.193 82.6094L916.947 88.3557L910.995 91.4948C910.727 91.6343 910.561 91.9088 910.561 92.2039C910.561 92.5 910.727 92.7682 910.995 92.9131L916.947 96.0575L920.193 101.804C920.337 102.062 920.622 102.223 920.927 102.223C921.234 102.223 921.512 102.062 921.657 101.804L924.914 96.0575L930.872 92.9131C931.134 92.7682 931.3 92.5 931.3 92.2039Z" fill="black"/>
<path d="M931.397 85.7061C931.541 85.9644 931.826 86.1255 932.131 86.1255C932.438 86.1255 932.716 85.9644 932.861 85.7061L934.599 82.6472L937.762 80.9751C938.029 80.8356 938.196 80.5611 938.196 80.2659C938.196 79.9698 938.029 79.7016 937.762 79.5567L934.599 77.8846L932.861 74.8256C932.717 74.5673 932.432 74.4062 932.131 74.4062C931.83 74.4062 931.547 74.5673 931.397 74.8256L929.665 77.8846L926.503 79.5567C926.235 79.6962 926.068 79.9707 926.068 80.2659C926.068 80.562 926.235 80.8302 926.503 80.9751L929.666 82.6472L931.397 85.7061Z" fill="black"/>
<path d="M937.068 101.635L935.331 98.5756C935.186 98.3173 934.902 98.1562 934.601 98.1562C934.294 98.1562 934.016 98.3173 933.866 98.5756L932.14 101.635L928.972 103.307C928.704 103.446 928.537 103.721 928.537 104.016C928.537 104.312 928.704 104.58 928.972 104.725L932.14 106.403L933.866 109.456C934.011 109.715 934.295 109.876 934.601 109.876C934.908 109.876 935.185 109.715 935.331 109.456L937.068 106.403L940.237 104.725C940.504 104.586 940.671 104.311 940.671 104.016C940.671 103.72 940.504 103.452 940.237 103.307L937.068 101.635Z" fill="black"/>
<path d="M1042.01 20.3889C1042.01 19.9533 1041.79 19.5393 1041.42 19.2918C1041.05 19.0444 1040.57 18.9804 1040.14 19.1308L1016.53 27.3989C1013.33 28.7749 1011.36 31.807 1011.27 35.0217L988.426 24.9853C987.975 24.7162 977.323 18.6467 963.558 27.9633L939.565 29.7759C940.239 25.9753 938.168 22.0667 934.32 20.4378L910.778 12.2725C910.354 12.1267 909.881 12.1915 909.508 12.4336C909.141 12.6865 908.918 13.1004 908.918 13.5405L908.996 68.3533C908.996 69.1003 909.62 69.697 910.388 69.697L919.119 69.6862C922.587 69.6808 925.628 67.6703 927.07 64.6814L969.188 95.8835C970.563 96.6035 972.673 97.3028 974.884 97.3028C977.184 97.3028 979.583 96.545 981.371 94.2761C983.315 95.1257 986.288 95.6144 988.944 94.6145C990.548 94.0124 992.542 92.6742 993.6 89.7223C996.267 90.8032 999.023 90.8347 1001.22 89.7763C1003.42 88.7117 1004.9 86.6372 1005.5 83.8679C1007.73 83.975 1010.6 83.4053 1012.73 81.4974C1014.07 80.2986 1015.44 78.0567 1015.16 74.3741L1023.24 69.9121L1023.57 70.8201C1024.8 74.2608 1028.17 76.562 1031.95 76.562H1031.96L1040.69 76.5512C1041.06 76.5512 1041.41 76.4117 1041.67 76.1588C1041.94 75.9059 1042.08 75.5675 1042.08 75.2075L1042.01 20.3889ZM919.121 66.9928L911.782 67.0036L911.704 15.4486L933.293 22.9373C936.193 24.1684 937.641 27.394 936.577 30.2909L924.867 63.0298C924.021 65.4003 921.711 66.9861 919.121 66.9914L919.121 66.9928ZM1010.85 79.5186C1009.18 81.0189 1006.57 81.3248 1004.99 81.0936L995.11 70.9814C994.582 70.4387 993.707 70.4171 993.139 70.9274C992.577 71.4376 992.56 72.2872 993.083 72.8308L1002.83 82.8089C1002.48 85.0291 1001.52 86.615 999.971 87.3672C998.216 88.2222 995.817 87.9477 993.545 86.6787L984.43 77.1156C983.912 76.5729 983.033 76.5297 982.464 77.0346C981.897 77.5395 981.863 78.3837 982.38 78.9326L991.15 88.1249C990.622 90.1354 989.558 91.4953 987.937 92.1081C985.733 92.9469 982.976 92.2584 981.801 91.4305L973.961 83.5061C973.438 82.9742 972.558 82.9526 971.989 83.4629C971.433 83.9786 971.41 84.8281 971.944 85.3663L979.089 92.5912C976.093 96.2794 970.77 93.6559 970.703 93.6451L928.144 62.0997L938.712 32.5494L960.211 30.9259C956.009 35.3944 951.56 41.947 951.259 42.4149C951.192 42.549 949.684 45.7745 951.231 48.7643C952.278 50.791 954.4 52.1508 957.84 52.8287C961.398 52.8233 964.417 52.0061 969.94 47.7699C972.184 47.9256 976.109 46.7755 978.431 44.6624L1012.41 74.2126C1012.67 76.5407 1012.16 78.3362 1010.85 79.5188L1010.85 79.5186ZM1013.95 71.9444L979.241 41.7491C978.946 41.4908 978.545 41.3567 978.144 41.4161C977.743 41.4647 977.381 41.6744 977.159 41.9966C975.55 44.3086 970.939 45.3509 969.948 45.0611C969.503 44.9432 969.029 45.0287 968.673 45.3032C963.45 49.3836 960.927 50.1306 958.127 50.1684C955.867 49.7004 954.385 48.8247 953.728 47.5774C952.803 45.8143 953.711 43.7012 953.695 43.7012C953.901 43.3953 959.981 34.4387 964.274 30.7345C976.892 21.5683 986.569 27.0355 987.126 27.3532L1011.81 38.2068L1022.32 67.3285L1013.95 71.9444ZM1031.97 73.874H1031.96C1029.36 73.874 1027.06 72.2936 1026.21 69.9393L1014.41 37.2166C1013.34 34.3348 1014.77 31.104 1017.57 29.8945L1039.23 22.315L1039.31 73.8632L1031.97 73.874Z" fill="black"/>
<path d="M831.792 157.552C831.792 155.888 832.152 154.408 832.872 153.112C833.592 151.8 834.592 150.784 835.872 150.064C837.168 149.328 838.632 148.96 840.264 148.96C842.264 148.96 843.976 149.488 845.4 150.544C846.824 151.6 847.776 153.04 848.256 154.864H843.744C843.408 154.16 842.928 153.624 842.304 153.256C841.696 152.888 841 152.704 840.216 152.704C838.952 152.704 837.928 153.144 837.144 154.024C836.36 154.904 835.968 156.08 835.968 157.552C835.968 159.024 836.36 160.2 837.144 161.08C837.928 161.96 838.952 162.4 840.216 162.4C841 162.4 841.696 162.216 842.304 161.848C842.928 161.48 843.408 160.944 843.744 160.24H848.256C847.776 162.064 846.824 163.504 845.4 164.56C843.976 165.6 842.264 166.12 840.264 166.12C838.632 166.12 837.168 165.76 835.872 165.04C834.592 164.304 833.592 163.288 832.872 161.992C832.152 160.696 831.792 159.216 831.792 157.552ZM857.225 166.192C855.913 166.192 854.729 165.912 853.673 165.352C852.633 164.792 851.809 163.992 851.201 162.952C850.609 161.912 850.313 160.696 850.313 159.304C850.313 157.928 850.617 156.72 851.225 155.68C851.833 154.624 852.665 153.816 853.721 153.256C854.777 152.696 855.961 152.416 857.273 152.416C858.585 152.416 859.769 152.696 860.825 153.256C861.881 153.816 862.713 154.624 863.321 155.68C863.929 156.72 864.233 157.928 864.233 159.304C864.233 160.68 863.921 161.896 863.297 162.952C862.689 163.992 861.849 164.792 860.777 165.352C859.721 165.912 858.537 166.192 857.225 166.192ZM857.225 162.64C858.009 162.64 858.673 162.352 859.217 161.776C859.777 161.2 860.057 160.376 860.057 159.304C860.057 158.232 859.785 157.408 859.241 156.832C858.713 156.256 858.057 155.968 857.273 155.968C856.473 155.968 855.809 156.256 855.281 156.832C854.753 157.392 854.489 158.216 854.489 159.304C854.489 160.376 854.745 161.2 855.257 161.776C855.785 162.352 856.441 162.64 857.225 162.64ZM874.931 152.464C876.499 152.464 877.747 152.976 878.675 154C879.619 155.008 880.091 156.4 880.091 158.176V166H876.011V158.728C876.011 157.832 875.779 157.136 875.315 156.64C874.851 156.144 874.227 155.896 873.443 155.896C872.659 155.896 872.035 156.144 871.571 156.64C871.107 157.136 870.875 157.832 870.875 158.728V166H866.771V152.608H870.875V154.384C871.291 153.792 871.851 153.328 872.555 152.992C873.259 152.64 874.051 152.464 874.931 152.464ZM891.462 152.464C893.03 152.464 894.278 152.976 895.206 154C896.15 155.008 896.622 156.4 896.622 158.176V166H892.542V158.728C892.542 157.832 892.31 157.136 891.846 156.64C891.382 156.144 890.758 155.896 889.974 155.896C889.19 155.896 888.566 156.144 888.102 156.64C887.638 157.136 887.406 157.832 887.406 158.728V166H883.302V152.608H887.406V154.384C887.822 153.792 888.382 153.328 889.086 152.992C889.79 152.64 890.582 152.464 891.462 152.464ZM912.458 159.088C912.458 159.472 912.434 159.872 912.386 160.288H903.098C903.162 161.12 903.426 161.76 903.89 162.208C904.37 162.64 904.954 162.856 905.642 162.856C906.666 162.856 907.378 162.424 907.778 161.56H912.146C911.922 162.44 911.514 163.232 910.922 163.936C910.346 164.64 909.618 165.192 908.738 165.592C907.858 165.992 906.874 166.192 905.786 166.192C904.474 166.192 903.306 165.912 902.282 165.352C901.258 164.792 900.458 163.992 899.882 162.952C899.306 161.912 899.018 160.696 899.018 159.304C899.018 157.912 899.298 156.696 899.858 155.656C900.434 154.616 901.234 153.816 902.258 153.256C903.282 152.696 904.458 152.416 905.786 152.416C907.082 152.416 908.234 152.688 909.242 153.232C910.25 153.776 911.034 154.552 911.594 155.56C912.17 156.568 912.458 157.744 912.458 159.088ZM908.258 158.008C908.258 157.304 908.018 156.744 907.538 156.328C907.058 155.912 906.458 155.704 905.738 155.704C905.05 155.704 904.466 155.904 903.986 156.304C903.522 156.704 903.234 157.272 903.122 158.008H908.258ZM914.167 159.304C914.167 157.912 914.447 156.696 915.007 155.656C915.583 154.616 916.375 153.816 917.383 153.256C918.407 152.696 919.575 152.416 920.887 152.416C922.567 152.416 923.967 152.856 925.087 153.736C926.223 154.616 926.967 155.856 927.319 157.456H922.951C922.583 156.432 921.871 155.92 920.815 155.92C920.063 155.92 919.463 156.216 919.015 156.808C918.567 157.384 918.343 158.216 918.343 159.304C918.343 160.392 918.567 161.232 919.015 161.824C919.463 162.4 920.063 162.688 920.815 162.688C921.871 162.688 922.583 162.176 922.951 161.152H927.319C926.967 162.72 926.223 163.952 925.087 164.848C923.951 165.744 922.551 166.192 920.887 166.192C919.575 166.192 918.407 165.912 917.383 165.352C916.375 164.792 915.583 163.992 915.007 162.952C914.447 161.912 914.167 160.696 914.167 159.304ZM937.339 162.52V166H935.251C933.763 166 932.603 165.64 931.771 164.92C930.939 164.184 930.523 162.992 930.523 161.344V156.016H928.891V152.608H930.523V149.344H934.627V152.608H937.315V156.016H934.627V161.392C934.627 161.792 934.723 162.08 934.915 162.256C935.107 162.432 935.427 162.52 935.875 162.52H937.339ZM958.318 166L956.758 164.488C955.206 165.672 953.35 166.264 951.19 166.264C949.894 166.264 948.766 166.056 947.806 165.64C946.846 165.208 946.102 164.608 945.574 163.84C945.062 163.056 944.806 162.144 944.806 161.104C944.806 160.048 945.086 159.096 945.646 158.248C946.222 157.384 947.078 156.68 948.214 156.136C947.798 155.624 947.502 155.136 947.326 154.672C947.15 154.192 947.062 153.672 947.062 153.112C947.062 152.312 947.27 151.584 947.686 150.928C948.102 150.272 948.702 149.76 949.486 149.392C950.286 149.008 951.23 148.816 952.318 148.816C953.422 148.816 954.358 149.016 955.126 149.416C955.894 149.816 956.47 150.352 956.854 151.024C957.238 151.696 957.414 152.432 957.382 153.232H953.518C953.534 152.8 953.422 152.472 953.182 152.248C952.958 152.008 952.654 151.888 952.27 151.888C951.886 151.888 951.566 152 951.31 152.224C951.054 152.448 950.926 152.736 950.926 153.088C950.926 153.424 951.03 153.776 951.238 154.144C951.462 154.512 951.806 154.936 952.27 155.416L956.374 159.424C956.406 159.344 956.446 159.248 956.494 159.136C956.558 159.024 956.622 158.896 956.686 158.752L957.574 157.24H961.678L960.526 159.328C960.094 160.272 959.598 161.168 959.038 162.016L963.094 166H958.318ZM951.382 162.952C952.454 162.952 953.406 162.648 954.238 162.04L950.494 158.416C949.342 159.008 948.766 159.808 948.766 160.816C948.766 161.424 948.998 161.936 949.462 162.352C949.942 162.752 950.582 162.952 951.382 162.952ZM969.689 157.552C969.689 155.888 970.049 154.408 970.769 153.112C971.489 151.8 972.489 150.784 973.769 150.064C975.065 149.328 976.529 148.96 978.161 148.96C980.161 148.96 981.873 149.488 983.297 150.544C984.721 151.6 985.673 153.04 986.153 154.864H981.641C981.305 154.16 980.825 153.624 980.201 153.256C979.593 152.888 978.897 152.704 978.113 152.704C976.849 152.704 975.825 153.144 975.041 154.024C974.257 154.904 973.865 156.08 973.865 157.552C973.865 159.024 974.257 160.2 975.041 161.08C975.825 161.96 976.849 162.4 978.113 162.4C978.897 162.4 979.593 162.216 980.201 161.848C980.825 161.48 981.305 160.944 981.641 160.24H986.153C985.673 162.064 984.721 163.504 983.297 164.56C981.873 165.6 980.161 166.12 978.161 166.12C976.529 166.12 975.065 165.76 973.769 165.04C972.489 164.304 971.489 163.288 970.769 161.992C970.049 160.696 969.689 159.216 969.689 157.552ZM995.122 166.192C993.81 166.192 992.626 165.912 991.57 165.352C990.53 164.792 989.706 163.992 989.098 162.952C988.506 161.912 988.21 160.696 988.21 159.304C988.21 157.928 988.514 156.72 989.122 155.68C989.73 154.624 990.562 153.816 991.618 153.256C992.674 152.696 993.858 152.416 995.17 152.416C996.482 152.416 997.666 152.696 998.722 153.256C999.778 153.816 1000.61 154.624 1001.22 155.68C1001.83 156.72 1002.13 157.928 1002.13 159.304C1002.13 160.68 1001.82 161.896 1001.19 162.952C1000.59 163.992 999.746 164.792 998.674 165.352C997.618 165.912 996.434 166.192 995.122 166.192ZM995.122 162.64C995.906 162.64 996.57 162.352 997.114 161.776C997.674 161.2 997.954 160.376 997.954 159.304C997.954 158.232 997.682 157.408 997.138 156.832C996.61 156.256 995.954 155.968 995.17 155.968C994.37 155.968 993.706 156.256 993.178 156.832C992.65 157.392 992.386 158.216 992.386 159.304C992.386 160.376 992.642 161.2 993.154 161.776C993.682 162.352 994.338 162.64 995.122 162.64ZM1008.77 148.24V166H1004.67V148.24H1008.77ZM1016.21 148.24V166H1012.11V148.24H1016.21ZM1018.73 159.28C1018.73 157.904 1018.98 156.696 1019.5 155.656C1020.02 154.616 1020.74 153.816 1021.63 153.256C1022.53 152.696 1023.53 152.416 1024.63 152.416C1025.58 152.416 1026.4 152.608 1027.1 152.992C1027.82 153.376 1028.38 153.88 1028.76 154.504V152.608H1032.86V166H1028.76V164.104C1028.36 164.728 1027.8 165.232 1027.08 165.616C1026.38 166 1025.55 166.192 1024.61 166.192C1023.52 166.192 1022.53 165.912 1021.63 165.352C1020.74 164.776 1020.02 163.968 1019.5 162.928C1018.98 161.872 1018.73 160.656 1018.73 159.28ZM1028.76 159.304C1028.76 158.28 1028.47 157.472 1027.9 156.88C1027.34 156.288 1026.65 155.992 1025.83 155.992C1025.02 155.992 1024.32 156.288 1023.74 156.88C1023.18 157.456 1022.9 158.256 1022.9 159.28C1022.9 160.304 1023.18 161.12 1023.74 161.728C1024.32 162.32 1025.02 162.616 1025.83 162.616C1026.65 162.616 1027.34 162.32 1027.9 161.728C1028.47 161.136 1028.76 160.328 1028.76 159.304ZM1040.3 154.504C1040.68 153.88 1041.23 153.376 1041.95 152.992C1042.67 152.608 1043.5 152.416 1044.42 152.416C1045.53 152.416 1046.53 152.696 1047.42 153.256C1048.32 153.816 1049.02 154.616 1049.54 155.656C1050.06 156.696 1050.33 157.904 1050.33 159.28C1050.33 160.656 1050.06 161.872 1049.54 162.928C1049.02 163.968 1048.32 164.776 1047.42 165.352C1046.53 165.912 1045.53 166.192 1044.42 166.192C1043.48 166.192 1042.66 166.008 1041.95 165.64C1041.25 165.256 1040.7 164.752 1040.3 164.128V166H1036.19V148.24H1040.3V154.504ZM1046.15 159.28C1046.15 158.256 1045.86 157.456 1045.29 156.88C1044.73 156.288 1044.03 155.992 1043.2 155.992C1042.38 155.992 1041.69 156.288 1041.11 156.88C1040.55 157.472 1040.27 158.28 1040.27 159.304C1040.27 160.328 1040.55 161.136 1041.11 161.728C1041.69 162.32 1042.38 162.616 1043.2 162.616C1044.02 162.616 1044.71 162.32 1045.29 161.728C1045.86 161.12 1046.15 160.304 1046.15 159.28ZM1058.94 166.192C1057.63 166.192 1056.44 165.912 1055.39 165.352C1054.35 164.792 1053.52 163.992 1052.91 162.952C1052.32 161.912 1052.03 160.696 1052.03 159.304C1052.03 157.928 1052.33 156.72 1052.94 155.68C1053.55 154.624 1054.38 153.816 1055.43 153.256C1056.49 152.696 1057.67 152.416 1058.99 152.416C1060.3 152.416 1061.48 152.696 1062.54 153.256C1063.59 153.816 1064.43 154.624 1065.03 155.68C1065.64 156.72 1065.95 157.928 1065.95 159.304C1065.95 160.68 1065.63 161.896 1065.01 162.952C1064.4 163.992 1063.56 164.792 1062.49 165.352C1061.43 165.912 1060.25 166.192 1058.94 166.192ZM1058.94 162.64C1059.72 162.64 1060.39 162.352 1060.93 161.776C1061.49 161.2 1061.77 160.376 1061.77 159.304C1061.77 158.232 1061.5 157.408 1060.95 156.832C1060.43 156.256 1059.77 155.968 1058.99 155.968C1058.19 155.968 1057.52 156.256 1056.99 156.832C1056.47 157.392 1056.2 158.216 1056.2 159.304C1056.2 160.376 1056.46 161.2 1056.97 161.776C1057.5 162.352 1058.15 162.64 1058.94 162.64ZM1072.59 154.84C1073.07 154.104 1073.67 153.528 1074.39 153.112C1075.11 152.68 1075.91 152.464 1076.79 152.464V156.808H1075.66C1074.63 156.808 1073.87 157.032 1073.35 157.48C1072.84 157.912 1072.59 158.68 1072.59 159.784V166H1068.48V152.608H1072.59V154.84ZM1078.29 159.28C1078.29 157.904 1078.55 156.696 1079.06 155.656C1079.59 154.616 1080.3 153.816 1081.2 153.256C1082.09 152.696 1083.09 152.416 1084.2 152.416C1085.14 152.416 1085.96 152.608 1086.67 152.992C1087.39 153.376 1087.94 153.88 1088.32 154.504V152.608H1092.43V166H1088.32V164.104C1087.92 164.728 1087.36 165.232 1086.64 165.616C1085.94 166 1085.12 166.192 1084.17 166.192C1083.08 166.192 1082.09 165.912 1081.2 165.352C1080.3 164.776 1079.59 163.968 1079.06 162.928C1078.55 161.872 1078.29 160.656 1078.29 159.28ZM1088.32 159.304C1088.32 158.28 1088.04 157.472 1087.46 156.88C1086.9 156.288 1086.21 155.992 1085.4 155.992C1084.58 155.992 1083.88 156.288 1083.31 156.88C1082.75 157.456 1082.47 158.256 1082.47 159.28C1082.47 160.304 1082.75 161.12 1083.31 161.728C1083.88 162.32 1084.58 162.616 1085.4 162.616C1086.21 162.616 1086.9 162.32 1087.46 161.728C1088.04 161.136 1088.32 160.328 1088.32 159.304ZM1103.22 162.52V166H1101.13C1099.65 166 1098.49 165.64 1097.65 164.92C1096.82 164.184 1096.41 162.992 1096.41 161.344V156.016H1094.77V152.608H1096.41V149.344H1100.51V152.608H1103.2V156.016H1100.51V161.392C1100.51 161.792 1100.61 162.08 1100.8 162.256C1100.99 162.432 1101.31 162.52 1101.76 162.52H1103.22ZM1118.49 159.088C1118.49 159.472 1118.47 159.872 1118.42 160.288H1109.13C1109.2 161.12 1109.46 161.76 1109.92 162.208C1110.4 162.64 1110.99 162.856 1111.68 162.856C1112.7 162.856 1113.41 162.424 1113.81 161.56H1118.18C1117.96 162.44 1117.55 163.232 1116.96 163.936C1116.38 164.64 1115.65 165.192 1114.77 165.592C1113.89 165.992 1112.91 166.192 1111.82 166.192C1110.51 166.192 1109.34 165.912 1108.32 165.352C1107.29 164.792 1106.49 163.992 1105.92 162.952C1105.34 161.912 1105.05 160.696 1105.05 159.304C1105.05 157.912 1105.33 156.696 1105.89 155.656C1106.47 154.616 1107.27 153.816 1108.29 153.256C1109.32 152.696 1110.49 152.416 1111.82 152.416C1113.12 152.416 1114.27 152.688 1115.28 153.232C1116.28 153.776 1117.07 154.552 1117.63 155.56C1118.2 156.568 1118.49 157.744 1118.49 159.088ZM1114.29 158.008C1114.29 157.304 1114.05 156.744 1113.57 156.328C1113.09 155.912 1112.49 155.704 1111.77 155.704C1111.08 155.704 1110.5 155.904 1110.02 156.304C1109.56 156.704 1109.27 157.272 1109.16 158.008H1114.29Z" fill="#424242"/>
<defs>
<clipPath id="clip0_4752_24148">
<rect width="24" height="24" fill="white" transform="translate(150)"/>
</clipPath>
</defs>
</svg>
