<svg width="351" height="168" viewBox="0 0 351 168" fill="none" xmlns="http://www.w3.org/2000/svg">
<path d="M175.501 0C164.499 0 155.547 8.83657 155.547 19.6972C155.547 28.4683 161.365 35.9034 169.409 38.4474C162.425 39.7358 156.188 43.1928 151.422 48.1063C148.178 44.8839 144.046 42.5026 139.383 41.4775C145.219 39.3288 149.408 33.7697 149.408 27.273C149.408 18.9226 142.517 12.1215 134.059 12.1215C125.6 12.1215 118.71 18.9226 118.71 27.273C118.71 33.7697 122.898 39.3289 128.734 41.4775C117.73 43.8861 109.5 53.5884 109.5 65.1993V81.2025C109.509 81.8504 109.933 82.4211 110.556 82.623C117.565 85.0253 125.55 86.3632 134.059 86.3632C136.674 86.3632 139.232 86.2322 141.733 85.9849V93.2286C141.734 93.8638 142.136 94.4314 142.741 94.6491C152.484 98.0733 163.646 100 175.5 100C187.353 100 198.47 98.0733 208.212 94.6491C208.835 94.4472 209.259 93.8765 209.267 93.2286V85.9849C211.768 86.2322 214.326 86.3632 216.941 86.3632C225.45 86.3632 233.435 85.0252 240.444 82.623C241.067 82.4211 241.491 81.8504 241.5 81.2025V65.1993C241.5 53.5884 233.27 43.8863 222.266 41.4775C228.102 39.3288 232.29 33.7697 232.29 27.273C232.29 18.9226 225.4 12.1215 216.941 12.1215C208.483 12.1215 201.592 18.9226 201.592 27.273C201.592 33.7632 205.743 39.3246 211.57 41.4775C206.921 42.5048 202.764 44.8584 199.53 48.0586C194.77 43.1707 188.552 39.7315 181.591 38.4474C189.635 35.9035 195.453 28.4683 195.453 19.6972C195.453 8.83657 186.501 0 175.499 0H175.501ZM175.501 3.03003C184.844 3.03003 192.385 10.4748 192.385 19.6972C192.385 28.9196 184.844 36.3644 175.501 36.3644C166.158 36.3644 158.617 28.9196 158.617 19.6972C158.617 10.4748 166.158 3.03003 175.501 3.03003ZM134.059 15.1515C140.859 15.1515 146.338 20.5606 146.338 27.273C146.338 33.9853 140.859 39.3944 134.059 39.3944C127.259 39.3944 121.779 33.9853 121.779 27.273C121.779 20.5606 127.259 15.1515 134.059 15.1515ZM216.943 15.1515C223.743 15.1515 229.223 20.5606 229.223 27.273C229.223 33.9853 223.743 39.3944 216.943 39.3944C210.143 39.3944 204.664 33.9853 204.664 27.273C204.664 20.5606 210.143 15.1515 216.943 15.1515ZM175.501 40.9088C192.513 40.9088 206.199 54.79 206.199 72.1127V92.0456C197.032 95.1432 186.633 96.9706 175.501 96.9706C164.39 96.9706 153.958 95.1803 144.803 92.0932V72.1127C144.803 54.7913 158.489 40.9088 175.501 40.9088ZM134.059 43.9399C140.099 43.9399 145.513 46.395 149.408 50.3319C144.597 56.2494 141.733 63.8411 141.733 72.1122V82.9071C139.234 83.1671 136.665 83.333 134.059 83.333C126.276 83.333 118.994 82.0933 112.57 80.0186V65.1991C112.57 53.3958 122.129 43.9399 134.059 43.9399ZM216.943 43.9399C228.873 43.9399 238.432 53.3957 238.432 65.199V80.0185C231.999 82.1017 224.743 83.3329 216.943 83.3329C214.337 83.3329 211.768 83.167 209.269 82.907V72.1121C209.269 63.841 206.405 56.2493 201.594 50.3318C205.49 46.4098 210.915 43.9399 216.943 43.9399Z" fill="black"/>
<path d="M12.548 149.152V160.624C12.548 162.4 12.044 163.768 11.036 164.728C10.044 165.688 8.7 166.168 7.004 166.168C5.228 166.168 3.804 165.664 2.732 164.656C1.66 163.648 1.124 162.216 1.124 160.36H5.204C5.204 161.064 5.348 161.6 5.636 161.968C5.924 162.32 6.34 162.496 6.884 162.496C7.38 162.496 7.764 162.336 8.036 162.016C8.308 161.696 8.444 161.232 8.444 160.624V149.152H12.548ZM22.319 166.192C21.007 166.192 19.823 165.912 18.767 165.352C17.727 164.792 16.903 163.992 16.295 162.952C15.703 161.912 15.407 160.696 15.407 159.304C15.407 157.928 15.711 156.72 16.319 155.68C16.927 154.624 17.759 153.816 18.815 153.256C19.871 152.696 21.055 152.416 22.367 152.416C23.679 152.416 24.863 152.696 25.919 153.256C26.975 153.816 27.807 154.624 28.415 155.68C29.023 156.72 29.327 157.928 29.327 159.304C29.327 160.68 29.015 161.896 28.391 162.952C27.783 163.992 26.943 164.792 25.871 165.352C24.815 165.912 23.631 166.192 22.319 166.192ZM22.319 162.64C23.103 162.64 23.767 162.352 24.311 161.776C24.871 161.2 25.151 160.376 25.151 159.304C25.151 158.232 24.879 157.408 24.335 156.832C23.807 156.256 23.151 155.968 22.367 155.968C21.567 155.968 20.903 156.256 20.375 156.832C19.847 157.392 19.583 158.216 19.583 159.304C19.583 160.376 19.839 161.2 20.351 161.776C20.879 162.352 21.535 162.64 22.319 162.64ZM33.9282 151.216C33.2082 151.216 32.6162 151.008 32.1522 150.592C31.7042 150.16 31.4802 149.632 31.4802 149.008C31.4802 148.368 31.7042 147.84 32.1522 147.424C32.6162 146.992 33.2082 146.776 33.9282 146.776C34.6322 146.776 35.2082 146.992 35.6562 147.424C36.1202 147.84 36.3522 148.368 36.3522 149.008C36.3522 149.632 36.1202 150.16 35.6562 150.592C35.2082 151.008 34.6322 151.216 33.9282 151.216ZM35.9682 152.608V166H31.8642V152.608H35.9682ZM47.4624 152.464C49.0304 152.464 50.2784 152.976 51.2064 154C52.1504 155.008 52.6224 156.4 52.6224 158.176V166H48.5424V158.728C48.5424 157.832 48.3104 157.136 47.8464 156.64C47.3824 156.144 46.7584 155.896 45.9744 155.896C45.1904 155.896 44.5664 156.144 44.1024 156.64C43.6384 157.136 43.4064 157.832 43.4064 158.728V166H39.3024V152.608H43.4064V154.384C43.8224 153.792 44.3824 153.328 45.0864 152.992C45.7904 152.64 46.5824 152.464 47.4624 152.464ZM69.8722 166L66.3682 159.64H65.3842V166H61.2802V149.152H68.1682C69.4962 149.152 70.6242 149.384 71.5522 149.848C72.4962 150.312 73.2002 150.952 73.6642 151.768C74.1282 152.568 74.3602 153.464 74.3602 154.456C74.3602 155.576 74.0402 156.576 73.4002 157.456C72.7762 158.336 71.8482 158.96 70.6162 159.328L74.5042 166H69.8722ZM65.3842 156.736H67.9282C68.6802 156.736 69.2402 156.552 69.6082 156.184C69.9922 155.816 70.1842 155.296 70.1842 154.624C70.1842 153.984 69.9922 153.48 69.6082 153.112C69.2402 152.744 68.6802 152.56 67.9282 152.56H65.3842V156.736ZM89.9204 159.088C89.9204 159.472 89.8964 159.872 89.8484 160.288H80.5604C80.6244 161.12 80.8884 161.76 81.3524 162.208C81.8324 162.64 82.4164 162.856 83.1044 162.856C84.1284 162.856 84.8404 162.424 85.2404 161.56H89.6084C89.3844 162.44 88.9764 163.232 88.3844 163.936C87.8084 164.64 87.0804 165.192 86.2004 165.592C85.3204 165.992 84.3364 166.192 83.2484 166.192C81.9364 166.192 80.7684 165.912 79.7444 165.352C78.7204 164.792 77.9204 163.992 77.3444 162.952C76.7684 161.912 76.4804 160.696 76.4804 159.304C76.4804 157.912 76.7604 156.696 77.3204 155.656C77.8964 154.616 78.6964 153.816 79.7204 153.256C80.7444 152.696 81.9204 152.416 83.2484 152.416C84.5444 152.416 85.6964 152.688 86.7044 153.232C87.7124 153.776 88.4964 154.552 89.0564 155.56C89.6324 156.568 89.9204 157.744 89.9204 159.088ZM85.7204 158.008C85.7204 157.304 85.4804 156.744 85.0004 156.328C84.5204 155.912 83.9204 155.704 83.2004 155.704C82.5124 155.704 81.9284 155.904 81.4484 156.304C80.9844 156.704 80.6964 157.272 80.5844 158.008H85.7204ZM96.5495 148.24V166H92.4455V148.24H96.5495ZM112.508 159.088C112.508 159.472 112.484 159.872 112.436 160.288H103.148C103.212 161.12 103.476 161.76 103.94 162.208C104.42 162.64 105.004 162.856 105.692 162.856C106.716 162.856 107.428 162.424 107.828 161.56H112.196C111.972 162.44 111.564 163.232 110.972 163.936C110.396 164.64 109.668 165.192 108.788 165.592C107.908 165.992 106.924 166.192 105.836 166.192C104.524 166.192 103.356 165.912 102.332 165.352C101.308 164.792 100.508 163.992 99.9316 162.952C99.3556 161.912 99.0676 160.696 99.0676 159.304C99.0676 157.912 99.3476 156.696 99.9076 155.656C100.484 154.616 101.284 153.816 102.308 153.256C103.332 152.696 104.508 152.416 105.836 152.416C107.132 152.416 108.284 152.688 109.292 153.232C110.3 153.776 111.084 154.552 111.644 155.56C112.22 156.568 112.508 157.744 112.508 159.088ZM108.308 158.008C108.308 157.304 108.068 156.744 107.588 156.328C107.108 155.912 106.508 155.704 105.788 155.704C105.1 155.704 104.516 155.904 104.036 156.304C103.572 156.704 103.284 157.272 103.172 158.008H108.308ZM121.057 162.16L123.961 152.608H128.329L123.577 166H118.513L113.761 152.608H118.153L121.057 162.16ZM129.6 159.28C129.6 157.904 129.856 156.696 130.368 155.656C130.896 154.616 131.608 153.816 132.504 153.256C133.4 152.696 134.4 152.416 135.504 152.416C136.448 152.416 137.272 152.608 137.976 152.992C138.696 153.376 139.248 153.88 139.632 154.504V152.608H143.736V166H139.632V164.104C139.232 164.728 138.672 165.232 137.952 165.616C137.248 166 136.424 166.192 135.48 166.192C134.392 166.192 133.4 165.912 132.504 165.352C131.608 164.776 130.896 163.968 130.368 162.928C129.856 161.872 129.6 160.656 129.6 159.28ZM139.632 159.304C139.632 158.28 139.344 157.472 138.768 156.88C138.208 156.288 137.52 155.992 136.704 155.992C135.888 155.992 135.192 156.288 134.616 156.88C134.056 157.456 133.776 158.256 133.776 159.28C133.776 160.304 134.056 161.12 134.616 161.728C135.192 162.32 135.888 162.616 136.704 162.616C137.52 162.616 138.208 162.32 138.768 161.728C139.344 161.136 139.632 160.328 139.632 159.304ZM155.225 152.464C156.793 152.464 158.041 152.976 158.969 154C159.913 155.008 160.385 156.4 160.385 158.176V166H156.305V158.728C156.305 157.832 156.073 157.136 155.609 156.64C155.145 156.144 154.521 155.896 153.737 155.896C152.953 155.896 152.329 156.144 151.865 156.64C151.401 157.136 151.169 157.832 151.169 158.728V166H147.065V152.608H151.169V154.384C151.585 153.792 152.145 153.328 152.849 152.992C153.553 152.64 154.345 152.464 155.225 152.464ZM171.061 162.52V166H168.973C167.485 166 166.325 165.64 165.493 164.92C164.661 164.184 164.245 162.992 164.245 161.344V156.016H162.613V152.608H164.245V149.344H168.349V152.608H171.037V156.016H168.349V161.392C168.349 161.792 168.445 162.08 168.637 162.256C168.829 162.432 169.149 162.52 169.597 162.52H171.061ZM178.457 157.552C178.457 155.888 178.817 154.408 179.537 153.112C180.257 151.8 181.257 150.784 182.537 150.064C183.833 149.328 185.297 148.96 186.929 148.96C188.929 148.96 190.641 149.488 192.065 150.544C193.489 151.6 194.441 153.04 194.921 154.864H190.409C190.073 154.16 189.593 153.624 188.969 153.256C188.361 152.888 187.665 152.704 186.881 152.704C185.617 152.704 184.593 153.144 183.809 154.024C183.025 154.904 182.633 156.08 182.633 157.552C182.633 159.024 183.025 160.2 183.809 161.08C184.593 161.96 185.617 162.4 186.881 162.4C187.665 162.4 188.361 162.216 188.969 161.848C189.593 161.48 190.073 160.944 190.409 160.24H194.921C194.441 162.064 193.489 163.504 192.065 164.56C190.641 165.6 188.929 166.12 186.929 166.12C185.297 166.12 183.833 165.76 182.537 165.04C181.257 164.304 180.257 163.288 179.537 161.992C178.817 160.696 178.457 159.216 178.457 157.552ZM203.89 166.192C202.578 166.192 201.394 165.912 200.338 165.352C199.298 164.792 198.474 163.992 197.866 162.952C197.274 161.912 196.978 160.696 196.978 159.304C196.978 157.928 197.282 156.72 197.89 155.68C198.498 154.624 199.33 153.816 200.386 153.256C201.442 152.696 202.626 152.416 203.938 152.416C205.25 152.416 206.434 152.696 207.49 153.256C208.546 153.816 209.378 154.624 209.986 155.68C210.594 156.72 210.898 157.928 210.898 159.304C210.898 160.68 210.586 161.896 209.962 162.952C209.354 163.992 208.514 164.792 207.442 165.352C206.386 165.912 205.202 166.192 203.89 166.192ZM203.89 162.64C204.674 162.64 205.338 162.352 205.882 161.776C206.442 161.2 206.722 160.376 206.722 159.304C206.722 158.232 206.45 157.408 205.906 156.832C205.378 156.256 204.722 155.968 203.938 155.968C203.138 155.968 202.474 156.256 201.946 156.832C201.418 157.392 201.154 158.216 201.154 159.304C201.154 160.376 201.41 161.2 201.922 161.776C202.45 162.352 203.106 162.64 203.89 162.64ZM230.523 152.464C232.187 152.464 233.507 152.968 234.483 153.976C235.475 154.984 235.971 156.384 235.971 158.176V166H231.891V158.728C231.891 157.864 231.659 157.2 231.195 156.736C230.747 156.256 230.123 156.016 229.323 156.016C228.523 156.016 227.891 156.256 227.427 156.736C226.979 157.2 226.755 157.864 226.755 158.728V166H222.675V158.728C222.675 157.864 222.443 157.2 221.979 156.736C221.531 156.256 220.907 156.016 220.107 156.016C219.307 156.016 218.675 156.256 218.211 156.736C217.763 157.2 217.539 157.864 217.539 158.728V166H213.435V152.608H217.539V154.288C217.955 153.728 218.499 153.288 219.171 152.968C219.843 152.632 220.603 152.464 221.451 152.464C222.459 152.464 223.355 152.68 224.139 153.112C224.939 153.544 225.563 154.16 226.011 154.96C226.475 154.224 227.107 153.624 227.907 153.16C228.707 152.696 229.579 152.464 230.523 152.464ZM256.29 152.464C257.954 152.464 259.274 152.968 260.25 153.976C261.242 154.984 261.738 156.384 261.738 158.176V166H257.658V158.728C257.658 157.864 257.426 157.2 256.962 156.736C256.514 156.256 255.89 156.016 255.09 156.016C254.29 156.016 253.658 156.256 253.194 156.736C252.746 157.2 252.522 157.864 252.522 158.728V166H248.442V158.728C248.442 157.864 248.21 157.2 247.746 156.736C247.298 156.256 246.674 156.016 245.874 156.016C245.074 156.016 244.442 156.256 243.978 156.736C243.53 157.2 243.306 157.864 243.306 158.728V166H239.202V152.608H243.306V154.288C243.722 153.728 244.266 153.288 244.938 152.968C245.61 152.632 246.37 152.464 247.218 152.464C248.226 152.464 249.122 152.68 249.906 153.112C250.706 153.544 251.33 154.16 251.778 154.96C252.242 154.224 252.874 153.624 253.674 153.16C254.474 152.696 255.346 152.464 256.29 152.464ZM278.192 152.608V166H274.088V164.176C273.672 164.768 273.104 165.248 272.384 165.616C271.68 165.968 270.896 166.144 270.032 166.144C269.008 166.144 268.104 165.92 267.32 165.472C266.536 165.008 265.928 164.344 265.496 163.48C265.064 162.616 264.848 161.6 264.848 160.432V152.608H268.928V159.88C268.928 160.776 269.16 161.472 269.624 161.968C270.088 162.464 270.712 162.712 271.496 162.712C272.296 162.712 272.928 162.464 273.392 161.968C273.856 161.472 274.088 160.776 274.088 159.88V152.608H278.192ZM289.66 152.464C291.228 152.464 292.476 152.976 293.404 154C294.348 155.008 294.82 156.4 294.82 158.176V166H290.74V158.728C290.74 157.832 290.508 157.136 290.044 156.64C289.58 156.144 288.956 155.896 288.172 155.896C287.388 155.896 286.764 156.144 286.3 156.64C285.836 157.136 285.604 157.832 285.604 158.728V166H281.5V152.608H285.604V154.384C286.02 153.792 286.58 153.328 287.284 152.992C287.988 152.64 288.78 152.464 289.66 152.464ZM300.096 151.216C299.376 151.216 298.784 151.008 298.32 150.592C297.872 150.16 297.648 149.632 297.648 149.008C297.648 148.368 297.872 147.84 298.32 147.424C298.784 146.992 299.376 146.776 300.096 146.776C300.8 146.776 301.376 146.992 301.824 147.424C302.288 147.84 302.52 148.368 302.52 149.008C302.52 149.632 302.288 150.16 301.824 150.592C301.376 151.008 300.8 151.216 300.096 151.216ZM302.136 152.608V166H298.032V152.608H302.136ZM312.934 162.52V166H310.846C309.358 166 308.198 165.64 307.366 164.92C306.534 164.184 306.118 162.992 306.118 161.344V156.016H304.486V152.608H306.118V149.344H310.222V152.608H312.91V156.016H310.222V161.392C310.222 161.792 310.318 162.08 310.51 162.256C310.702 162.432 311.022 162.52 311.47 162.52H312.934ZM317.644 151.216C316.924 151.216 316.332 151.008 315.868 150.592C315.42 150.16 315.196 149.632 315.196 149.008C315.196 148.368 315.42 147.84 315.868 147.424C316.332 146.992 316.924 146.776 317.644 146.776C318.348 146.776 318.924 146.992 319.372 147.424C319.836 147.84 320.068 148.368 320.068 149.008C320.068 149.632 319.836 150.16 319.372 150.592C318.924 151.008 318.348 151.216 317.644 151.216ZM319.684 152.608V166H315.58V152.608H319.684ZM335.642 159.088C335.642 159.472 335.618 159.872 335.57 160.288H326.282C326.346 161.12 326.61 161.76 327.074 162.208C327.554 162.64 328.138 162.856 328.826 162.856C329.85 162.856 330.562 162.424 330.962 161.56H335.33C335.106 162.44 334.698 163.232 334.106 163.936C333.53 164.64 332.802 165.192 331.922 165.592C331.042 165.992 330.058 166.192 328.97 166.192C327.658 166.192 326.49 165.912 325.466 165.352C324.442 164.792 323.642 163.992 323.066 162.952C322.49 161.912 322.202 160.696 322.202 159.304C322.202 157.912 322.482 156.696 323.042 155.656C323.618 154.616 324.418 153.816 325.442 153.256C326.466 152.696 327.642 152.416 328.97 152.416C330.266 152.416 331.418 152.688 332.426 153.232C333.434 153.776 334.218 154.552 334.778 155.56C335.354 156.568 335.642 157.744 335.642 159.088ZM331.442 158.008C331.442 157.304 331.202 156.744 330.722 156.328C330.242 155.912 329.642 155.704 328.922 155.704C328.234 155.704 327.65 155.904 327.17 156.304C326.706 156.704 326.418 157.272 326.306 158.008H331.442ZM343.615 166.192C342.447 166.192 341.407 165.992 340.495 165.592C339.583 165.192 338.863 164.648 338.335 163.96C337.807 163.256 337.511 162.472 337.447 161.608H341.503C341.551 162.072 341.767 162.448 342.151 162.736C342.535 163.024 343.007 163.168 343.567 163.168C344.079 163.168 344.471 163.072 344.743 162.88C345.031 162.672 345.175 162.408 345.175 162.088C345.175 161.704 344.975 161.424 344.575 161.248C344.175 161.056 343.527 160.848 342.631 160.624C341.671 160.4 340.871 160.168 340.231 159.928C339.591 159.672 339.039 159.28 338.575 158.752C338.111 158.208 337.879 157.48 337.879 156.568C337.879 155.8 338.087 155.104 338.503 154.48C338.935 153.84 339.559 153.336 340.375 152.968C341.207 152.6 342.191 152.416 343.327 152.416C345.007 152.416 346.327 152.832 347.287 153.664C348.263 154.496 348.823 155.6 348.967 156.976H345.175C345.111 156.512 344.903 156.144 344.551 155.872C344.215 155.6 343.767 155.464 343.207 155.464C342.727 155.464 342.359 155.56 342.103 155.752C341.847 155.928 341.719 156.176 341.719 156.496C341.719 156.88 341.919 157.168 342.319 157.36C342.735 157.552 343.375 157.744 344.239 157.936C345.231 158.192 346.039 158.448 346.663 158.704C347.287 158.944 347.831 159.344 348.295 159.904C348.775 160.448 349.023 161.184 349.039 162.112C349.039 162.896 348.815 163.6 348.367 164.224C347.935 164.832 347.303 165.312 346.471 165.664C345.655 166.016 344.703 166.192 343.615 166.192Z" fill="#424242"/>
</svg>
