<svg width="122" height="24" viewBox="0 0 122 24" fill="none" xmlns="http://www.w3.org/2000/svg">
<path d="M21 15.9999V7.9999C20.9996 7.64918 20.9071 7.30471 20.7315 7.00106C20.556 6.69742 20.3037 6.44526 20 6.2699L13 2.2699C12.696 2.09437 12.3511 2.00195 12 2.00195C11.6489 2.00195 11.304 2.09437 11 2.2699L4 6.2699C3.69626 6.44526 3.44398 6.69742 3.26846 7.00106C3.09294 7.30471 3.00036 7.64918 3 7.9999V15.9999C3.00036 16.3506 3.09294 16.6951 3.26846 16.9987C3.44398 17.3024 3.69626 17.5545 4 17.7299L11 21.7299C11.304 21.9054 11.6489 21.9979 12 21.9979C12.3511 21.9979 12.696 21.9054 13 21.7299L20 17.7299C20.3037 17.5545 20.556 17.3024 20.7315 16.9987C20.9071 16.6951 20.9996 16.3506 21 15.9999Z" stroke="white" stroke-width="2" stroke-linecap="round" stroke-linejoin="round"/>
<path d="M39.28 16H41.904V7.536H44.88V5.472H36.288V7.536H39.28V16ZM45.5199 16H47.9519V12.592C47.9519 10.832 48.6719 9.984 49.7119 9.984C50.4799 9.984 50.9439 10.448 50.9439 11.6C50.9439 11.84 50.9279 12.24 50.8959 12.624H53.1039C53.1359 12.208 53.1839 11.504 53.1839 11.056C53.1839 9.008 52.2399 7.968 50.6239 7.968C49.0719 7.968 48.2239 8.848 47.8879 10.352H47.8559L47.9519 8.096H45.5199V16ZM57.711 16.128C59.215 16.128 60.287 15.456 60.639 13.936H60.671C60.655 14.8 60.607 15.456 60.559 16H62.991V8.096H60.559V11.52C60.559 13.248 59.775 14.112 58.463 14.112C57.423 14.112 56.815 13.6 56.815 12.496V8.096H54.383V12.784C54.383 15.104 55.663 16.128 57.711 16.128ZM68.2766 16.128C70.9806 16.128 72.4046 15.152 72.4046 13.488C72.4046 12.8 72.0366 12.208 71.5246 11.92C70.9326 11.584 70.2446 11.488 69.2686 11.392C68.4206 11.312 67.7166 11.248 67.3166 11.152C66.8686 11.04 66.7406 10.784 66.7406 10.448C66.7406 9.904 67.2206 9.536 68.3086 9.536C69.5086 9.536 69.8926 9.968 69.9086 10.8H72.0526C72.0526 8.96 70.8686 7.968 68.2766 7.968C66.0846 7.968 64.3246 8.912 64.3246 10.624C64.3246 11.28 64.6286 11.856 65.0766 12.176C65.5566 12.512 66.4366 12.688 67.5726 12.784C68.3566 12.848 68.9966 12.912 69.4126 13.008C69.8286 13.104 69.9726 13.328 69.9726 13.616C69.9726 14.192 69.5246 14.56 68.2606 14.56C66.8686 14.56 66.5006 14.08 66.5006 13.344H64.3246C64.3246 14.944 65.4926 16.128 68.2766 16.128ZM77.7402 16.128C78.3962 16.128 79.0682 16 79.2762 15.952V14.112C79.0042 14.176 78.5082 14.224 78.1722 14.224C77.2122 14.224 76.8282 13.968 76.8282 13.152V9.984H79.3562V8.096H76.8282V6.304H74.8282L74.7162 7.408C74.6682 7.888 74.5402 8.096 74.1722 8.096H73.2282V9.984H74.3962V13.28C74.3962 15.04 75.2762 16.128 77.7402 16.128ZM88.1968 11.824C88.1968 9.232 86.6448 7.968 84.4368 7.968C81.7648 7.968 80.1328 9.52 80.1328 12.128C80.1328 14.64 81.7648 16.128 84.3888 16.128C86.6448 16.128 88.1488 15.072 88.1968 13.264H86.0528C85.9888 14.032 85.3808 14.368 84.4368 14.368C83.3488 14.368 82.6928 13.808 82.5808 12.512H88.1968V11.824ZM86.0528 11.216H82.6448C82.8368 10.176 83.4128 9.728 84.4368 9.728C85.4448 9.728 86.0528 10.192 86.0528 11.088V11.216ZM93.0691 16.128C94.5091 16.128 95.4051 15.424 95.7091 14.304H95.7411C95.6931 15.152 95.6611 15.84 95.6451 16H98.0771V4.912H95.6451V9.264H95.6291C95.2771 8.448 94.4451 7.968 93.1651 7.968C90.8611 7.968 89.3571 9.568 89.3571 11.984C89.3571 14.464 90.7811 16.128 93.0691 16.128ZM93.6291 14.272C92.5091 14.272 91.7731 13.344 91.7731 12C91.7731 10.688 92.5251 9.824 93.6611 9.824C94.8451 9.824 95.6451 10.592 95.6451 11.728V12.112C95.6451 13.408 94.8451 14.272 93.6291 14.272ZM108.649 16.128C110.905 16.128 112.249 14.56 112.249 11.888C112.249 9.424 110.921 7.968 108.665 7.968C107.257 7.968 106.249 8.592 105.945 9.632H105.913C105.929 9.248 105.961 8.592 105.961 8.224V4.912H103.529V16H105.961C105.929 15.616 105.897 14.976 105.881 14.512H105.897C106.185 15.52 107.209 16.128 108.649 16.128ZM108.025 14.272C106.729 14.272 105.961 13.568 105.961 12.368V12C105.961 10.64 106.729 9.824 108.009 9.824C109.145 9.824 109.817 10.624 109.817 11.968C109.817 13.424 109.145 14.272 108.025 14.272ZM115.45 19.36C117.082 19.36 118.058 18.464 118.858 16.192L121.722 8.096H119.386L117.546 13.536H117.514L115.482 8.096H112.698L115.978 16H116.506C116.106 17.088 115.738 17.472 114.938 17.472C114.538 17.472 114.17 17.408 113.93 17.344V19.152C114.138 19.232 114.65 19.36 115.45 19.36Z" fill="white"/>
</svg>
