<svg width="476" height="381" viewBox="0 0 476 381" fill="none" xmlns="http://www.w3.org/2000/svg">
<path opacity="0.5" fill-rule="evenodd" clip-rule="evenodd" d="M230.933 107C230.933 100.373 225.561 95 218.933 95H130C123.373 95 118 100.373 118 107V223.8C118 230.427 123.373 235.8 130 235.8H191.067C197.694 235.8 203.067 241.173 203.067 247.8V252.4C203.067 259.027 208.439 264.4 215.067 264.4H304C310.627 264.4 316 259.027 316 252.4V135.6C316 128.973 310.627 123.6 304 123.6H242.933C236.306 123.6 230.933 118.227 230.933 111.6V107Z" fill="#F5F5F5"/>
<path fill-rule="evenodd" clip-rule="evenodd" d="M463.398 295.933C470.026 295.933 475.398 290.561 475.398 283.933L475.398 195C475.398 188.373 470.026 183 463.398 183L346.598 183C339.971 183 334.598 188.373 334.598 195L334.598 256.067C334.598 262.694 329.226 268.067 322.598 268.067L317.998 268.067C311.371 268.067 305.998 273.439 305.998 280.067L305.998 369C305.998 375.627 311.371 381 317.998 381L434.798 381C441.426 381 446.798 375.627 446.798 369L446.798 307.933C446.798 301.306 452.171 295.933 458.798 295.933L463.398 295.933Z" fill="#F5F5F5"/>
<path fill-rule="evenodd" clip-rule="evenodd" d="M77 29C77 26.7909 75.2091 25 73 25H31C28.7909 25 27 26.7909 27 29V83.3377C27 85.5468 28.7909 87.3377 31 87.3377H60.6623C62.8715 87.3377 64.6623 89.1285 64.6623 91.3377V96C64.6623 98.2091 66.4532 100 68.6623 100H110.662C112.871 100 114.662 98.2091 114.662 96V41.6623C114.662 39.4532 112.871 37.6623 110.662 37.6623H81C78.7909 37.6623 77 35.8715 77 33.6623V29Z" fill="#F5F5F5"/>
<path fill-rule="evenodd" clip-rule="evenodd" d="M109.634 254.625C109.634 250.207 106.052 246.625 101.634 246.625H45.2383C40.82 246.625 37.2383 250.207 37.2383 254.625V328.885C37.2383 333.303 40.82 336.885 45.2383 336.885H83.7727C88.191 336.885 91.7727 340.466 91.7727 344.885V347.221C91.7727 351.64 95.3544 355.221 99.7727 355.221H156.169C160.587 355.221 164.169 351.64 164.169 347.221V272.962C164.169 268.543 160.587 264.962 156.169 264.962H117.634C113.216 264.962 109.634 261.38 109.634 256.962V254.625Z" fill="#F5F5F5"/>
<path fill-rule="evenodd" clip-rule="evenodd" d="M388.49 4.83984C388.49 2.6307 386.699 0.839844 384.49 0.839844H337.34C335.131 0.839844 333.34 2.6307 333.34 4.83984V65.5983C333.34 67.8075 335.131 69.5983 337.34 69.5983H370.885C373.094 69.5983 374.885 71.3892 374.885 73.5983V79.5663C374.885 81.7755 376.676 83.5663 378.885 83.5663H426.035C428.244 83.5663 430.035 81.7755 430.035 79.5663V18.8079C430.035 16.5987 428.244 14.8079 426.035 14.8079H392.49C390.281 14.8079 388.49 13.017 388.49 10.8079V4.83984Z" fill="#F5F5F5"/>
<path d="M108.701 120.484C108.549 119.387 108.252 118.317 107.817 117.301C106.84 114.936 105.218 112.84 104.625 110.352C103.975 107.541 104.708 104.421 103.429 101.865C102.431 99.8488 100.387 98.6075 99.0301 96.8304C97.3818 94.7085 96.8514 91.9978 96.7266 89.234C96.9211 88.5656 97.0396 87.8765 97.0802 87.1811C97.1842 84.6136 95.8219 82.2264 94.2256 80.2425C92.6293 78.2585 90.7522 76.4867 89.4731 74.2693C87.3932 70.6515 87.1852 66.2804 86.3845 62.1586C85.7449 58.7424 84.8922 53.7501 82.2611 51.6441C80.4901 49.7933 78.3448 48.3578 75.9748 47.4379C72.6782 45.9473 68.5548 46.568 65.1543 47.8093C63.5684 48.4193 62.0761 49.3317 60.4746 49.9312C57.3808 50.9921 53.8866 50.8383 51.1984 53.114C48.5101 55.3898 47.9642 59.2834 47.9122 62.8376C47.9122 63.8986 47.9122 64.9595 47.8758 66.0205C47.5326 66.5987 47.1686 67.1605 46.7734 67.7068C46.5551 68.041 46.2951 68.3439 46.0559 68.6622C45.8167 68.9805 45.5723 69.2935 45.3123 69.5906L44.5324 70.4977C44.2641 70.8069 44.0124 71.1311 43.7784 71.4684C42.8851 72.8424 42.2419 74.3701 41.8806 75.9775C41.7194 76.6193 41.5894 77.2612 41.475 77.9084C39.3951 80.5608 37.5544 83.2768 37.3153 86.5445C37.1281 89.2446 38.1264 91.8917 38.428 94.5812C38.376 94.6873 38.3292 94.7987 38.2772 94.9048L38.4332 94.6555C38.4997 95.2289 38.5226 95.8071 38.5008 96.3848C38.2044 104.342 28.871 109.217 27.2435 117.01C27.0038 118.152 26.9404 119.326 27.0563 120.489L50.4548 120.527C50.9467 118.883 51.2332 117.183 51.3076 115.465C53.5642 117.662 56.4032 119.179 59.341 120.5L74.3577 120.58C75.5484 119.46 76.6559 118.209 77.8466 117.227C79.4164 115.994 81.1588 115.009 83.0151 114.304C83.3484 116.492 83.9438 118.63 84.7882 120.67L108.701 120.484ZM44.1788 71.7071C44.4014 71.3862 44.6411 71.078 44.8964 70.7841L45.6815 69.8664C45.9519 69.564 46.2015 69.2457 46.4407 68.9222C46.6798 68.5986 46.9606 68.2957 47.1686 67.9562C47.3766 67.6167 47.6262 67.3042 47.8446 66.97C47.8446 67.0284 47.8446 67.0814 47.8446 67.1398C47.2393 68.6405 46.5447 70.1019 45.7647 71.5162C44.7076 73.4556 43.4899 75.2995 42.1249 77.0278C42.1925 76.7042 42.2601 76.3806 42.3433 76.057C42.6943 74.5065 43.3162 73.0328 44.1788 71.7071Z" fill="#FBE7A1"/>
<path d="M97.4994 120.744C97.4271 120.008 97.2971 119.279 97.1094 118.564L94.9411 111.668L95.3779 108.634C95.7549 106.73 95.718 104.766 95.2687 102.878C94.8507 101.018 93.9563 99.3043 92.6777 97.9113C91.3991 96.5182 89.781 95.4955 87.9892 94.9475L79.6229 92.6506L56.864 92.3906L42.8925 95.2923C37.9216 96.4647 34.5262 101.446 34.781 106.772L43.7868 116.962C43.7868 116.962 44.0728 118.707 44.4784 120.792L97.4994 120.744Z" fill="#3F4249"/>
<path d="M73.6245 71.1133L75.616 89.6799C75.6825 90.2459 75.9123 90.7785 76.2763 91.2108C76.6398 91.6437 77.1213 91.9561 77.6594 92.1094L79.6093 92.6718L79.7289 95.5151C79.7518 95.9305 79.6681 96.3448 79.4856 96.7171C79.303 97.0895 79.0285 97.4062 78.689 97.637C76.0111 99.4035 71.4822 102.65 71.4822 102.65C71.4822 102.65 62.5856 99.1276 59.0654 97.2869C58.7857 97.1415 58.5382 96.9394 58.338 96.6933C58.1378 96.4471 57.9891 96.1618 57.9007 95.8546L56.918 92.5126C56.918 92.5126 59.6322 90.7833 59.679 89.526L60.1002 73.9301L73.6245 71.1133Z" fill="#FC9D9D"/>
<path d="M78.748 78.9594C78.981 79.2496 79.28 79.4771 79.6195 79.6214C79.9591 79.7657 80.3282 79.822 80.6938 79.7864C81.0598 79.7503 81.4113 79.6225 81.7176 79.4146C82.0238 79.2071 82.275 78.9255 82.4487 78.595C82.6228 78.2645 82.7143 77.8953 82.7149 77.5202C82.7159 77.1452 82.6259 76.776 82.4533 76.4444C82.2807 76.1134 82.0306 75.8307 81.7254 75.6217C81.4202 75.4127 81.0692 75.2838 80.7031 75.2461" stroke="white" stroke-width="0.814889" stroke-miterlimit="10"/>
<path d="M79.7807 75.4093L79.2607 62.8901C79.2389 62.3438 79.1115 61.8069 78.8858 61.3109C78.6602 60.8149 78.3415 60.3693 77.9468 59.9991C77.5521 59.6293 77.0899 59.3423 76.5866 59.1546C76.0832 58.9673 75.5482 58.8824 75.0126 58.9063L62.6582 59.4686C62.2443 59.4818 61.8372 59.5795 61.4607 59.755C61.0843 59.9312 60.7458 60.1815 60.465 60.4919C60.1842 60.8027 59.9669 61.1672 59.826 61.564C59.6845 61.9613 59.6221 62.383 59.6424 62.8053L60.1936 76.2793C60.2461 77.5392 60.5409 78.7763 61.0624 79.92C61.5835 81.0637 62.3202 82.0917 63.2312 82.9442C64.1422 83.7972 65.2086 84.4587 66.3703 84.8905C67.5319 85.3223 68.7652 85.5165 70.0001 85.4618L70.7229 85.4194C73.2208 85.3032 75.5726 84.1871 77.2682 82.3129C78.9643 80.4393 79.867 77.9583 79.7807 75.4093Z" fill="#FC9D9D"/>
<path d="M69.7125 71.7279C70.2756 71.7279 70.7316 71.2627 70.7316 70.6882C70.7316 70.1142 70.2756 69.6484 69.7125 69.6484C69.1499 69.6484 68.6934 70.1142 68.6934 70.6882C68.6934 71.2627 69.1499 71.7279 69.7125 71.7279Z" fill="black"/>
<path d="M70.1409 70.685C70.259 70.685 70.3541 70.5874 70.3541 70.4675C70.3541 70.3471 70.259 70.25 70.1409 70.25C70.0234 70.25 69.9277 70.3471 69.9277 70.4675C69.9277 70.5874 70.0234 70.685 70.1409 70.685Z" fill="white"/>
<path d="M77.6539 71.7279C78.2165 71.7279 78.673 71.2627 78.673 70.6882C78.673 70.1142 78.2165 69.6484 77.6539 69.6484C77.0908 69.6484 76.6348 70.1142 76.6348 70.6882C76.6348 71.2627 77.0908 71.7279 77.6539 71.7279Z" fill="black"/>
<path d="M78.0804 70.6459C78.1979 70.6459 78.2935 70.5483 78.2935 70.4284C78.2935 70.308 78.1979 70.2109 78.0804 70.2109C77.9623 70.2109 77.8672 70.308 77.8672 70.4284C77.8672 70.5483 77.9623 70.6459 78.0804 70.6459Z" fill="white"/>
<path d="M62.7571 56.143C63.1887 58.7105 63.1783 61.5485 61.6548 63.628C60.8837 64.4799 60.2212 65.4284 59.6841 66.4501C58.821 68.6144 59.9649 71.0652 59.8193 73.4099C59.7553 74.2555 59.5255 75.0788 59.1433 75.8315C58.7606 76.5848 58.2339 77.2511 57.5938 77.7916C57.1456 78.2224 56.5825 78.5078 55.9757 78.6128C55.3684 78.7173 54.7449 78.6367 54.1828 78.3805C53.4247 77.745 52.9339 76.8378 52.8101 75.8448C51.935 72.2445 51.4125 68.5646 51.2502 64.8587C50.9887 63.5033 51.1821 62.0976 51.7988 60.8679C52.4155 59.6383 53.4201 58.6558 54.6508 58.0792C55.9029 57.2522 57.1997 56.4979 58.535 55.8194C59.3217 55.342 60.2191 55.0873 61.1348 55.082C61.5908 55.0974 62.026 55.2804 62.3604 55.5971C62.6947 55.9138 62.9058 56.3435 62.9547 56.8061" fill="#FBE7A1"/>
<path opacity="0.15" d="M59.9102 79.959L61.4389 76.8398H59.9934L59.9102 79.959Z" fill="black"/>
<g opacity="0.15">
<path opacity="0.15" d="M74.9824 75.3545C74.9491 75.0293 74.7937 74.7301 74.5483 74.5201C74.3023 74.3105 73.9862 74.206 73.6669 74.2299C73.5946 74.2538 73.5317 74.2999 73.486 74.3615C73.4407 74.423 73.4147 74.4978 73.4121 74.5747C73.435 74.649 73.4797 74.7137 73.54 74.7604C73.6009 74.8065 73.6742 74.8331 73.7501 74.8347C73.917 74.8347 74.0782 74.8967 74.2035 75.0086C74.3288 75.1211 74.4094 75.276 74.4312 75.4447C74.4474 75.6107 74.398 75.7762 74.295 75.9057C74.1916 76.0346 74.0423 76.1173 73.8801 76.1343L72.5178 76.2669C72.4751 76.2685 72.4336 76.2791 72.3956 76.2982C72.3571 76.3173 72.3233 76.3444 72.2963 76.3778C72.2692 76.4112 72.2495 76.4499 72.238 76.4919C72.2266 76.5332 72.2235 76.5773 72.2297 76.6202C72.2365 76.6627 72.2516 76.704 72.2744 76.7401C72.2973 76.7767 72.3275 76.808 72.3628 76.8319C72.3982 76.8558 72.4382 76.8717 72.4803 76.8786C72.5219 76.8855 72.5651 76.8828 72.6062 76.8717L73.9633 76.7444C74.126 76.7385 74.2862 76.6956 74.4307 76.6181C74.5753 76.5412 74.7011 76.4319 74.7989 76.2988C74.8966 76.1651 74.9637 76.0112 74.9954 75.8479C75.0271 75.6845 75.023 75.5158 74.9824 75.3545Z" fill="black"/>
</g>
<path d="M61.3986 76.798L60.3586 71.8593C59.2147 67.3503 53.7811 68.6499 55.0966 73.1165C56.4121 77.5831 60.8682 76.798 60.8682 76.798H61.3986Z" fill="#FC9D9D"/>
<path d="M61.5239 78.2768C61.3871 78.6593 61.1526 78.9972 60.8443 79.256C60.5365 79.5149 60.1663 79.6847 59.7721 79.7483C59.378 79.8114 58.9745 79.7664 58.6032 79.6168C58.232 79.4677 57.9065 79.2194 57.661 78.899C57.4156 78.5781 57.2586 78.1961 57.2066 77.7925C57.1546 77.3888 57.2092 76.9782 57.3652 76.6037C57.5212 76.2291 57.7723 75.9034 58.0932 75.6615C58.414 75.4191 58.7925 75.269 59.1892 75.2266" stroke="white" stroke-width="0.814889" stroke-miterlimit="10"/>
<path opacity="0.15" d="M56.1697 70.9915C56.2232 71.0503 56.2955 71.0875 56.374 71.0965C56.4526 71.1055 56.5311 71.0848 56.5961 71.0392C56.7027 70.9103 56.8394 70.81 56.9938 70.7485C57.1477 70.687 57.3147 70.6657 57.479 70.687C57.6438 70.7082 57.8003 70.7708 57.9345 70.8694C58.0691 70.9681 58.1773 71.0991 58.2496 71.2514C58.5324 71.6795 58.7108 72.1707 58.7695 72.6837L58.8527 73.2141C58.8995 73.6491 59.4923 73.4741 59.4507 73.1293L59.4091 72.6518C59.3555 72.0248 59.1345 71.4248 58.7695 70.9172C58.6458 70.7103 58.4789 70.5336 58.2818 70.3989C58.0842 70.2642 57.8601 70.175 57.6256 70.1374C57.3848 70.1199 57.1436 70.1528 56.9164 70.235C56.6886 70.3172 56.4806 70.4466 56.3049 70.6148C56.2472 70.6562 56.2035 70.714 56.1791 70.7814C56.1551 70.8487 56.1515 70.922 56.1697 70.9915Z" fill="black"/>
<path d="M78.277 76.2815C77.2381 76.2852 76.233 75.9086 75.4431 75.2206C75.0059 74.8413 74.6476 74.376 74.3897 73.8535C74.1313 73.3305 73.9789 72.7597 73.9404 72.1756C73.8864 71.4738 73.995 70.7688 74.2576 70.1174C73.8021 70.0331 73.3342 70.0474 72.8849 70.1598C73.0123 70.5009 73.096 70.8574 73.1345 71.2208C73.1423 71.2521 73.1423 71.285 73.1345 71.3163C73.2161 72.4865 72.8412 73.6424 72.0914 74.5315C71.3411 75.4211 70.2773 75.9717 69.1307 76.064C68.8396 76.09 68.5463 76.081 68.2572 76.0375C67.4279 75.9346 66.6458 75.5892 66.0047 75.0434C65.3636 74.4975 64.8909 73.7745 64.6434 72.9608C64.542 72.6441 64.477 72.3168 64.451 71.9847C64.4053 71.2839 64.5228 70.5826 64.7942 69.937C65.0651 69.2915 65.4821 68.7207 66.0109 68.2714C66.6931 67.6597 67.5495 67.2879 68.4548 67.2104C68.7512 67.1892 69.0491 67.1982 69.3439 67.2369C69.4947 67.2528 69.644 67.2794 69.7911 67.3165C70.8529 67.5732 71.781 68.2284 72.3909 69.1519C73.1537 68.9021 73.9722 68.8909 74.7412 69.1201C75.2123 68.4888 75.8383 67.995 76.5559 67.6878C76.9755 67.5085 77.4185 67.3924 77.8714 67.343C78.4324 67.3112 78.9945 67.3849 79.5301 67.5605C80.4946 67.8682 81.3255 68.5074 81.8803 69.3694C82.3015 69.998 82.5495 70.7312 82.5979 71.4913C82.6613 72.435 82.4305 73.375 81.9386 74.1761C81.4462 74.9776 80.7177 75.5999 79.8577 75.9526C79.4552 76.1245 79.0288 76.2301 78.5941 76.2656L78.277 76.2815ZM73.6805 69.5763C74.0148 69.5753 74.3476 69.623 74.6684 69.7195L74.9544 69.8044L74.814 70.0697C74.5093 70.6946 74.3725 71.3911 74.4167 72.0876C74.4615 72.7836 74.6856 73.4562 75.0667 74.0355C75.4478 74.6153 75.9725 75.0816 76.5876 75.3877C77.2022 75.6932 77.8854 75.828 78.5682 75.7776C78.954 75.7479 79.333 75.6566 79.6913 75.507C80.4561 75.1914 81.104 74.6371 81.5418 73.9236C81.9797 73.2101 82.1855 72.3735 82.1299 71.5338C82.0862 70.8648 81.8668 70.2198 81.4956 69.6665C80.999 68.9111 80.2653 68.3499 79.4157 68.0751C78.9405 67.9202 78.4423 67.8539 77.9442 67.8788C77.5438 67.9255 77.1518 68.0289 76.7795 68.1865C76.0905 68.4841 75.4977 68.9726 75.0688 69.5975L74.97 69.7514L74.7932 69.6877C74.021 69.4177 73.1808 69.431 72.4169 69.7249L72.2246 69.8044L72.1206 69.6241C71.8533 69.1785 71.5018 68.7912 71.0869 68.4851C70.6719 68.179 70.2014 67.9605 69.7027 67.8417C69.5722 67.8104 69.4401 67.7876 69.3075 67.7727C69.0455 67.7366 68.7808 67.7276 68.5172 67.7462C67.7159 67.812 66.9563 68.1371 66.3489 68.6745C65.8784 69.0777 65.5081 69.5885 65.269 70.1662C65.0293 70.7434 64.9273 71.3699 64.971 71.9953C64.9929 72.2897 65.0506 72.5799 65.1426 72.86C65.3626 73.5846 65.7832 74.2291 66.3547 74.7145C66.9256 75.2004 67.6229 75.507 68.3612 75.5972C68.6165 75.6296 68.8749 75.6296 69.1307 75.5972C69.6372 75.5569 70.1312 75.4153 70.5846 75.1803C71.0375 74.9453 71.4404 74.6211 71.7706 74.227C72.1013 73.8328 72.3519 73.3766 72.5095 72.8833C72.6665 72.39 72.7268 71.8701 72.6873 71.3534V71.2897C72.6384 70.8754 72.5334 70.4702 72.3753 70.0856L72.2817 69.8469L72.5209 69.762C72.8958 69.6405 73.2868 69.5779 73.6805 69.5763Z" fill="white"/>
<path opacity="0.15" d="M75.7869 87.1558C75.0923 87.3282 74.3799 87.4157 73.6655 87.4157C71.869 87.3961 70.1261 86.7876 68.6946 85.681C67.1675 85.5246 65.6913 85.0381 64.3633 84.2541C64.3014 84.2127 64.2583 84.1485 64.2427 84.0753C64.2271 84.0016 64.2406 83.9252 64.2801 83.8615C64.2988 83.8302 64.3238 83.8026 64.3534 83.7814C64.3831 83.7602 64.4169 83.7448 64.4522 83.7369C64.4876 83.7289 64.524 83.7284 64.5598 83.7353C64.5952 83.7422 64.629 83.756 64.6597 83.7766C65.6835 84.3787 66.8056 84.7883 67.9719 84.9861C68.0602 84.9861 68.1435 85.0339 68.2266 85.0339C68.4814 85.0763 68.6946 85.0763 68.9078 85.1187H68.991C69.1303 85.1538 69.2738 85.1681 69.4174 85.1612H70.5665C72.2626 85.1214 73.9239 84.6604 75.4074 83.8191L75.7869 87.1558Z" fill="black"/>
<path d="M69.7803 78.4023C69.6087 78.4023 69.5671 78.535 69.6087 78.6623C69.8474 79.1684 70.2212 79.5954 70.6871 79.8946C71.153 80.1932 71.6922 80.3518 72.2423 80.3518C72.793 80.3518 73.3322 80.1932 73.7981 79.8946C74.2639 79.5954 74.6378 79.1684 74.8759 78.6623C74.8858 78.6336 74.8889 78.6029 74.8848 78.5732C74.8811 78.5429 74.8702 78.5143 74.8536 78.4888C74.8369 78.4639 74.8151 78.4427 74.7891 78.4278C74.7631 78.413 74.734 78.4039 74.7044 78.4023H69.7803Z" fill="white"/>
<path d="M83.3021 71.7259C83.4612 70.2374 83.0879 68.7404 82.2508 67.5102C81.4141 66.28 80.1698 65.4 78.7472 65.0318C75.9134 64.3899 72.7312 65.8912 70.1626 64.5013C68.0827 63.4404 67.1936 60.788 65.1345 59.7801C63.4238 58.9261 61.4063 59.3711 59.4981 59.4242C57.5898 59.4772 55.3747 58.7717 54.8184 56.8885C58.9417 54.0929 63.4862 51.7376 68.3999 51.3291C73.3136 50.9207 78.6328 52.7566 81.3991 56.9103C84.1653 61.0639 83.9989 66.2461 83.7701 71.1424" fill="#FBE7A1"/>
<path d="M52.3366 120.835L51.2967 93.7812L41.4745 95.6644C39.2309 96.4347 37.3065 97.9518 36.0097 99.9724C34.7129 101.992 34.1196 104.399 34.325 106.804L35.4637 120.448L52.3366 120.835Z" fill="#3F4249"/>
<path d="M87.2094 99.4052C86.8314 99.4052 86.4622 99.2912 86.1487 99.0769C85.8346 98.8626 85.5897 98.5586 85.4457 98.2021C85.3011 97.8462 85.2637 97.4547 85.338 97.077C85.4119 96.6988 85.5944 96.3518 85.8617 96.0802C86.1289 95.8081 86.4695 95.623 86.8402 95.5487C87.2105 95.4739 87.5947 95.5132 87.9431 95.6612C88.2915 95.8097 88.5894 96.0601 88.7984 96.381C89.0075 96.7014 89.1187 97.0786 89.1177 97.4637C89.1177 97.7194 89.0683 97.9719 88.9721 98.208C88.8759 98.444 88.7355 98.6583 88.5582 98.8387C88.3809 99.0191 88.1703 99.1618 87.9389 99.2594C87.7075 99.3564 87.4595 99.4063 87.2094 99.4052ZM87.2094 95.7609C86.8792 95.7609 86.5563 95.8606 86.2818 96.0479C86.0072 96.2351 85.7936 96.5009 85.6672 96.8123C85.5409 97.1231 85.5076 97.4658 85.572 97.7958C85.6365 98.1263 85.7956 98.4297 86.0291 98.6679C86.2626 98.9061 86.56 99.0684 86.8834 99.1342C87.2073 99.1994 87.5427 99.166 87.8479 99.0371C88.1532 98.9082 88.4136 98.6896 88.5972 98.4101C88.7802 98.13 88.8785 97.8006 88.8785 97.4637C88.8785 97.0123 88.7022 96.5789 88.3892 96.2595C88.0762 95.9402 87.6519 95.7609 87.2094 95.7609Z" fill="white"/>
<path d="M87.2122 98.6952C87.1804 98.6952 87.1498 98.6825 87.1274 98.6597C87.1051 98.6369 87.0926 98.6056 87.0926 98.5732C87.0926 98.5408 87.1051 98.5101 87.1274 98.4873C87.1498 98.4639 87.1804 98.4512 87.2122 98.4512C87.4066 98.4512 87.5964 98.3923 87.7581 98.2825C87.9199 98.1722 88.0457 98.0157 88.12 97.8326C88.1944 97.6491 88.2136 97.4475 88.1762 97.2534C88.1382 97.0587 88.0446 96.8799 87.9068 96.7399C87.7696 96.5998 87.5943 96.5043 87.404 96.4656C87.2132 96.4269 87.0156 96.4465 86.8362 96.5224C86.6563 96.5982 86.5029 96.7266 86.3948 96.8916C86.2872 97.0566 86.2294 97.2502 86.2294 97.4486C86.2294 97.4809 86.217 97.5123 86.1946 97.5351C86.1717 97.5579 86.1415 97.5706 86.1098 97.5706C86.0781 97.5706 86.0475 97.5579 86.0251 97.5351C86.0027 97.5123 85.9902 97.4809 85.9902 97.4486C85.9892 97.2009 86.0604 96.9579 86.1946 96.751C86.3293 96.5447 86.5211 96.3834 86.7453 96.2879C86.9699 96.1924 87.2168 96.167 87.4555 96.2152C87.6942 96.2635 87.9131 96.3829 88.0852 96.5585C88.2568 96.7335 88.3738 96.9574 88.4211 97.2003C88.4684 97.4438 88.4435 97.6958 88.3499 97.925C88.2563 98.1541 88.0982 98.3493 87.8959 98.4867C87.6931 98.6236 87.4555 98.6963 87.2122 98.6952Z" fill="white"/>
<path d="M74.5602 107.319C74.1822 107.32 73.8125 107.207 73.4979 106.994C73.1833 106.78 72.9379 106.476 72.7928 106.12C72.6477 105.764 72.6093 105.372 72.6831 104.994C72.7564 104.616 72.9384 104.269 73.2057 103.996C73.4724 103.723 73.813 103.538 74.1837 103.463C74.5545 103.388 74.9387 103.427 75.2876 103.575C75.6365 103.723 75.9344 103.973 76.1435 104.294C76.353 104.616 76.4643 104.992 76.4632 105.378C76.4632 105.633 76.4139 105.886 76.3182 106.121C76.2225 106.357 76.0827 106.57 75.9059 106.751C75.7291 106.931 75.519 107.074 75.2881 107.172C75.0573 107.269 74.8098 107.319 74.5602 107.319ZM74.5602 103.675C74.2295 103.674 73.9066 103.773 73.6315 103.959C73.3559 104.146 73.1412 104.411 73.0143 104.723C72.8869 105.034 72.8531 105.376 72.9171 105.707C72.981 106.038 73.1396 106.341 73.3726 106.58C73.606 106.819 73.9035 106.982 74.2274 107.048C74.5513 107.114 74.8872 107.08 75.1925 106.952C75.4977 106.823 75.7587 106.605 75.9422 106.325C76.1258 106.044 76.2241 105.715 76.2241 105.378C76.2241 104.928 76.0488 104.495 75.7369 104.176C75.4249 103.857 75.0016 103.677 74.5602 103.675Z" fill="white"/>
<path d="M74.5592 106.621C74.5436 106.621 74.528 106.618 74.5134 106.612C74.4988 106.606 74.4858 106.597 74.4744 106.585C74.4635 106.574 74.4546 106.561 74.4489 106.546C74.4427 106.531 74.4396 106.515 74.4396 106.499C74.4396 106.483 74.4427 106.467 74.4489 106.452C74.4546 106.438 74.4635 106.424 74.4744 106.413C74.4858 106.402 74.4988 106.393 74.5134 106.386C74.528 106.38 74.5436 106.377 74.5592 106.377C74.7536 106.377 74.9434 106.318 75.1051 106.208C75.2668 106.098 75.3927 105.941 75.467 105.758C75.5414 105.575 75.5611 105.373 75.5232 105.179C75.4852 104.984 75.3916 104.806 75.2538 104.665C75.1166 104.525 74.9413 104.43 74.751 104.391C74.5602 104.352 74.3626 104.372 74.1832 104.448C74.0033 104.524 73.8499 104.653 73.7423 104.818C73.6341 104.983 73.5764 105.176 73.5764 105.375C73.5707 105.403 73.5551 105.429 73.5333 105.447C73.5109 105.466 73.4828 105.476 73.4542 105.476C73.4256 105.476 73.3976 105.466 73.3757 105.447C73.3534 105.429 73.3378 105.403 73.332 105.375C73.331 105.127 73.4022 104.884 73.5364 104.677C73.6705 104.471 73.8619 104.309 74.086 104.214C74.3101 104.118 74.5571 104.093 74.7952 104.141C75.0339 104.188 75.2528 104.307 75.4249 104.482C75.597 104.657 75.7145 104.88 75.7624 105.123C75.8102 105.366 75.7863 105.618 75.6932 105.847C75.6006 106.076 75.4436 106.272 75.2414 106.409C75.0396 106.547 74.802 106.621 74.5592 106.621Z" fill="white"/>
<path d="M55.9006 102.479C55.5231 102.479 55.1539 102.365 54.8404 102.152C54.5263 101.937 54.2819 101.633 54.1374 101.278C53.9928 100.922 53.9554 100.531 54.0287 100.153C54.1026 99.7751 54.284 99.4282 54.5513 99.1561C54.818 98.8839 55.1581 98.6983 55.5283 98.6235C55.8985 98.5481 56.2823 98.5869 56.6306 98.7338C56.9795 98.8813 57.2775 99.1311 57.487 99.451C57.6971 99.7714 57.8089 100.148 57.8089 100.533C57.8089 101.049 57.6077 101.544 57.2499 101.909C56.8922 102.274 56.4065 102.479 55.9006 102.479ZM55.9006 98.8351C55.5699 98.8341 55.2465 98.9333 54.9714 99.12C54.6958 99.3067 54.4811 99.5725 54.3542 99.8839C54.2274 100.195 54.1936 100.538 54.258 100.869C54.3225 101.199 54.4811 101.503 54.7151 101.742C54.9491 101.98 55.2465 102.143 55.5709 102.208C55.8954 102.274 56.2313 102.24 56.5365 102.11C56.8417 101.981 57.1022 101.762 57.2853 101.481C57.4683 101.2 57.5655 100.87 57.5645 100.533C57.5645 100.082 57.3893 99.6505 57.0773 99.3322C56.7648 99.0139 56.3415 98.8351 55.9006 98.8351Z" fill="white"/>
<path d="M55.8958 101.786C55.8677 101.78 55.8427 101.764 55.8245 101.742C55.8063 101.719 55.7964 101.69 55.7964 101.661C55.7964 101.632 55.8063 101.603 55.8245 101.581C55.8427 101.558 55.8677 101.542 55.8958 101.537C56.0902 101.537 56.28 101.478 56.4417 101.368C56.6034 101.258 56.7293 101.101 56.8036 100.918C56.878 100.735 56.8977 100.533 56.8598 100.338C56.8218 100.144 56.7282 99.9654 56.5909 99.8253C56.4531 99.6848 56.2784 99.5893 56.0876 99.5506C55.8968 99.5124 55.6992 99.532 55.5198 99.6079C55.3404 99.6837 55.1865 99.8121 55.0789 99.9771C54.9707 100.142 54.913 100.336 54.913 100.534C54.913 100.566 54.9005 100.598 54.8782 100.621C54.8558 100.643 54.8251 100.656 54.7934 100.656C54.7617 100.656 54.7315 100.643 54.7092 100.621C54.6863 100.598 54.6738 100.566 54.6738 100.534C54.6749 100.288 54.7477 100.047 54.8823 99.8428C55.0175 99.6386 55.2084 99.4795 55.4319 99.3861C55.655 99.2927 55.901 99.2689 56.1375 99.3177C56.3741 99.3659 56.5915 99.4853 56.7615 99.6598C56.932 99.8344 57.048 100.057 57.0948 100.298C57.1416 100.54 57.1171 100.79 57.0241 101.018C56.9315 101.245 56.775 101.44 56.5743 101.576C56.3736 101.713 56.1375 101.786 55.8958 101.786Z" fill="white"/>
<path d="M40.0901 102.706C39.7126 102.706 39.3434 102.592 39.0298 102.378C38.7158 102.164 38.4714 101.86 38.3269 101.504C38.1823 101.149 38.1449 100.757 38.2182 100.38C38.292 100.002 38.4735 99.655 38.7407 99.3829C39.0075 99.1102 39.3475 98.9251 39.7178 98.8498C40.088 98.775 40.4712 98.8132 40.8201 98.9606C41.169 99.1081 41.4669 99.3574 41.6765 99.6778C41.886 99.9977 41.9983 100.374 41.9983 100.759C41.9983 101.276 41.7971 101.771 41.4394 102.136C41.0811 102.501 40.596 102.706 40.0901 102.706ZM40.0901 99.0566C39.7599 99.0566 39.437 99.1564 39.1624 99.3436C38.8879 99.5304 38.6742 99.7967 38.5478 100.108C38.4215 100.419 38.3882 100.761 38.4527 101.092C38.5171 101.422 38.6763 101.725 38.9097 101.964C39.1432 102.201 39.4406 102.364 39.764 102.429C40.088 102.495 40.4239 102.461 40.7286 102.332C41.0338 102.203 41.2943 101.985 41.4778 101.705C41.6609 101.425 41.7591 101.096 41.7591 100.759C41.7591 100.308 41.5829 99.8746 41.2698 99.5553C40.9568 99.236 40.5325 99.0566 40.0901 99.0566Z" fill="white"/>
<path d="M40.0833 102.008C40.0515 102.008 40.0214 101.995 39.9985 101.972C39.9762 101.949 39.9637 101.918 39.9637 101.886C39.9637 101.854 39.9762 101.822 39.9985 101.8C40.0214 101.777 40.0515 101.764 40.0833 101.764C40.2777 101.764 40.4675 101.705 40.6292 101.595C40.7909 101.484 40.9168 101.328 40.9911 101.145C41.0655 100.961 41.0852 100.76 41.0473 100.566C41.0093 100.371 40.9157 100.192 40.7785 100.052C40.6407 99.9121 40.4654 99.8166 40.2751 99.7779C40.0843 99.7392 39.8867 99.7588 39.7073 99.8347C39.5274 99.9105 39.374 100.039 39.2664 100.204C39.1582 100.369 39.1005 100.563 39.1005 100.761C39.1005 100.794 39.088 100.825 39.0657 100.847C39.0433 100.87 39.0127 100.883 38.9809 100.883C38.9492 100.883 38.919 100.87 38.8962 100.847C38.8738 100.825 38.8613 100.794 38.8613 100.761C38.8603 100.513 38.9315 100.27 39.0662 100.064C39.2004 99.8569 39.3922 99.6957 39.6163 99.6002C39.841 99.5047 40.0879 99.4798 40.3266 99.5275C40.5653 99.5758 40.7842 99.6951 40.9563 99.8707C41.1279 100.046 41.2449 100.27 41.2922 100.513C41.3395 100.756 41.3145 101.009 41.2215 101.237C41.1279 101.466 40.9698 101.662 40.767 101.799C40.5642 101.936 40.3266 102.009 40.0833 102.008Z" fill="white"/>
<path d="M61.3811 119.132C61.0036 119.132 60.6344 119.018 60.3209 118.804C60.0068 118.59 59.7624 118.286 59.6179 117.93C59.4733 117.575 59.4359 117.183 59.5092 116.805C59.583 116.428 59.765 116.081 60.0318 115.809C60.2985 115.536 60.6386 115.351 61.0088 115.276C61.379 115.201 61.7627 115.239 62.1111 115.386C62.46 115.534 62.7579 115.783 62.9675 116.104C63.1776 116.423 63.2893 116.8 63.2893 117.185C63.2878 117.701 63.0866 118.195 62.7288 118.56C62.3711 118.925 61.8865 119.131 61.3811 119.132ZM61.3811 115.488C61.0519 115.489 60.7311 115.589 60.4581 115.776C60.1851 115.964 59.9725 116.229 59.8477 116.539C59.7224 116.849 59.6901 117.191 59.7551 117.519C59.8196 117.848 59.9787 118.15 60.2117 118.387C60.4446 118.624 60.741 118.785 61.0634 118.85C61.3863 118.916 61.7206 118.882 62.0243 118.753C62.3279 118.624 62.5874 118.406 62.7699 118.127C62.9524 117.848 63.0502 117.521 63.0502 117.185C63.0502 116.962 63.007 116.741 62.9228 116.534C62.8391 116.328 62.7158 116.141 62.5609 115.983C62.4059 115.825 62.2219 115.7 62.0196 115.615C61.8168 115.53 61.6 115.487 61.3811 115.488Z" fill="white"/>
<path d="M61.3801 118.431C61.3484 118.431 61.3182 118.418 61.2959 118.395C61.273 118.372 61.2605 118.341 61.2605 118.309C61.2605 118.276 61.273 118.245 61.2959 118.222C61.3182 118.2 61.3484 118.187 61.3801 118.187C61.5746 118.187 61.7644 118.128 61.9261 118.018C62.0878 117.908 62.2136 117.751 62.288 117.568C62.3623 117.385 62.3821 117.183 62.3441 116.988C62.3062 116.794 62.2126 116.616 62.0753 116.476C61.9375 116.335 61.7628 116.239 61.572 116.201C61.3812 116.162 61.1836 116.182 61.0042 116.258C60.8248 116.334 60.6709 116.462 60.5633 116.627C60.4551 116.792 60.3974 116.986 60.3974 117.184C60.3974 117.217 60.3849 117.247 60.3626 117.271C60.3402 117.294 60.3095 117.306 60.2778 117.306C60.2461 117.306 60.2159 117.294 60.1936 117.271C60.1707 117.247 60.1582 117.217 60.1582 117.184C60.1582 116.938 60.23 116.697 60.3641 116.491C60.4983 116.287 60.6891 116.127 60.9127 116.033C61.1357 115.938 61.3817 115.913 61.6188 115.962C61.8559 116.01 62.0732 116.129 62.2443 116.303C62.4154 116.477 62.5313 116.699 62.5786 116.941C62.626 117.183 62.6015 117.434 62.509 117.661C62.4164 117.889 62.2599 118.084 62.0592 118.221C61.858 118.358 61.6219 118.431 61.3801 118.431Z" fill="white"/>
<path d="M84.4288 120.628C84.525 120.396 84.5743 120.148 84.5743 119.896C84.5743 119.38 84.3737 118.884 84.0154 118.519C83.6577 118.155 83.1725 117.949 82.6661 117.949C82.1602 117.949 81.675 118.155 81.3168 118.519C80.959 118.884 80.7578 119.38 80.7578 119.896C80.7599 120.136 80.8057 120.373 80.893 120.596H81.153C81.0511 120.378 80.9975 120.138 80.997 119.896C81.0209 119.462 81.207 119.053 81.5169 118.754C81.8268 118.455 82.2371 118.288 82.6635 118.288C83.0904 118.288 83.5006 118.455 83.8105 118.754C84.1204 119.053 84.3066 119.462 84.33 119.896C84.3295 120.148 84.2723 120.396 84.1636 120.623L84.4288 120.628Z" fill="white"/>
<path d="M83.3393 120.618H83.6565C83.8036 120.405 83.8837 120.152 83.8853 119.891C83.8853 119.56 83.7563 119.243 83.527 119.009C83.2982 118.776 82.9873 118.645 82.6633 118.645C82.3389 118.645 82.0284 118.776 81.7991 119.009C81.5698 119.243 81.4414 119.56 81.4414 119.891C81.4414 119.924 81.4539 119.954 81.4763 119.977C81.4986 120 81.5293 120.013 81.561 120.013C81.5927 120.013 81.6229 120 81.6452 119.977C81.6676 119.954 81.6806 119.924 81.6806 119.891C81.6796 119.725 81.7191 119.561 81.7955 119.414C81.872 119.267 81.9832 119.142 82.1189 119.05C82.2546 118.958 82.4106 118.902 82.5729 118.886C82.7351 118.871 82.8989 118.897 83.0486 118.962C83.1984 119.028 83.3299 119.13 83.4318 119.26C83.5332 119.39 83.6014 119.544 83.6305 119.708C83.6591 119.871 83.6476 120.04 83.5967 120.197C83.5462 120.355 83.4573 120.498 83.3393 120.613V120.618Z" fill="white"/>
<path d="M40.9369 119.804C40.5594 119.805 40.1897 119.692 39.8751 119.479C39.5606 119.265 39.3151 118.961 39.1701 118.606C39.025 118.25 38.9865 117.859 39.0593 117.48C39.1326 117.103 39.3136 116.755 39.5803 116.483C39.8471 116.209 40.1871 116.024 40.5573 115.948C40.9276 115.872 41.3118 115.911 41.6607 116.058C42.0096 116.205 42.3081 116.454 42.5181 116.775C42.7277 117.095 42.84 117.472 42.84 117.857C42.84 118.373 42.6398 118.867 42.2826 119.232C41.9259 119.597 41.4418 119.803 40.9369 119.804ZM40.9369 116.159C40.6078 116.159 40.2859 116.259 40.0124 116.445C39.7389 116.632 39.5257 116.897 39.3994 117.208C39.2735 117.517 39.2408 117.859 39.3048 118.188C39.3692 118.517 39.5278 118.82 39.7602 119.057C39.9932 119.295 40.2896 119.456 40.6125 119.522C40.9348 119.587 41.2697 119.554 41.5734 119.426C41.8775 119.297 42.1375 119.079 42.3205 118.8C42.5031 118.521 42.6008 118.193 42.6008 117.857C42.5993 117.407 42.4235 116.976 42.112 116.658C41.8001 116.34 41.3778 116.161 40.9369 116.159Z" fill="white"/>
<path d="M40.9342 119.106C40.9024 119.106 40.8723 119.093 40.8499 119.07C40.827 119.047 40.8146 119.016 40.8146 118.983C40.8146 118.951 40.827 118.92 40.8499 118.897C40.8723 118.874 40.9024 118.861 40.9342 118.861C41.1286 118.861 41.3184 118.803 41.4801 118.692C41.6418 118.582 41.7677 118.426 41.842 118.242C41.9164 118.059 41.9361 117.858 41.8982 117.663C41.8602 117.469 41.7666 117.29 41.6294 117.15C41.4916 117.01 41.3169 116.914 41.126 116.875C40.9352 116.837 40.7376 116.857 40.5582 116.933C40.3788 117.009 40.2249 117.137 40.1173 117.302C40.0091 117.467 39.9514 117.66 39.9514 117.859C39.9457 117.888 39.9301 117.914 39.9083 117.932C39.8859 117.95 39.8578 117.96 39.8292 117.96C39.8006 117.96 39.7726 117.95 39.7507 117.932C39.7284 117.914 39.7128 117.888 39.707 117.859C39.706 117.611 39.7772 117.369 39.9114 117.162C40.0455 116.955 40.2369 116.794 40.461 116.699C40.6851 116.603 40.9321 116.577 41.1702 116.625C41.4089 116.673 41.6278 116.792 41.7999 116.967C41.972 117.141 42.0895 117.364 42.1374 117.607C42.1852 117.85 42.1613 118.102 42.0682 118.332C41.9756 118.561 41.8186 118.756 41.6164 118.894C41.4146 119.032 41.177 119.106 40.9342 119.106Z" fill="white"/>
<path d="M92.1406 114.863C91.7631 114.863 91.3944 114.749 91.0804 114.534C90.7668 114.32 90.5219 114.016 90.3774 113.661C90.2333 113.305 90.1954 112.914 90.2692 112.536C90.3425 112.158 90.5245 111.811 90.7912 111.539C91.058 111.267 91.398 111.081 91.7683 111.006C92.1385 110.931 92.5222 110.969 92.8706 111.117C93.2195 111.264 93.5174 111.514 93.7275 111.834C93.937 112.154 94.0488 112.531 94.0488 112.916C94.0488 113.432 93.8476 113.927 93.4899 114.292C93.1321 114.657 92.6465 114.863 92.1406 114.863ZM92.1406 111.218C91.8099 111.217 91.4865 111.316 91.2114 111.503C90.9363 111.69 90.7216 111.956 90.5942 112.267C90.4673 112.578 90.434 112.921 90.498 113.252C90.5625 113.583 90.7216 113.887 90.955 114.125C91.189 114.363 91.4869 114.526 91.8109 114.591C92.1353 114.657 92.4712 114.623 92.7765 114.493C93.0817 114.363 93.3422 114.144 93.5252 113.864C93.7082 113.583 93.8055 113.253 93.8045 112.916C93.8045 112.465 93.6292 112.034 93.3172 111.715C93.0053 111.397 92.582 111.218 92.1406 111.218Z" fill="white"/>
<path d="M92.1399 114.165C92.1118 114.159 92.0869 114.143 92.0687 114.12C92.0505 114.098 92.0406 114.07 92.0406 114.04C92.0406 114.011 92.0505 113.983 92.0687 113.96C92.0869 113.937 92.1118 113.922 92.1399 113.916C92.3344 113.916 92.5247 113.857 92.6859 113.746C92.8476 113.637 92.9734 113.48 93.0478 113.297C93.1226 113.114 93.1419 112.912 93.1039 112.717C93.066 112.523 92.9724 112.344 92.8351 112.204C92.6973 112.064 92.5226 111.968 92.3318 111.93C92.1409 111.891 91.9433 111.911 91.764 111.987C91.5846 112.063 91.4312 112.191 91.323 112.356C91.2149 112.521 91.1572 112.715 91.1572 112.913C91.1572 112.945 91.1447 112.977 91.1223 113C91.1 113.022 91.0693 113.035 91.0376 113.035C91.0059 113.035 90.9757 113.022 90.9533 113C90.931 112.977 90.918 112.945 90.918 112.913C90.919 112.667 90.9918 112.426 91.1265 112.222C91.2617 112.018 91.4525 111.859 91.6761 111.765C91.8997 111.672 92.1451 111.648 92.3817 111.696C92.6183 111.745 92.8356 111.864 93.0062 112.039C93.1762 112.213 93.2921 112.436 93.3389 112.677C93.3857 112.919 93.3613 113.169 93.2682 113.397C93.1757 113.624 93.0192 113.819 92.8185 113.955C92.6178 114.092 92.3817 114.165 92.1399 114.165Z" fill="white"/>
<path d="M239.897 194.774L233.987 150.293L196.986 153.394L197.26 195.973L219.851 205.996L239.897 194.774Z" fill="#FC9D9D"/>
<path d="M159.409 252.73C159.409 252.458 159.515 252.196 159.704 252.003C159.893 251.811 160.149 251.702 160.416 251.702C160.683 251.702 160.939 251.811 161.128 252.003C161.317 252.196 161.423 252.458 161.423 252.73L161.317 258.77H213.301L215.563 219.93L215.643 218.462C214.836 217.742 214.137 216.908 213.566 215.983L218.381 206.492L221.915 205.257L226.81 215.983C226.212 216.813 225.554 217.596 224.84 218.327L224.928 219.93L228.091 258.77H276.091L276.356 251.739L279.006 258.77H316.996L306.456 230.441C304.698 225.709 301.783 221.515 297.988 218.258C294.193 215.001 289.645 212.787 284.775 211.827L245.169 204.031L194.024 204.527L151.713 212.062C146.064 213.067 140.833 215.754 136.677 219.785C132.521 223.815 129.625 229.008 128.354 234.713L123 258.77H158.34L159.409 252.73Z" fill="#21252B"/>
<path d="M224.949 219.934L219.851 222.917L215.566 219.934L213.305 258.772H228.094L224.949 219.934Z" fill="#FF3520"/>
<path d="M215.642 218.461L215.562 219.93L215.739 218.551L215.642 218.461Z" fill="#FF3520"/>
<path d="M224.945 219.928L224.821 218.359C223.575 219.718 222.039 220.766 220.333 221.424C218.652 220.741 217.098 219.768 215.739 218.549L215.562 219.928L219.847 222.911L224.945 219.928Z" fill="#FF3520"/>
<path opacity="0.3" d="M224.945 219.928L224.821 218.359C223.575 219.718 222.039 220.766 220.333 221.424C218.652 220.741 217.098 219.768 215.739 218.549L215.562 219.928L219.847 222.911L224.945 219.928Z" fill="black"/>
<path d="M220.333 221.428C222.039 220.771 223.575 219.723 224.821 218.364C225.535 217.635 226.193 216.851 226.791 216.02L221.861 205.312L218.327 206.547L213.557 215.984C214.127 216.909 214.826 217.745 215.633 218.463L215.73 218.553C217.091 219.774 218.648 220.746 220.333 221.428Z" fill="#FF3520"/>
<path d="M160.415 251.738C160.154 251.738 159.903 251.842 159.714 252.027C159.527 252.211 159.417 252.464 159.408 252.73L158.348 258.769H161.316L161.422 252.73C161.412 252.464 161.303 252.211 161.115 252.027C160.927 251.842 160.676 251.738 160.415 251.738Z" fill="#21252B"/>
<path opacity="0.2" d="M160.415 251.738C160.154 251.738 159.903 251.842 159.714 252.027C159.527 252.211 159.417 252.464 159.408 252.73L158.348 258.769H161.316L161.422 252.73C161.412 252.464 161.303 252.211 161.115 252.027C160.927 251.842 160.676 251.738 160.415 251.738Z" fill="black"/>
<path d="M237.084 129.165C237.766 130.896 238.206 132.717 238.391 134.573C239.496 145.461 241.536 185.39 218.071 187.148C197.927 188.689 192.45 160.108 190.966 145.776C190.471 140.936 191.045 133.347 192.618 128.75C193.582 125.939 195.155 123.384 197.221 121.278C200.339 118.101 204.423 116.098 208.803 115.599L213.291 115.086C216.362 114.74 219.47 115 222.444 115.852C225.714 116.786 228.731 118.473 231.263 120.782C233.794 123.092 235.773 125.962 237.048 129.174L237.084 129.165Z" fill="#FC9D9D"/>
<path opacity="0.3" d="M238.392 134.566C238.206 132.71 237.766 130.89 237.084 129.158C235.81 125.947 233.83 123.076 231.299 120.767C228.767 118.458 225.751 116.77 222.48 115.837C219.505 114.985 216.398 114.724 213.327 115.07L208.839 115.584C205.201 115.999 201.752 117.453 198.888 119.78C196.025 122.106 193.864 125.21 192.653 128.735C191.075 133.637 190.512 138.822 191.001 143.958C191.116 144.995 191.24 146.122 191.399 147.293L194.12 149.709L195.887 133.485C196.585 127.112 200.552 129.086 202.213 130.222C203.133 130.864 204.11 131.418 205.128 131.88C209.254 133.683 218.381 136.387 225.042 128.978C225.042 128.978 230.343 123.57 232.11 129.879L237.411 147.906L239.178 147.005C239.081 143.535 238.604 136.576 238.392 134.566Z" fill="#21252B"/>
<path opacity="0.15" d="M238.683 182.933L236.669 168.98C234.195 177.994 229.053 185.475 220.05 187.007H220.139L218.213 187.287C211.056 187.846 205.084 184.484 200.543 177.255C200.458 177.12 200.324 177.024 200.17 176.989C200.016 176.953 199.856 176.981 199.721 177.066C199.588 177.154 199.494 177.293 199.46 177.45C199.425 177.609 199.453 177.775 199.536 177.913C204.315 185.592 210.65 189.153 218.266 188.594C219.86 188.495 221.437 188.192 222.957 187.692C228.606 188.247 234.245 186.54 238.683 182.933Z" fill="black"/>
<path d="M193.306 150.412C192.961 146.851 189.083 145.003 186.503 147.32L186.415 147.41C181.997 151.538 184.869 164.463 194.525 163.346L193.306 150.412Z" fill="#FC9D9D"/>
<path d="M242.358 143.575L242.296 143.485C240.158 141.61 237.517 144.044 237.587 147.613L237.967 159.971C245.256 159.619 245.972 146.937 242.358 143.575Z" fill="#FC9D9D"/>
<path d="M206.905 157.633C207.377 157.633 207.838 157.49 208.23 157.223C208.622 156.955 208.928 156.575 209.108 156.131C209.289 155.685 209.336 155.197 209.244 154.725C209.152 154.252 208.925 153.819 208.592 153.478C208.258 153.138 207.833 152.907 207.37 152.813C206.908 152.718 206.428 152.767 205.991 152.951C205.556 153.135 205.183 153.447 204.922 153.848C204.659 154.248 204.52 154.718 204.52 155.2C204.52 155.845 204.77 156.463 205.217 156.92C205.665 157.376 206.271 157.633 206.905 157.633Z" fill="#21252B"/>
<path d="M205.809 155.473C205.955 155.473 206.095 155.415 206.197 155.31C206.3 155.205 206.357 155.063 206.357 154.914C206.357 154.767 206.3 154.624 206.197 154.52C206.095 154.415 205.955 154.355 205.809 154.355C205.665 154.355 205.525 154.415 205.422 154.52C205.32 154.624 205.262 154.767 205.262 154.914C205.262 155.063 205.32 155.205 205.422 155.31C205.525 155.415 205.665 155.473 205.809 155.473Z" fill="white"/>
<path d="M225.272 156.226C225.744 156.226 226.205 156.084 226.597 155.816C226.99 155.549 227.295 155.169 227.476 154.724C227.656 154.28 227.704 153.79 227.612 153.318C227.52 152.846 227.292 152.412 226.959 152.072C226.625 151.731 226.2 151.5 225.737 151.406C225.275 151.312 224.795 151.36 224.359 151.545C223.923 151.729 223.55 152.041 223.289 152.441C223.026 152.841 222.887 153.312 222.887 153.793C222.887 154.438 223.138 155.057 223.585 155.514C224.033 155.971 224.64 156.226 225.272 156.226Z" fill="#21252B"/>
<path d="M224.153 154.153C224.225 154.153 224.296 154.138 224.363 154.11C224.429 154.083 224.49 154.041 224.54 153.99C224.591 153.937 224.632 153.876 224.659 153.808C224.687 153.74 224.701 153.668 224.701 153.594C224.701 153.446 224.644 153.304 224.54 153.199C224.438 153.095 224.298 153.035 224.153 153.035C224.007 153.035 223.869 153.095 223.765 153.199C223.663 153.304 223.605 153.446 223.605 153.594C223.605 153.668 223.62 153.74 223.647 153.808C223.674 153.876 223.715 153.937 223.765 153.99C223.817 154.041 223.877 154.083 223.944 154.11C224.01 154.138 224.081 154.153 224.153 154.153Z" fill="white"/>
<g opacity="0.15">
<path opacity="0.15" d="M217.286 166.726L219.212 166.537C219.395 166.524 219.566 166.438 219.686 166.296C219.806 166.155 219.866 165.971 219.853 165.784C219.84 165.598 219.755 165.425 219.617 165.302C219.478 165.18 219.298 165.118 219.115 165.131L217.198 165.32C217.005 165.333 216.813 165.307 216.63 165.243C216.447 165.179 216.279 165.08 216.134 164.949C215.989 164.819 215.871 164.661 215.786 164.485C215.701 164.307 215.651 164.115 215.638 163.919C215.626 163.722 215.653 163.526 215.714 163.339C215.777 163.152 215.875 162.981 216.002 162.833C216.131 162.686 216.285 162.565 216.458 162.478C216.632 162.392 216.82 162.34 217.012 162.328C217.108 162.33 217.203 162.312 217.291 162.274C217.379 162.236 217.459 162.18 217.525 162.109C217.59 162.038 217.641 161.954 217.673 161.862C217.706 161.771 217.719 161.673 217.712 161.575C217.705 161.478 217.678 161.383 217.634 161.297C217.589 161.211 217.527 161.134 217.452 161.074C217.378 161.014 217.291 160.969 217.199 160.945C217.106 160.92 217.01 160.915 216.915 160.931C216.544 160.952 216.182 161.05 215.849 161.219C215.517 161.388 215.221 161.624 214.981 161.914C214.742 162.203 214.562 162.54 214.454 162.902C214.346 163.264 214.311 163.646 214.353 164.022C214.351 164.404 214.428 164.78 214.578 165.128C214.729 165.477 214.949 165.789 215.227 166.044C215.503 166.3 215.83 166.492 216.185 166.61C216.54 166.727 216.915 166.767 217.286 166.726Z" fill="black"/>
</g>
<path d="M231.882 147.317L221.51 147.903L220.131 148.002L211.04 148.561H210.908L199.246 149.21C198.791 149.238 198.346 149.357 197.938 149.562C197.529 149.766 197.164 150.052 196.865 150.402C196.566 150.752 196.337 151.159 196.194 151.6C196.051 152.04 195.994 152.507 196.03 152.969L196.215 155.673C196.349 158.197 197.459 160.562 199.302 162.25C200.215 163.086 201.28 163.73 202.437 164.146C203.593 164.561 204.82 164.74 206.044 164.673C207.269 164.606 208.468 164.292 209.575 163.753C210.681 163.212 211.671 162.455 212.49 161.524C213.31 160.592 213.941 159.505 214.348 158.326C214.756 157.146 214.932 155.895 214.866 154.645L214.68 151.941C214.642 151.179 214.352 150.451 213.859 149.877L217.446 149.697C217.027 150.328 216.831 151.084 216.889 151.842L217.074 154.546C217.208 157.07 218.318 159.435 220.161 161.123C221.074 161.959 222.139 162.603 223.296 163.019C224.452 163.434 225.679 163.614 226.903 163.546C228.128 163.479 229.328 163.166 230.434 162.626C231.54 162.085 232.53 161.328 233.349 160.397C234.169 159.466 234.8 158.379 235.207 157.199C235.615 156.019 235.791 154.768 235.725 153.519L235.548 150.815C235.541 150.337 235.44 149.865 235.251 149.428C235.061 148.99 234.787 148.596 234.445 148.27C234.102 147.943 233.699 147.691 233.258 147.527C232.818 147.363 232.35 147.292 231.882 147.317ZM213.328 151.914L213.514 154.618C213.688 155.739 213.63 156.884 213.343 157.98C213.055 159.076 212.547 160.098 211.849 160.982C211.15 161.864 210.278 162.588 209.289 163.105C208.3 163.624 207.215 163.924 206.104 163.987C204.995 164.05 203.883 163.875 202.843 163.473C201.803 163.072 200.858 162.452 200.067 161.654C199.277 160.856 198.66 159.897 198.254 158.841C197.85 157.785 197.667 156.654 197.717 155.52L197.532 152.816C197.519 152.274 197.707 151.746 198.056 151.337C198.406 150.928 198.894 150.669 199.422 150.607L211.084 149.958H211.173C211.443 149.926 211.718 149.951 211.978 150.035C212.238 150.118 212.479 150.257 212.683 150.442C212.886 150.626 213.049 150.853 213.161 151.108C213.272 151.361 213.329 151.637 213.328 151.914ZM234.364 153.411C234.275 155.419 233.459 157.321 232.073 158.749C230.687 160.178 228.832 161.03 226.865 161.143C224.899 161.255 222.96 160.619 221.427 159.357C219.895 158.095 218.876 156.298 218.568 154.312L218.382 151.608C218.362 151.055 218.55 150.515 218.909 150.099C219.266 149.683 219.767 149.423 220.308 149.373L221.686 149.273L232.067 148.715C232.61 148.692 233.141 148.883 233.549 149.249C233.957 149.615 234.211 150.128 234.258 150.679L234.364 153.411Z" fill="#21252B"/>
<path d="M211.412 170.55L223.074 169.703C223.143 169.704 223.211 169.719 223.274 169.749C223.336 169.779 223.391 169.823 223.435 169.877C223.479 169.931 223.51 169.995 223.527 170.063C223.545 170.131 223.547 170.202 223.533 170.271C223.169 171.599 222.414 172.78 221.371 173.657C220.328 174.533 219.047 175.063 217.7 175.175C216.352 175.288 215.004 174.976 213.836 174.283C212.668 173.59 211.736 172.549 211.165 171.298V171.199C211.125 171.143 211.1 171.079 211.091 171.009C211.082 170.941 211.091 170.871 211.115 170.806C211.14 170.742 211.18 170.685 211.232 170.641C211.284 170.595 211.346 170.565 211.412 170.55Z" fill="white"/>
<path opacity="0.2" d="M193.971 204.906L211.075 222.914L219.848 207.015L229.593 222.914L244.603 204.617L219.848 206.014L193.971 204.906Z" fill="black"/>
<g opacity="0.15">
<path opacity="0.15" d="M190.893 157.157C190.722 157.145 190.56 157.073 190.435 156.953C190.309 156.833 190.228 156.673 190.204 156.499L190.036 155.003C190.007 153.802 189.581 152.645 188.826 151.722C188.692 151.588 188.531 151.484 188.354 151.419C188.178 151.354 187.989 151.328 187.801 151.344C187.715 151.359 187.625 151.357 187.539 151.337C187.453 151.318 187.371 151.281 187.299 151.229C187.227 151.177 187.165 151.111 187.118 151.035C187.071 150.959 187.039 150.874 187.024 150.785C186.991 150.605 187.026 150.419 187.12 150.264C187.215 150.109 187.364 149.995 187.536 149.947C188.27 149.857 189.01 150.057 189.604 150.505C190.549 151.254 191.15 152.75 191.326 154.724L191.494 156.22C191.513 156.423 191.463 156.626 191.354 156.796C191.245 156.965 191.082 157.093 190.893 157.157Z" fill="black"/>
</g>
<g opacity="0.15">
<path opacity="0.15" d="M240.065 153.311C240.321 153.311 240.516 152.941 240.516 152.563V151.066C240.368 149.906 240.569 148.727 241.09 147.686C241.417 147.128 241.806 147.128 241.867 147.128C242.124 147.128 242.318 146.848 242.38 146.479C242.391 146.322 242.353 146.165 242.272 146.031C242.191 145.897 242.072 145.792 241.929 145.73C241.64 145.75 241.359 145.843 241.112 146C240.866 146.158 240.661 146.374 240.516 146.632C239.871 147.533 239.632 149.065 239.676 151.139V152.635C239.588 153.031 239.774 153.311 240.065 153.311Z" fill="black"/>
</g>
<path d="M197.045 195.078L193.537 204.524L211.074 219.928L219.847 206.011L197.045 195.078Z" fill="#21252B"/>
<path d="M239.823 194.59L245.177 204.036L229.593 219.936L219.848 206.019L239.823 194.59Z" fill="#21252B"/>
<path d="M351.071 293.506C350.934 293.506 350.803 293.45 350.706 293.352C350.609 293.253 350.555 293.12 350.555 292.98V274.053C350.555 273.913 350.609 273.78 350.706 273.681C350.803 273.583 350.934 273.527 351.071 273.527C351.207 273.527 351.338 273.583 351.434 273.681C351.531 273.78 351.586 273.913 351.586 274.053V292.98C351.586 293.12 351.531 293.253 351.434 293.352C351.338 293.45 351.207 293.506 351.071 293.506Z" fill="#FF3520"/>
<path d="M405.947 348.48L399.391 359.752H336.428C337.739 354.252 338.236 348.574 337.902 342.928C337.64 337.66 336.718 332.444 335.16 327.408C334.985 326.882 334.882 326.598 334.882 326.598L361.999 322.949L397.722 320.152L437.918 321.782L437.794 322.129C431.651 321.036 420.221 323.559 405.947 348.48Z" fill="#FF3520"/>
<path opacity="0.2" d="M405.947 348.48L399.391 359.752H336.428C337.739 354.252 338.236 348.574 337.902 342.928C337.64 337.66 336.718 332.444 335.16 327.408C334.985 326.882 334.882 326.598 334.882 326.598L361.999 322.949L397.722 320.152L437.918 321.782L437.794 322.129C431.651 321.036 420.221 323.559 405.947 348.48Z" fill="black"/>
<path d="M331.121 358.701C330.945 359.059 330.791 359.416 330.626 359.753H313.001L313.125 359.3C316.856 336.567 328.843 329.574 335.161 327.461C336.719 332.498 337.641 337.713 337.902 342.981C335.905 348.333 333.642 353.58 331.121 358.701Z" fill="#956363"/>
<path d="M337.901 342.98C338.235 348.638 337.738 354.305 336.427 359.805H330.625C330.79 359.447 330.944 359.09 331.119 358.753C333.642 353.622 335.906 348.354 337.901 342.98Z" fill="#956363"/>
<path opacity="0.15" d="M337.901 342.98C338.235 348.638 337.738 354.305 336.427 359.805H330.625C330.79 359.447 330.944 359.09 331.119 358.753C333.642 353.622 335.906 348.354 337.901 342.98Z" fill="black"/>
<path d="M399.392 359.749L405.947 348.477C420.222 323.557 431.652 321.033 437.754 322.19C439.513 322.474 441.177 323.199 442.598 324.293C449.215 328.73 449.812 337.594 448.534 345.68C447.769 350.549 446.339 355.281 444.288 359.749H399.392Z" fill="#956363"/>
<path d="M413.18 242.941C413.18 242.941 445.193 244.676 445.131 276.032C445.131 278.24 444.935 280.438 444.986 282.636C445.151 290.827 446.295 307.104 452.5 313.907L448.089 314.959C448.089 314.959 442.09 306.294 442.224 299.186C442.224 299.186 439.277 309.354 442.028 316.41C442.028 316.41 432.423 322.792 409.655 322.182C409.655 322.182 401.636 305.769 410.232 289.176C410.634 288.387 411.098 287.63 411.572 286.884C412.819 284.907 416.385 277.988 414.149 266.39L413.18 242.941Z" fill="black"/>
<path d="M407.916 271.075C401.497 270.433 396.956 263.03 397.771 254.54C398.587 246.05 404.452 239.687 410.871 240.33C417.289 240.971 421.831 248.375 421.015 256.865C420.198 265.355 414.334 271.717 407.916 271.075Z" fill="#FF3520"/>
<path d="M388.2 296.473C393.533 295.688 398.539 293.377 402.64 289.81C406.74 286.243 409.766 281.564 411.369 276.316C417.244 258.546 414.461 249.418 410.493 238.935C407.535 231.049 394.116 218.483 378.192 220.155C362.268 221.827 352.693 229.892 349.838 244.487C344.489 271.784 361.567 308.029 388.2 296.473Z" fill="black"/>
<path d="M395.568 273.824L403.576 320.784L400.309 322.751C394.755 326.095 388.436 327.893 381.985 327.967C375.534 328.041 369.179 326.379 363.555 323.151L366.967 287.672L395.568 273.824Z" fill="#956363"/>
<path opacity="0.3" d="M365.749 298.216C369.295 299.909 368.841 300.603 372.737 300.319L375.396 300.098C375.726 300.088 376.052 300.027 376.365 299.92H376.551C377.035 299.783 377.519 299.741 378.097 299.583C378.282 299.583 378.478 299.446 378.663 299.436C381.311 298.777 383.818 297.621 386.053 296.029C386.117 295.977 386.19 295.937 386.27 295.913C386.351 295.888 386.438 295.881 386.523 295.891C386.609 295.903 386.69 295.931 386.764 295.977C386.832 296.025 386.891 296.086 386.94 296.155C387.041 296.298 387.088 296.474 387.074 296.649C387.049 296.823 386.96 296.981 386.826 297.091C383.955 299.19 380.67 300.625 377.2 301.297C374.154 304.146 370.284 305.907 366.172 306.313C364.543 306.449 367.202 306.449 365.605 306.176L365.749 298.216Z" fill="black"/>
<path d="M356.825 294.076C358.88 296.082 361.304 297.653 363.958 298.698C366.612 299.743 369.442 300.242 372.286 300.164H373.935C376.768 300.056 379.552 299.366 382.118 298.134C384.703 296.889 387.019 295.13 388.931 292.961C390.854 290.765 392.344 288.213 393.322 285.443C394.292 282.644 394.726 279.681 394.6 276.715L393.383 244.971C393.341 243.983 393.117 243.013 392.724 242.11C392.321 241.212 391.755 240.403 391.054 239.723C390.358 239.049 389.539 238.524 388.642 238.178C387.756 237.839 386.814 237.683 385.87 237.715L357.526 238.767C356.293 238.824 355.083 239.134 353.967 239.675C352.852 240.217 351.855 240.98 351.033 241.921C349.352 243.849 348.473 246.367 348.58 248.945L349.776 278.387C350.06 284.347 352.584 289.965 356.825 294.076Z" fill="#956363"/>
<path d="M372.654 265.852C372.629 265.383 372.74 264.918 372.974 264.513C373.207 264.108 373.551 263.783 373.966 263.577C374.379 263.371 374.843 263.295 375.3 263.356C375.755 263.418 376.183 263.616 376.529 263.925C376.876 264.234 377.126 264.64 377.248 265.092C377.368 265.546 377.357 266.025 377.212 266.471C377.068 266.917 376.798 267.309 376.437 267.599C376.076 267.889 375.638 268.064 375.179 268.102C374.869 268.125 374.556 268.085 374.261 267.984C373.965 267.883 373.692 267.723 373.457 267.514C373.223 267.305 373.031 267.05 372.893 266.764C372.755 266.479 372.673 266.169 372.654 265.852Z" fill="black"/>
<path d="M374.45 266.064C374.441 265.934 374.48 265.804 374.561 265.704C374.641 265.602 374.757 265.535 374.882 265.517C375.019 265.506 375.155 265.55 375.259 265.642C375.364 265.732 375.429 265.861 375.44 266.001C375.45 266.14 375.407 266.278 375.317 266.385C375.229 266.491 375.102 266.557 374.966 266.569C374.898 266.574 374.83 266.566 374.766 266.543C374.702 266.52 374.644 266.484 374.595 266.435C374.546 266.388 374.508 266.33 374.483 266.266C374.458 266.202 374.446 266.133 374.45 266.064Z" fill="white"/>
<path d="M354.516 267.374C354.491 266.907 354.602 266.441 354.835 266.036C355.068 265.631 355.413 265.306 355.827 265.1C356.24 264.895 356.704 264.818 357.16 264.88C357.616 264.942 358.045 265.14 358.391 265.448C358.737 265.757 358.987 266.163 359.108 266.616C359.23 267.068 359.218 267.548 359.073 267.994C358.929 268.44 358.66 268.832 358.298 269.122C357.937 269.412 357.5 269.587 357.041 269.625C356.73 269.649 356.416 269.61 356.121 269.51C355.825 269.409 355.551 269.249 355.316 269.04C355.081 268.831 354.889 268.575 354.752 268.289C354.614 268.004 354.534 267.693 354.516 267.374Z" fill="black"/>
<path d="M356.3 267.474C356.294 267.377 356.316 267.279 356.365 267.195C356.413 267.111 356.484 267.043 356.571 267C356.656 266.957 356.753 266.941 356.848 266.953C356.943 266.967 357.032 267.008 357.104 267.072C357.176 267.137 357.227 267.222 357.251 267.316C357.276 267.411 357.273 267.511 357.242 267.603C357.211 267.696 357.154 267.777 357.078 267.836C357.003 267.896 356.911 267.93 356.815 267.937C356.751 267.943 356.687 267.934 356.626 267.915C356.565 267.895 356.509 267.861 356.461 267.818C356.412 267.775 356.373 267.722 356.346 267.663C356.318 267.604 356.303 267.539 356.3 267.474Z" fill="white"/>
<path opacity="0.15" d="M395.671 273.992L392.383 274.266L396.598 280.89L395.671 273.992Z" fill="black"/>
<g opacity="0.3">
<path opacity="0.3" d="M361.886 278.586C361.994 278.95 362.181 279.285 362.432 279.564C362.674 279.848 362.978 280.071 363.319 280.216C363.643 280.361 363.996 280.43 364.349 280.416L367.441 280.469C367.54 280.49 367.642 280.49 367.74 280.469C367.835 280.447 367.923 280.403 367.998 280.342C368.073 280.279 368.133 280.2 368.173 280.111C368.224 280.021 368.255 279.92 368.266 279.817C368.281 279.716 368.281 279.613 368.266 279.512C368.231 279.418 368.178 279.333 368.111 279.259C368.035 279.193 367.947 279.14 367.853 279.102C367.759 279.081 367.661 279.081 367.565 279.102H364.473C364.289 279.091 364.108 279.048 363.937 278.976C363.766 278.895 363.611 278.781 363.483 278.639C363.354 278.501 363.255 278.336 363.195 278.155C363.126 277.97 363.091 277.775 363.092 277.577C363.108 277.181 363.27 276.805 363.545 276.525C363.814 276.233 364.184 276.06 364.576 276.042C364.734 276.019 364.877 275.936 364.978 275.81C365.084 275.687 365.146 275.532 365.153 275.369C365.164 275.209 365.124 275.051 365.04 274.917C364.952 274.782 364.821 274.681 364.669 274.633C364.302 274.633 363.938 274.709 363.6 274.855C363.262 275.001 362.956 275.215 362.7 275.485C362.166 276.049 361.867 276.803 361.865 277.588C361.81 277.919 361.816 278.257 361.886 278.586Z" fill="black"/>
</g>
<path d="M393.528 274.853C393.528 274.853 403.835 275.82 406.02 265.084C408.205 254.348 395.59 252.351 393.776 263.139L392.395 274.947L393.528 274.853Z" fill="#956363"/>
<path opacity="0.3" d="M403.215 260.311C403.266 260.15 403.267 259.976 403.217 259.814C403.167 259.652 403.069 259.51 402.937 259.407C402.506 259.048 402.008 258.783 401.474 258.629C400.94 258.482 400.381 258.45 399.835 258.534C399.297 258.667 398.794 258.918 398.361 259.27C397.927 259.631 397.576 260.083 397.33 260.595C396.574 261.861 396.181 263.318 396.197 264.801V265.926C396.145 266.746 397.536 267.051 397.547 266.021L397.65 264.791C397.672 263.582 397.976 262.396 398.536 261.331C398.707 260.99 398.937 260.683 399.216 260.427C399.496 260.175 399.821 259.982 400.175 259.859C400.551 259.818 400.931 259.854 401.294 259.963C401.657 260.074 401.995 260.257 402.288 260.5C402.438 260.597 402.618 260.634 402.793 260.606C402.969 260.569 403.126 260.468 403.236 260.322L403.215 260.311Z" fill="black"/>
<path d="M362.979 284.516C362.909 284.527 362.842 284.552 362.783 284.59C362.725 284.629 362.678 284.682 362.646 284.745C362.613 284.807 362.596 284.877 362.597 284.948C362.579 285.016 362.579 285.089 362.597 285.158C363.234 286.286 364.17 287.208 365.298 287.818C366.408 288.43 367.667 288.699 368.923 288.595C370.181 288.49 371.381 288.016 372.378 287.229C373.384 286.431 374.155 285.365 374.605 284.148C374.677 283.833 374.604 283.549 374.172 283.581L362.979 284.516Z" fill="white"/>
<path d="M395.329 249.576C395.329 249.576 402.698 224.34 364.955 231.248C343.208 235.202 341.033 244.834 340.157 249.818C339.281 254.802 351.494 247.073 351.494 247.073C351.494 247.073 350.886 257.168 354.988 254.434C360.008 251.111 366.017 243.446 366.017 243.446C366.017 243.446 377.406 257.42 389.722 255.244C396.772 254.024 395.329 249.576 395.329 249.576Z" fill="black"/>
<path d="M387.434 244.363C387.434 244.363 392.454 263.984 392.454 267.833C392.454 273.09 400.916 255.94 395.546 240.031L387.434 244.363Z" fill="black"/>
<path d="M397.451 291.404C397.314 291.404 397.183 291.349 397.087 291.251C396.99 291.152 396.936 291.018 396.936 290.879V271.952C396.936 271.812 396.99 271.678 397.087 271.579C397.183 271.482 397.314 271.426 397.451 271.426C397.588 271.426 397.718 271.482 397.815 271.579C397.912 271.678 397.967 271.812 397.967 271.952V290.879C397.967 291.018 397.912 291.152 397.815 291.251C397.718 291.349 397.588 291.404 397.451 291.404Z" fill="#FF3520"/>
<path d="M380.252 260.25C373.388 256.958 370.1 259.429 370.1 259.429L369.904 260.218C369.904 260.218 376.222 259.23 379.644 260.733L380.252 260.25Z" fill="black"/>
<path d="M350.62 261.638C357.175 257.748 360.658 259.914 360.658 259.914L360.916 260.671C360.916 260.671 354.536 260.261 351.269 262.069L350.62 261.638Z" fill="black"/>
<path d="M401.464 107.999L400.986 109.897H374.367L386.683 94.9366L380.955 90.3889L388.162 89.4088L384.223 72.8253L381.92 72.1719L409.408 78.7109L432.998 109.897H402.791L401.464 107.999Z" fill="#FF3520"/>
<path opacity="0.2" d="M401.464 107.999L400.986 109.897H374.367L386.683 94.9366L380.955 90.3889L388.162 89.4088L384.223 72.8253L381.92 72.1719L409.408 78.7109L432.998 109.897H402.791L401.464 107.999Z" fill="white"/>
<path d="M341.372 88.9084L349.012 90.0285L342.851 94.9392L356.636 109.9H331.511L331.466 103.418L332.482 109.9H308.369L325.051 78.3557L347.721 72.4648L341.372 88.9084Z" fill="#FF3520"/>
<path opacity="0.2" d="M341.372 88.9084L349.012 90.0285L342.851 94.9392L356.636 109.9H331.511L331.466 103.418L332.482 109.9H308.369L325.051 78.3557L347.721 72.4648L341.372 88.9084Z" fill="white"/>
<path d="M368.994 109.896H359.845L359.591 109.424C358.757 107.78 357.934 106.012 357.187 104.161C357.014 103.59 356.836 102.978 356.678 102.47C355.58 99.2759 354.564 96.0194 354.289 92.6176C354.152 90.9375 354.045 89.2522 353.873 87.5772L352.246 71.813L352.465 71.7404L375.917 70.75L380.146 71.7871L375.515 87.8624L368.994 109.896Z" fill="#21252B"/>
<path d="M357.164 104.16C357.911 106.011 358.735 107.79 359.568 109.424C358.897 108.148 358.237 106.831 357.627 105.488C357.448 105.055 357.294 104.611 357.164 104.16Z" fill="#FF3520"/>
<path d="M375.477 87.8785L380.107 71.7928L380.117 71.7461L380.219 71.772L375.477 87.8785Z" fill="#FF3520"/>
<path d="M386.685 88.4056L384.225 72.8281L388.164 89.4116L380.957 90.3917L379.793 89.4116L386.685 88.4056Z" fill="#FF3520"/>
<path opacity="0.3" d="M386.685 88.4056L384.225 72.8281L388.164 89.4116L380.957 90.3917L379.793 89.4116L386.685 88.4056Z" fill="black"/>
<path d="M380.957 90.3906L386.685 94.9384L374.369 109.899H373.643L385.455 94.1813L380.957 90.3906Z" fill="#FF3520"/>
<path opacity="0.3" d="M380.957 90.3906L386.685 94.9384L374.369 109.899H373.643L385.455 94.1813L380.957 90.3906Z" fill="black"/>
<path opacity="0.3" d="M347.717 72.4603L347.773 72.3203L347.727 72.4551L347.717 72.4603Z" fill="black"/>
<path d="M342.852 88.4027L349.745 89.4087L349.013 90.0258L341.373 88.9057L347.722 72.4622L347.732 72.457L342.852 88.4027Z" fill="#FF3520"/>
<path opacity="0.3" d="M342.852 88.4027L349.745 89.4087L349.013 90.0258L341.373 88.9057L347.722 72.4622L347.732 72.457L342.852 88.4027Z" fill="black"/>
<path d="M349.01 90.0273L344.08 94.181L357.392 109.899H356.634L342.85 94.9381L349.01 90.0273Z" fill="#FF3520"/>
<path opacity="0.3" d="M349.01 90.0273L344.08 94.181L357.392 109.899H356.634L342.85 94.9381L349.01 90.0273Z" fill="black"/>
<path d="M384.224 72.8284L386.684 88.4059L379.791 89.4119L380.955 90.392L385.454 94.1826L373.641 109.9H368.99L375.476 87.8821L380.218 71.7757L380.239 71.7031L381.921 72.175L384.224 72.8284Z" fill="#FF3520"/>
<path opacity="0.2" d="M384.224 72.8284L386.684 88.4059L379.791 89.4119L380.955 90.392L385.454 94.1826L373.641 109.9H368.99L375.476 87.8821L380.218 71.7757L380.239 71.7031L381.921 72.175L384.224 72.8284Z" fill="white"/>
<path d="M353.843 87.6014C354.016 89.2763 354.123 90.9616 354.26 92.6418C354.535 96.0383 355.551 99.2949 356.649 102.494C356.822 103.013 357 103.614 357.157 104.185C357.287 104.636 357.441 105.079 357.62 105.512C358.23 106.85 358.891 108.173 359.562 109.448L359.816 109.92H357.401L344.089 94.2026L349.02 90.0542L349.752 89.4371L342.859 88.4311L347.739 72.4906L347.785 72.3506L352.217 71.832L353.843 87.6014Z" fill="#FF3520"/>
<path opacity="0.2" d="M353.843 87.6014C354.016 89.2763 354.123 90.9616 354.26 92.6418C354.535 96.0383 355.551 99.2949 356.649 102.494C356.822 103.013 357 103.614 357.157 104.185C357.287 104.636 357.441 105.079 357.62 105.512C358.23 106.85 358.891 108.173 359.562 109.448L359.816 109.92H357.401L344.089 94.2026L349.02 90.0542L349.752 89.4371L342.859 88.4311L347.739 72.4906L347.785 72.3506L352.217 71.832L353.843 87.6014Z" fill="white"/>
<path d="M402.793 109.898H400.988L401.466 108L402.793 109.898Z" fill="#FF3520"/>
<path opacity="0.2" d="M402.793 109.898H400.988L401.466 108L402.793 109.898Z" fill="black"/>
<path d="M331.511 109.896H332.481L331.465 103.414L331.511 109.896Z" fill="#FF3520"/>
<path opacity="0.2" d="M331.511 109.896H332.481L331.465 103.414L331.511 109.896Z" fill="white"/>
<path d="M356.489 64.718C355.696 65.2366 354.573 65.3247 353.383 65.1225C348.488 64.3135 344.788 63.6394 344.392 58.5834C343.883 50.6287 345.515 33.0289 351.726 22.9844C355.96 25.209 356.621 26.2202 356.621 26.2202C356.621 26.2202 362.898 24.2652 363.03 24.1978C363.03 24.1304 365.079 58.9879 356.489 64.718Z" fill="#F1CC8F"/>
<path d="M371.884 59.5968L375.386 17.1839C377.506 16.8468 380.876 19.6833 381.867 20.8138C389.796 30.0493 391.712 49.1323 390.589 61.8733C390.192 66.7944 387.087 67.4685 382.329 68.4175C377.572 69.3665 372.016 69.8332 369.968 67.3804C368.977 66.1358 371.884 59.5968 371.884 59.5968Z" fill="#F1CC8F"/>
<path d="M376.482 48.8516L377.366 71.5644C377.407 72.6016 376.578 73.312 376.024 74.2143C372.822 79.3999 362.596 84.3728 355.525 74.4217C354.9 73.535 354.321 72.6171 354.509 71.5437L357.523 55.1365L376.482 48.8516Z" fill="#FC9D9D"/>
<path opacity="0.15" d="M356.59 61.0235L357.266 56.875L363.955 58.9492C363.932 58.9705 363.91 58.9928 363.889 59.0167C365.731 58.9352 367.542 58.5059 369.231 57.7514C369.344 57.713 369.466 57.7187 369.575 57.768C369.684 57.8167 369.771 57.9049 369.819 58.0158C369.867 58.1263 369.873 58.2518 369.836 58.3669C369.799 58.4815 369.721 58.5785 369.617 58.6381C367.704 59.5036 365.637 59.9641 363.543 59.9915C363.279 59.9915 363.004 59.9915 362.735 59.9604C360.082 61.6717 356.59 61.0235 356.59 61.0235Z" fill="black"/>
<path d="M361.466 58.7819L362.402 58.9011C369.375 59.7827 376.008 54.26 376.873 47.1506L379.14 29.1514C379.278 28.0183 378.972 26.8754 378.287 25.9716C377.602 25.0683 376.595 24.4776 375.485 24.3288L358.986 22.182C358.268 22.0886 357.539 22.1399 356.84 22.3339C356.142 22.5284 355.488 22.8607 354.916 23.3129C354.344 23.7656 353.864 24.3283 353.506 24.9697C353.147 25.6112 352.916 26.3185 352.825 27.0512L350.716 43.8162C349.847 50.8634 354.162 58.0662 361.466 58.7819Z" fill="#FC9D9D"/>
<path d="M364.903 49.9623L364.451 50.6883C364.159 51.114 363.77 51.4599 363.317 51.6969C362.863 51.9334 362.36 52.0531 361.851 52.0454C361.342 52.0376 360.842 51.9027 360.397 51.6528C359.95 51.4023 359.571 51.0445 359.292 50.6105L358.783 49.7652C358.677 49.5837 358.758 49.3556 358.966 49.3763L364.705 49.5941C364.883 49.5527 365.025 49.8015 364.903 49.9623Z" fill="white"/>
<path opacity="0.2" d="M407.621 80.1094C407.621 80.1094 401.71 91.6681 401.217 108.252" stroke="black" stroke-width="0.606127" stroke-miterlimit="10" stroke-linecap="round"/>
<path d="M367.568 42.7582C367.294 42.7825 367.019 42.7234 366.778 42.5891C366.537 42.4543 366.341 42.2499 366.213 42.0016C366.086 41.7532 366.033 41.4721 366.062 41.1937C366.091 40.9147 366.2 40.6513 366.376 40.4355C366.551 40.2198 366.785 40.0616 367.049 39.9813C367.311 39.9014 367.592 39.9019 367.855 39.9838C368.117 40.0663 368.351 40.2255 368.525 40.4423C368.699 40.659 368.806 40.924 368.833 41.2025C368.851 41.3897 368.833 41.5789 368.779 41.7584C368.725 41.9383 368.636 42.1053 368.519 42.2499C368.401 42.3951 368.257 42.5144 368.093 42.6016C367.93 42.6887 367.751 42.7421 367.568 42.7582Z" fill="#21252B"/>
<path d="M366.832 41.6917C366.774 41.6814 366.723 41.6523 366.683 41.6083C366.644 41.5647 366.619 41.5092 366.614 41.4501C366.609 41.391 366.623 41.3319 366.654 41.2821C366.685 41.2318 366.732 41.1934 366.786 41.1732C366.824 41.1587 366.865 41.1535 366.906 41.1576C366.946 41.1623 366.984 41.1758 367.019 41.1981C367.053 41.2204 367.082 41.2499 367.103 41.2852C367.124 41.321 367.137 41.3604 367.141 41.4019C367.144 41.4428 367.139 41.4843 367.124 41.5232C367.109 41.5616 367.087 41.5963 367.057 41.6244C367.027 41.6524 366.991 41.6731 366.952 41.685C366.913 41.6964 366.872 41.6985 366.832 41.6917Z" fill="white"/>
<path d="M356.934 41.9903C356.661 42.0137 356.387 41.954 356.146 41.8187C355.906 41.6834 355.711 41.4785 355.585 41.2296C355.459 40.9812 355.408 40.6997 355.438 40.4217C355.469 40.1432 355.58 39.8803 355.757 39.6667C355.934 39.4525 356.169 39.2969 356.433 39.2192C356.697 39.1419 356.977 39.1461 357.239 39.2306C357.5 39.3156 357.731 39.4779 357.902 39.6968C358.073 39.9156 358.177 40.1816 358.2 40.4606C358.231 40.8345 358.115 41.2058 357.878 41.493C357.64 41.7798 357.301 41.9587 356.934 41.9903Z" fill="#21252B"/>
<path d="M356.145 40.8589C356.107 40.873 356.066 40.8776 356.026 40.873C355.985 40.8683 355.947 40.8543 355.912 40.832C355.878 40.8097 355.849 40.7791 355.829 40.7438C355.808 40.7081 355.795 40.6681 355.792 40.6266C355.788 40.5852 355.795 40.5437 355.81 40.5053C355.825 40.4669 355.848 40.4322 355.879 40.4047C355.909 40.3767 355.945 40.3565 355.984 40.3456C356.023 40.3342 356.064 40.3326 356.105 40.3404C356.143 40.3264 356.183 40.3212 356.224 40.3259C356.264 40.3306 356.303 40.3445 356.337 40.3674C356.371 40.3897 356.4 40.4198 356.421 40.4555C356.442 40.4908 356.454 40.5312 356.458 40.5722C356.461 40.6137 356.455 40.6552 356.44 40.6941C356.425 40.7324 356.401 40.7667 356.371 40.7947C356.34 40.8222 356.304 40.8424 356.265 40.8538C356.226 40.8647 356.185 40.8667 356.145 40.8589Z" fill="white"/>
<g opacity="0.15">
<path opacity="0.15" d="M361.05 47.2521H362.895C363.103 47.2521 363.327 47.0706 363.276 46.8736C363.225 46.6765 363.098 46.4328 362.905 46.4795H361.06C360.843 46.4795 360.634 46.3913 360.481 46.2347C360.327 46.0781 360.241 45.866 360.241 45.6446C360.241 45.4232 360.327 45.2106 360.481 45.0545C360.634 44.8979 360.843 44.8097 361.06 44.8097C361.268 44.8097 361.492 44.6282 361.441 44.4311C361.39 44.2341 361.263 43.9904 361.07 44.0422C360.639 44.0516 360.228 44.2315 359.924 44.5442C359.621 44.8564 359.448 45.2774 359.443 45.7172C359.458 46.1377 359.635 46.5349 359.936 46.8227C360.237 47.1105 360.637 47.2646 361.05 47.2521Z" fill="black"/>
</g>
<path d="M349.213 29.9981H348.486C354.042 11.1848 373.931 11.33 381.932 20.8974C386.755 26.6949 388.804 36.1326 388.804 36.1326C387.218 39.6381 382.857 42.402 381.469 44.8341C380.874 45.9127 379.619 40.8515 378.76 40.167C378.628 40.0996 377.57 41.2041 376.844 41.9198C376.748 42.0333 376.623 42.1163 376.482 42.1583C376.341 42.2008 376.192 42.2003 376.051 42.1573C375.911 42.1147 375.786 42.0312 375.691 41.9172C375.596 41.8031 375.535 41.6636 375.517 41.5153C375.207 39.1574 375.297 36.7632 375.781 34.437L376.244 32.3627C371.817 30.8796 358.454 25.554 355.496 24.5428C354.769 24.2732 354.108 25.4192 353.91 26.1607L351.368 37.2579L349.874 31.5538L349.213 29.9981Z" fill="#F1CC8F"/>
<path d="M375.252 48.8109C375.252 48.8109 381.006 50.8333 383.715 45.2381C386.424 39.6428 379.552 36.6715 376.975 42.3342L374.525 48.6087L375.252 48.8109Z" fill="#FC9D9D"/>
<path opacity="0.15" d="M382.724 41.5924C382.533 41.3227 382.285 41.0982 382 40.9354C381.715 40.7726 381.398 40.6745 381.072 40.6486C380.745 40.6445 380.421 40.715 380.124 40.855C379.827 40.9945 379.564 41.2009 379.354 41.4576C378.771 42.0627 378.341 42.8032 378.099 43.6148L377.901 44.2267C377.769 44.6986 378.495 45.0356 378.694 44.4963L378.892 43.8222C379.105 43.1693 379.452 42.5704 379.908 42.0643C380.053 41.9061 380.226 41.7785 380.419 41.6899C380.612 41.6007 380.82 41.552 381.032 41.5457C381.474 41.6246 381.873 41.8641 382.155 42.2199C382.22 42.2883 382.306 42.3319 382.398 42.3443C382.49 42.3568 382.584 42.3365 382.663 42.2873C382.756 42.2002 382.814 42.0804 382.826 41.9523C382.837 41.8237 382.801 41.6956 382.724 41.5924Z" fill="black"/>
<path d="M349.711 40.0108C349.551 41.4934 349.975 42.9796 350.89 44.1432C351.805 45.3069 353.135 46.052 354.588 46.2154C356.041 46.3782 357.498 45.9457 358.638 45.0123C359.779 44.0794 360.509 42.7224 360.67 41.2398C360.783 40.2151 360.625 39.178 360.212 38.2373C361.126 38.0066 362.087 38.0662 362.967 38.4085C362.687 38.9587 362.514 39.5592 362.459 40.1768C362.341 41.2808 362.547 42.3957 363.049 43.3804C363.553 44.3657 364.33 45.1762 365.284 45.7108C366.238 46.2454 367.327 46.4799 368.411 46.3839C369.495 46.288 370.528 45.8669 371.378 45.1731C372.228 44.4792 372.858 43.5443 373.187 42.4859C373.517 41.427 373.532 40.2929 373.23 39.2257C372.928 38.1585 372.324 37.2065 371.492 36.4898C370.66 35.7732 369.64 35.3236 368.558 35.1986C367.547 35.1068 366.531 35.295 365.616 35.7431C364.7 36.1911 363.921 36.8823 363.358 37.7447C362.27 37.2873 361.059 37.236 359.938 37.5995C359.505 36.8865 358.92 36.2829 358.227 35.8338C357.533 35.3848 356.748 35.1022 355.932 35.0067C354.461 34.8532 352.989 35.2894 351.828 36.2233C350.667 37.1572 349.908 38.5158 349.711 40.0108ZM363.216 40.2805C363.321 39.318 363.704 38.4095 364.315 37.6695C364.926 36.929 365.739 36.3902 366.651 36.1211C367.562 35.852 368.532 35.8649 369.436 36.1579C370.34 36.4504 371.139 37.0104 371.732 37.7665C372.325 38.5225 372.684 39.4409 372.765 40.4055C372.846 41.37 372.645 42.3371 372.187 43.1849C371.73 44.0333 371.036 44.7235 370.193 45.1694C369.351 45.6149 368.398 45.7959 367.455 45.689C366.192 45.5418 365.036 44.8899 364.242 43.8767C363.448 42.8634 363.079 41.5701 363.216 40.2805ZM350.509 40.0368C350.614 39.0743 350.996 38.1658 351.608 37.4258C352.219 36.6853 353.032 36.1465 353.944 35.8774C354.855 35.6082 355.825 35.6212 356.729 35.9142C357.633 36.2067 358.432 36.7667 359.025 37.5228C359.617 38.2788 359.977 39.1972 360.058 40.1617C360.139 41.1262 359.938 42.0933 359.48 42.9412C359.023 43.7896 358.328 44.4798 357.486 44.9257C356.644 45.3712 355.691 45.5522 354.748 45.4453C354.12 45.379 353.511 45.1855 352.956 44.877C352.402 44.5679 351.914 44.1494 351.52 43.6459C351.125 43.1429 350.834 42.5642 350.661 41.9445C350.489 41.3248 350.438 40.6761 350.514 40.0368H350.509Z" fill="white"/>
<path d="M377.306 48.3369C377.07 48.3369 376.839 48.2653 376.643 48.1305C376.447 47.9962 376.294 47.8049 376.205 47.5819C376.116 47.3584 376.094 47.1131 376.142 46.8771C376.19 46.6412 376.306 46.425 376.475 46.2564C376.644 46.0879 376.858 45.9743 377.09 45.9303C377.323 45.8867 377.563 45.9142 377.779 46.0101C377.996 46.1061 378.18 46.2658 378.308 46.4685C378.435 46.6713 378.501 46.9088 378.496 47.1494C378.488 47.4662 378.359 47.7675 378.137 47.9895C377.915 48.2109 377.617 48.3359 377.306 48.3369Z" fill="#FF3520"/>
<path opacity="0.15" d="M376.716 48.0017C377.049 48.0899 377.403 48.0406 377.7 47.8638C377.997 47.687 378.214 47.3971 378.302 47.0579C378.368 46.8153 378.368 46.5586 378.302 46.3164C378.427 46.4616 378.516 46.6353 378.562 46.823C378.608 47.0102 378.609 47.2068 378.566 47.395C378.535 47.5542 378.471 47.7051 378.379 47.8379C378.287 47.9701 378.168 48.0816 378.031 48.164C377.894 48.247 377.741 48.2994 377.583 48.3175C377.425 48.3362 377.265 48.3201 377.113 48.2714C376.871 48.2195 376.658 48.0743 376.518 47.8669C376.513 48.0017 376.579 48.0017 376.716 48.0017Z" fill="black"/>
<path opacity="0.15" d="M376.447 49.0813L374.414 48.6094L376 53.795L376.447 49.0813Z" fill="black"/>
<path d="M353.976 26.0853C365.158 23.3888 363.293 40.4442 374.856 38.1522C385.698 35.995 375.914 22.6473 375.914 22.6473L366.332 20.8945L353.447 22.5124L353.976 26.0853Z" fill="#F1CC8F"/>
<path d="M376.449 49.082C376.449 49.082 374.461 60.3399 368.646 67.9576C368.646 67.9576 376.449 69.8503 382.462 68.4347C388.012 67.1486 376.449 49.082 376.449 49.082Z" fill="#F1CC8F"/>
<path opacity="0.2" d="M325.381 80.1094C325.381 80.1094 331.292 91.6681 331.785 108.252" stroke="black" stroke-width="0.606127" stroke-miterlimit="10" stroke-linecap="round"/>
<path d="M278.164 75.8493L276.324 78.3954L275.059 76.7982C274.829 76.5042 274.642 76.1775 274.505 75.8285L271.546 68.3198C271.525 68.2648 271.516 68.2057 271.521 68.1471C271.525 68.0885 271.544 68.0315 271.574 67.9812C271.604 67.9309 271.645 67.8884 271.694 67.8567C271.744 67.8256 271.799 67.8064 271.856 67.8012H272.055C272.49 67.7468 272.93 67.8313 273.316 68.0429C273.702 68.255 274.015 68.5832 274.21 68.9835L275.694 72.0171C275.974 72.5964 276.297 73.1528 276.66 73.6817L277.676 75.1492L278.164 75.8493Z" fill="#FA9B9B"/>
<path d="M281.49 72.7748L278.165 75.8498L277.845 74.6986L274.242 62.0302C274.196 61.8529 274.186 61.6678 274.21 61.4863C274.234 61.3048 274.294 61.1295 274.385 60.9713C274.476 60.8132 274.596 60.6752 274.74 60.5643C274.883 60.4538 275.046 60.3729 275.22 60.3268C275.394 60.2801 275.575 60.2692 275.753 60.2946C275.931 60.3195 276.102 60.3802 276.257 60.473C276.412 60.5658 276.548 60.6887 276.656 60.8349C276.765 60.9807 276.844 61.1476 276.89 61.325C277.332 63.2074 278.328 67.1173 279.741 70.0523C280.188 71.0433 280.777 71.9612 281.49 72.7748Z" fill="#FA9B9B"/>
<path d="M282.302 63.7961L281.488 72.7724L280.207 68.8988L276.405 57.3608C276.313 57.0139 276.35 56.6442 276.509 56.3232C276.668 56.0022 276.939 55.7533 277.268 55.6242C277.597 55.4951 277.961 55.4951 278.29 55.6242C278.619 55.7538 278.889 56.0027 279.049 56.3237L282.302 63.7961Z" fill="#FA9B9B"/>
<path d="M295.772 89.3524C295.558 89.9426 295.544 90.5887 295.731 91.1881L297.332 96.4152L285.256 99.008L284.849 93.9261C284.78 93.1701 284.431 92.469 283.873 91.966C282.44 90.6903 279.461 87.1797 276.33 78.3953L277.672 75.1128L278.18 75.844L277.855 74.698L279.751 70.0309C280.198 71.0219 280.787 71.9397 281.499 72.7534L280.208 68.9316L282.302 63.8238L280.732 58.7678C280.696 58.6605 280.674 58.549 280.666 58.436C280.658 58.1036 280.778 57.7815 281 57.5389C281.223 57.2967 281.53 57.153 281.855 57.1396C282.077 57.0919 282.308 57.1209 282.511 57.2225C282.715 57.3242 282.879 57.4917 282.978 57.6996L287.248 66.681C287.571 67.3453 287.83 68.0396 288.021 68.7553C288.64 70.9342 289.731 72.9437 291.213 74.6357C291.701 75.3249 292.264 75.9565 292.89 76.5181C293.103 76.7089 293.338 76.8712 293.592 77.0004C294.486 77.4308 294.923 76.85 295.116 76.2277C295.294 75.6796 295.315 75.0915 295.177 74.532C294.857 73.163 294.161 69.6524 295.177 67.7181C295.269 67.532 295.411 67.3769 295.586 67.2696C295.761 67.1623 295.962 67.1078 296.166 67.112C296.37 67.1166 296.569 67.1794 296.739 67.294C296.91 67.4086 297.045 67.5698 297.129 67.7596C298.39 70.6065 299.01 76.8759 299.162 78.9035C299.195 79.3271 299.14 79.7529 299 80.1532L295.772 89.3524Z" fill="#FC9D9D"/>
<path d="M282.686 93.3028L298.442 90.1914L305.767 109.637L285.313 109.897L282.686 93.3028Z" fill="#FF3520"/>
<path opacity="0.2" d="M282.686 93.3028L298.442 90.1914L305.767 109.637L285.313 109.897L282.686 93.3028Z" fill="white"/>
<path d="M153.897 323.283L158.419 316.494L166.856 311.163C167.005 311.063 167.179 311 167.353 310.98C167.534 310.96 167.715 310.983 167.877 311.047C168.045 311.111 168.2 311.215 168.316 311.349C168.439 311.484 168.529 311.646 168.574 311.822C169.292 313.331 161.178 318.208 160.512 319.117L167.515 314.669C168.808 313.885 169.602 315.895 168.426 316.56C160.887 322.096 162.05 321.121 158.322 329.642L161.914 321.575C162.424 321.502 170.371 316.606 167.922 320.257C161.133 324.574 162.108 324.528 158.471 331.421L153.897 323.283Z" fill="#FC9D9D"/>
<path opacity="0.15" d="M153.897 323.283L158.419 316.494L166.856 311.163C167.005 311.063 167.179 311 167.353 310.98C167.534 310.96 167.715 310.983 167.877 311.047C168.045 311.111 168.2 311.215 168.316 311.349C168.439 311.484 168.529 311.646 168.574 311.822C169.292 313.331 161.178 318.208 160.512 319.117L167.515 314.669C168.808 313.885 169.602 315.895 168.426 316.56C160.887 322.096 162.05 321.121 158.322 329.642L161.914 321.575C162.424 321.502 170.371 316.606 167.922 320.257C161.133 324.574 162.108 324.528 158.471 331.421L153.897 323.283Z" fill="black"/>
<path d="M152.155 322.294L149.448 335.277C149.293 336.035 148.964 336.744 148.486 337.346L134.183 355.081L149.371 357.262L155.663 346.513C159.002 343.159 163.453 340.424 164.131 335.138V335.099C164.131 333.398 169.094 328.957 168.724 327.355C165.359 324.396 161.541 333.998 158.873 329.009C158.776 328.06 156.057 321.997 156.838 321.16C156.838 320.389 163.944 309.139 162.271 308.691C160.404 307.393 153.201 321.298 152.155 322.294Z" fill="#FC9D9D"/>
<path opacity="0.15" d="M134.441 355.246C148.078 360.742 146.483 355.246 153.479 345.42C156.289 341.828 161.05 341.063 164.15 334.875C164.15 334.915 164.105 335.092 164.066 335.106C163.382 340.378 158.944 343.133 155.591 346.474L149.37 356.604L134.441 355.246Z" fill="black"/>
<path d="M59.7021 357.262C56.7112 330.162 52.3507 309.995 50.0123 302.561L50.3546 302.469L76.7175 302.699L78.4294 303.319C78.7072 309.54 81.1748 330.669 84.5469 357.288L59.7021 357.262Z" fill="white"/>
<path d="M59.6992 357.259H28.1879L26.7538 352.349L25.9851 357.259H0.998211L6.09507 326.587C6.12737 325.223 6.34055 323.87 6.74106 322.567C8.67903 316.313 14.4219 311.12 20.3456 309.722L50.0223 302.559C52.3479 309.993 56.7083 330.159 59.6992 357.259Z" fill="#21252B"/>
<path d="M105.047 356.072V357.258H84.5369C81.1648 330.639 78.723 309.51 78.4194 303.289L92.8701 307.408C98.2512 308.944 102.282 312.759 103.852 317.439L119.795 357.258H105.209L105.047 356.072Z" fill="#21252B"/>
<path d="M129.435 357.252L141.766 342.285L151.527 350.615L146.618 357.252H129.435Z" fill="#21252B"/>
<path opacity="0.3" d="M151.654 350.453L153.902 352.648L151.532 350.624L151.654 350.453Z" fill="black"/>
<path d="M151.532 350.629L153.902 352.652L151.028 357.265H146.622L151.532 350.629Z" fill="#21252B"/>
<path opacity="0.3" d="M151.532 350.629L153.902 352.652L151.028 357.265H146.622L151.532 350.629Z" fill="black"/>
<path opacity="0.3" d="M34.0684 357.267L29.2234 342.109L26.6395 352.654L27.9315 357.267H34.0684Z" fill="black"/>
<path d="M76.9288 268.947C76.9288 268.947 52.659 253.414 51.7352 272.407L51.3735 277.324L49.7068 302.209C49.6939 302.895 49.92 303.563 50.3528 304.088L67.2002 313.861C67.407 314.001 67.6524 314.07 67.8979 314.06C68.1434 314.049 68.3759 313.959 68.5697 313.802L76.1666 304.76C76.5154 304.459 76.7867 304.072 76.9547 303.638C77.1226 303.203 77.1808 302.733 77.1226 302.269L75.5722 287.519C75.9017 286.087 76.0567 284.621 76.0503 283.15C76.2764 275.689 76.9288 268.947 76.9288 268.947Z" fill="#FC9D9D"/>
<path d="M65.248 246.541C80.7517 246.831 81.992 259.484 82.4377 267.755C83.0385 279.005 81.4042 292.865 70.0218 294.394C53.1744 296.688 49.6667 270.715 49.6667 270.715L49.3889 268.026C48.5104 259.544 50.3643 250.007 59.7893 247.259C61.5593 246.708 63.4004 246.465 65.248 246.541Z" fill="#FC9D9D"/>
<path opacity="0.2" d="M51.3279 277.241C51.6509 277.275 51.9804 277.242 52.2904 277.143C52.6005 277.045 52.8912 276.883 53.1367 276.668L51.147 280.998L51.3279 277.241Z" fill="black"/>
<path d="M51.6814 266.909C51.6814 266.909 50.4282 263.278 46.6879 264.932C42.4438 266.843 43.3159 276.65 50.4928 277.223C54.2396 277.539 53.4902 275.312 52.8636 272.32L51.6814 266.909Z" fill="#FC9D9D"/>
<path opacity="0.2" d="M46.506 267.488C46.7967 267.258 47.1262 267.089 47.4815 266.99C47.8303 266.892 48.2049 266.866 48.5667 266.914C48.9155 267.003 49.2386 267.167 49.5164 267.394C49.7941 267.621 50.0266 267.907 50.1881 268.232C50.6403 269.034 50.8729 269.944 50.8729 270.868L50.9375 271.699C50.9375 271.817 50.8923 271.931 50.8083 272.016C50.7244 272.1 50.6145 272.147 50.4983 272.147C50.382 272.147 50.2721 272.1 50.1881 272.016C50.1042 271.931 50.059 271.817 50.059 271.699L50.0008 270.868C49.9685 270.093 49.7748 269.335 49.4388 268.641C49.1998 268.21 48.8251 267.873 48.3794 267.685C47.8885 267.648 47.404 267.783 47.0034 268.068C46.9001 268.133 46.7773 268.157 46.6546 268.133C46.5383 268.11 46.4285 268.042 46.3575 267.942C46.2541 267.929 46.3187 267.679 46.506 267.488Z" fill="black"/>
<path opacity="0.15" d="M76.7521 297.899L76.1578 291.968C74.6075 293.602 70.1437 295.968 65.092 294.755C62.5662 294.114 60.2988 292.669 58.6321 290.63C58.5675 290.549 58.4771 290.498 58.3737 290.487C58.2768 290.475 58.1734 290.506 58.0959 290.57C58.0184 290.635 57.9667 290.729 57.9538 290.831C57.9474 290.934 57.9732 291.037 58.0378 291.117C63.5029 295.188 70.0144 297.549 76.7715 297.912L76.7521 297.899Z" fill="black"/>
<path opacity="0.2" d="M71.4617 286.522C71.4617 286.588 71.3971 286.588 71.4617 286.522L69.0909 286.713C68.9488 286.719 68.8131 286.67 68.7098 286.575C68.6064 286.481 68.5418 286.348 68.5289 286.206C68.5224 286.135 68.5289 286.062 68.5483 285.994C68.5741 285.925 68.6064 285.862 68.6517 285.808C68.7033 285.754 68.755 285.711 68.8196 285.681C68.8842 285.65 68.9552 285.634 69.0263 285.633L71.3324 285.441C71.649 285.441 71.8945 285.633 71.8945 285.883C71.8945 286.265 71.7072 286.522 71.4617 286.522Z" fill="black"/>
<path opacity="0.2" d="M72.7296 284.233C71.5862 284.5 70.3912 284.363 69.3317 283.843C68.2788 283.323 67.4261 282.451 66.9157 281.373C66.8641 281.253 66.8512 281.119 66.877 280.992C66.9093 280.864 66.9803 280.75 67.0772 280.667C67.1289 280.637 67.1806 280.619 67.2387 280.612C67.2969 280.605 67.355 280.611 67.4067 280.629C67.4648 280.648 67.51 280.677 67.5553 280.717C67.6005 280.756 67.6328 280.804 67.6522 280.858C68.1819 282.005 69.9713 284.49 74.2865 282.77C74.3963 282.745 74.5126 282.764 74.616 282.822C74.7129 282.881 74.7839 282.975 74.8162 283.086C74.8485 283.211 74.8421 283.342 74.7904 283.46C74.7452 283.578 74.6612 283.679 74.5514 283.745C73.9635 283.977 73.3563 284.141 72.7296 284.233Z" fill="black"/>
<path d="M66.4608 272.763C65.6016 272.763 64.9039 272.051 64.9039 271.174C64.9039 270.297 65.6016 269.586 66.4608 269.586C67.32 269.586 68.0176 270.297 68.0176 271.174C68.0176 272.051 67.32 272.763 66.4608 272.763Z" fill="black"/>
<path d="M67.1567 270.984C66.9823 270.984 66.8467 270.843 66.8467 270.668C66.8467 270.493 66.9823 270.352 67.1567 270.352C67.3247 270.352 67.4668 270.493 67.4668 270.668C67.4668 270.843 67.3247 270.984 67.1567 270.984Z" fill="white"/>
<path d="M78.8163 272.829C77.9571 272.829 77.2594 272.118 77.2594 271.241C77.2594 270.363 77.9571 269.652 78.8163 269.652C79.6754 269.652 80.373 270.363 80.373 271.241C80.373 272.118 79.6754 272.829 78.8163 272.829Z" fill="black"/>
<path d="M79.5161 271.039C79.3482 271.039 79.206 270.897 79.206 270.723C79.206 270.548 79.3482 270.406 79.5161 270.406C79.6905 270.406 79.8262 270.548 79.8262 270.723C79.8262 270.897 79.6905 271.039 79.5161 271.039Z" fill="white"/>
<path opacity="0.2" d="M73.4646 280.339L71.404 280.465C71.2812 280.461 71.1714 280.415 71.081 280.334C70.9905 280.254 70.9259 280.144 70.9065 280.024C70.913 279.901 70.9582 279.783 71.0357 279.69C71.1132 279.597 71.223 279.533 71.3393 279.51L73.4 279.385C73.652 279.367 73.8781 279.251 74.046 279.06C74.2075 278.869 74.2915 278.619 74.2786 278.366C74.2592 278.113 74.1429 277.876 73.9556 277.709C73.7682 277.541 73.5227 277.456 73.2773 277.473C73.1545 277.468 73.0448 277.421 72.9479 277.342C72.8574 277.261 72.7993 277.152 72.7734 277.032C72.7153 276.775 72.9607 276.583 73.2127 276.517C73.6972 276.499 74.1688 276.665 74.537 276.982C74.9052 277.301 75.1442 277.748 75.2088 278.237C75.2411 278.751 75.0796 279.257 74.7566 279.649C74.4271 280.042 73.9685 280.289 73.4646 280.339Z" fill="black"/>
<path opacity="0.2" d="M75.469 281.105C76.2313 281.688 76.8515 282.443 77.2778 283.311C77.7042 284.179 77.9238 285.137 77.9238 286.108" stroke="black" stroke-width="0.918387" stroke-miterlimit="10" stroke-linecap="round"/>
<path opacity="0.2" d="M65.6523 279.438C64.8901 280.02 64.2764 280.776 63.85 281.644C63.4237 282.512 63.204 283.469 63.204 284.44" stroke="black" stroke-width="0.918387" stroke-miterlimit="10" stroke-linecap="round"/>
<path d="M69.7468 265.505C69.5918 265.881 68.2353 265.643 66.6203 265.769C65.0053 265.894 63.694 266.283 63.4937 265.933C63.4097 265.769 63.6487 265.419 64.1849 265.077C64.8955 264.648 65.703 264.4 66.5298 264.352C67.3567 264.286 68.1836 264.424 68.9458 264.754C69.5272 264.998 69.8114 265.327 69.7468 265.505Z" fill="#868A91"/>
<path d="M77.0217 265.506C77.1703 265.882 78.5333 265.644 80.1418 265.77C81.7503 265.895 83.0746 266.284 83.2684 265.934C83.3589 265.77 83.1198 265.42 82.5772 265.078C81.8601 264.656 81.0591 264.408 80.2322 264.352C79.4054 264.296 78.5785 264.434 77.8162 264.755C77.2607 264.999 76.9765 265.328 77.0217 265.506Z" fill="#868A91"/>
</svg>
