<svg width="288" height="120" viewBox="0 0 288 120" fill="none" xmlns="http://www.w3.org/2000/svg">
<rect width="288" height="120" rx="8" fill="#F5F5F5"/>
<path d="M109.055 52.793C109.055 54.1771 108.479 55.4512 108.479 56.8263C108.479 59.1362 108.772 61.4574 109.559 63.6446C109.832 64.4024 110.485 65.1138 110.927 65.7893C111.669 66.922 112.13 68.2085 112.872 69.3505C113.673 70.5825 114.502 71.8166 115.217 73.1037C115.29 73.2364 115.812 74.5546 115.601 74.4642C114.571 74.0229 113.805 73.2511 112.936 72.5995C112.546 72.3069 112.1 71.7361 111.68 71.5512C111.141 71.3143 110.88 70.6579 110.423 70.3028C109.99 69.9658 109.606 69.5902 109.199 69.2144C108.508 68.5769 107.725 68.0533 107.07 67.3738C106.855 67.1507 106.815 66.9937 106.534 66.8376C105.696 66.3722 105.629 65.5762 105.75 64.6689C105.871 63.7554 106.484 62.8772 106.814 62.028C107.072 61.3642 107.166 60.6418 107.438 59.9954C107.739 59.2821 108.046 57.7546 108.046 57.7546C108.046 57.7546 107.902 61.051 107.902 62.7003C107.902 63.2014 107.736 64.2193 107.982 64.6769C108.465 65.5739 108.778 66.5657 109.311 67.4538C109.476 67.7292 112.032 70.4964 112.048 70.4788C112.274 70.22 111.267 68.6857 111.143 68.4942C110.675 67.7662 110.189 67.0346 109.775 66.2694C109.277 65.3484 108.994 65.1194 108.038 64.821C107.84 64.7591 106.818 64.601 106.638 64.7809C106.384 65.0353 108.161 66.9097 108.479 66.9097" stroke="#FADFD2" stroke-width="2" stroke-linecap="round"/>
<path d="M185.707 71.6486C186.437 73.5965 188.424 74.904 190.662 74.904L197.006 74.8951L196.938 32.2451L178.261 38.5162C175.841 39.517 174.607 42.1901 175.529 44.5744L185.707 71.6486Z" fill="white"/>
<path d="M102.117 67.1105C101.388 69.0584 99.3999 70.366 97.162 70.366L90.8183 70.357L90.8858 27.707L109.563 33.9781C111.984 34.9789 113.218 37.652 112.296 40.0363L102.117 67.1105Z" fill="white"/>
<path d="M196.66 59.4474C196.66 62.3449 196.667 65.2619 196.161 68.1112C195.95 69.2955 196.143 70.5579 195.931 71.7244C195.866 72.0818 195.032 72.2469 194.763 72.3931C193.676 72.9864 192.474 73.5445 191.31 73.9602C190.141 74.3776 188.996 74.6668 187.777 74.8884C186.928 75.0428 186.836 74.6231 186.559 74.0001C186.277 73.3647 185.847 72.8539 185.521 72.2833C185.272 71.8481 184.376 70.5327 184.942 71.6645C185.574 72.9289 187.202 74.2009 188.485 74.8086C190.108 75.5772 191.405 76.2525 193.166 76.6551C195.46 77.1794 197.019 74.3228 197.019 72.3831C197.019 72.352 196.46 73.0189 196.211 73.1916C195.604 73.6118 194.975 73.9094 194.334 74.2696C193.808 74.5659 193.395 74.9452 192.807 75.118C192.722 75.1431 191.751 75.6709 191.849 75.7568C192.495 76.322 194.546 72.8374 194.943 72.5728C195.586 72.1444 192.935 74.4116 192.887 73.6408C192.87 73.3705 193.203 72.8682 193.346 72.6427C193.762 71.9895 193.842 71.1615 194.234 70.5067C194.714 69.7071 195.043 68.3266 195.043 67.3925C195.043 65.0327 195.369 63.0466 195.901 60.7849C196.228 59.3971 196.66 58.2667 196.66 56.7525C196.66 56.1405 196.502 55.283 196.67 54.6964C196.717 54.5316 196.909 53.8884 197.019 53.7781C197.297 53.5005 197.019 54.5633 197.019 54.9559C197.019 56.5529 197.019 58.1499 197.019 59.7469C197.019 61.8201 197.345 63.8273 197.379 65.8754C197.428 68.8616 197.818 71.9036 196.121 74.4992C195.638 75.2377 195.015 75.992 194.234 76.4255C193.733 76.7044 192.738 76.5154 192.168 76.5154C191.462 76.5154 188.036 77.3087 188.036 76.1561" stroke="#FF3520" stroke-width="2" stroke-linecap="round"/>
<path d="M92.7294 28.6143C92.3796 28.6143 92.1031 28.7561 91.9284 29.0579C91.8565 29.1821 91.4911 29.7233 91.7867 29.7233C92.3158 29.7233 92.9903 29.4034 93.481 29.2181C93.8729 29.07 94.5212 28.7281 94.054 29.3413C93.4811 30.0933 92.7658 30.8855 92.0824 31.5347C91.6029 31.9903 91.9751 32.0623 92.4213 32.1877C93.5649 32.5094 94.568 31.4103 95.3725 30.7399C95.4519 30.6737 95.8012 30.4996 95.5389 30.4996C95.0254 30.4996 94.512 30.4996 93.9986 30.4996C93.2131 30.4996 92.7864 30.4587 92.2241 31.0541C91.7896 31.5142 91.7863 32.5554 91.7374 33.1427C91.6123 34.6438 93.2364 34.1769 94.1464 33.7219C95.2279 33.1812 95.6035 32.5722 96.0318 31.6086C96.1083 31.4363 96.1213 31.0541 95.89 31.0541C95.7785 31.0541 95.0769 30.7667 95.1938 30.6351C95.4402 30.3579 96.8114 30.8573 97.0792 30.9678C97.7784 31.2564 98.3571 31.5723 99.1 31.7749C99.7449 31.9508 100.423 32.3495 101.096 32.3849C101.887 32.4265 102.794 32.6755 103.555 32.8963C104.344 33.1255 105.431 33.4556 106.062 34.0238C106.218 34.1641 106.485 34.3956 106.654 34.492C106.996 34.6877 107.021 34.5004 106.703 34.6276C105.873 34.9595 104.537 34.7138 103.647 34.7138C102.112 34.7138 100.425 34.9195 98.946 35.3176C97.8619 35.6095 96.7003 35.7537 95.7483 36.3774C94.6436 37.1011 93.6645 38.4549 93.4194 39.7537C93.1699 41.0761 93.3431 42.4236 93.2777 43.7646C93.2534 44.2638 93.2584 45.2314 92.7294 45.4959C92.4894 45.6159 92.2858 45.7286 92.2858 45.3542C92.2858 44.5747 92.0373 43.7677 91.953 42.9883C91.849 42.0259 91.8421 41.08 91.8421 40.111C91.8421 38.4207 91.9591 35.9775 93.3948 34.911C94.6053 34.0117 95.8584 33.1859 97.2948 32.7669C98.1885 32.5062 99.0835 32.7135 99.9872 32.5821C101.004 32.4342 101.972 32.6289 102.982 32.7731C103.456 32.8408 103.911 32.9979 104.38 33.0565C104.849 33.1151 105.211 33.4936 105.643 33.6295C105.869 33.7004 107.768 34.6436 106.678 34.7138C105.577 34.7849 104.497 34.8415 103.388 34.8247C102.632 34.8133 101.883 34.6665 101.133 34.5783C100.593 34.5148 100.088 34.2702 99.5436 34.2702C98.1068 34.2702 96.4997 34.4149 95.3232 35.33C94.7088 35.8078 94.5659 36.1046 94.1711 36.7532C94.133 36.8158 93.702 37.5225 93.6412 37.4617C92.7035 36.524 97.1928 34.3145 97.8431 34.1224C99.0494 33.766 100.575 33.3737 101.836 33.6603C101.957 33.6879 103.597 33.9825 103.462 34.1347C103.393 34.2123 103.047 34.1593 102.969 34.1593C102.122 34.1593 101.276 34.1707 100.431 34.0977C98.5459 33.9348 96.6861 33.7157 94.7934 33.7157C94.0871 33.7157 93.3096 33.6735 92.6185 33.8513C91.8884 34.039 91.3029 34.8476 91.7312 35.4901" stroke="#FF3520" stroke-width="2" stroke-linecap="round"/>
<path d="M91.2844 27.1719C91.9229 27.1719 92.8309 27.6614 93.3916 27.9728C94.456 28.5642 95.6328 29.0419 96.7802 29.5008C98.9327 30.3618 101.081 31.237 103.268 32.0022C104.025 32.267 104.889 32.5407 105.591 32.8525C106.18 33.1142 106.881 33.254 107.501 33.4686C107.982 33.6353 108.716 33.9348 109.029 34.325C109.181 34.515 108.685 35.0384 108.419 35.1568C107.045 35.7675 105.811 35.9331 104.297 35.9331C100.997 35.9331 94.5368 35.4207 94.2849 40.0796C94.2271 41.1488 94.1339 42.1987 93.9461 43.2526C93.7835 44.165 93.3136 44.8804 92.9418 45.7171C92.7905 46.0575 92.4685 47.3847 91.9498 47.3559C91.5923 47.3361 91.4432 46.6878 91.3707 46.4194C90.9248 44.7696 90.9618 43.2358 90.7546 41.5521C90.562 39.9876 90.7299 38.3084 90.7299 36.734C90.7299 35.4176 90.7299 34.1012 90.7299 32.7847C90.7299 31.8877 90.1599 27.7264 91.728 27.7264" stroke="#FF3520" stroke-width="2" stroke-linecap="round"/>
<path d="M144.426 88.0752C144.966 89.2222 145.272 91.707 144.288 92.6912C144.211 92.7681 143.52 93.3188 143.629 93.4273C143.89 93.6883 144.942 93.1432 145.185 92.9749C145.495 92.7603 146.952 91.4776 146.22 91.1116" stroke="#FADFD2" stroke-width="2" stroke-linecap="round"/>
<path d="M155.602 86.5576C155.709 87.5262 155.853 88.2477 155.747 89.249C155.714 89.5692 155.602 89.8589 155.602 90.1844C155.602 90.4106 155.835 89.7937 155.985 89.6247C156.383 89.1773 156.373 87.7592 156.844 87.5237" stroke="#FADFD2" stroke-width="2" stroke-linecap="round"/>
<path d="M164.57 81.5889C164.625 82.0818 165.127 82.6015 165.329 83.0457C165.62 83.6852 165.536 84.5519 165.536 85.2464C165.536 85.5062 165.446 85.9511 165.544 86.1972C165.571 86.2651 166.028 85.7004 166.058 85.6221C166.296 85.0017 166.641 84.3251 166.641 83.6592" stroke="#FADFD2" stroke-width="2" stroke-linecap="round"/>
<path d="M170.659 22.4879C172.803 22.4879 174.537 20.8137 174.537 18.7439C174.537 16.6742 172.803 15 170.659 15C168.515 15 166.781 16.6742 166.781 18.7439C166.782 20.8136 168.516 22.4879 170.659 22.4879Z" fill="#242424"/>
<path d="M169.151 32.7353C170.494 32.7353 171.58 31.6871 171.58 30.3906C171.58 29.0941 170.494 28.0459 169.151 28.0459C167.808 28.0459 166.723 29.0941 166.723 30.3906C166.723 31.6871 167.808 32.7353 169.151 32.7353Z" fill="#242424"/>
<path d="M164.058 23.0308C164.058 23.8233 163.392 24.4656 162.571 24.4656C161.751 24.4656 161.086 23.8233 161.086 23.0308C161.086 22.239 161.751 21.5967 162.571 21.5967C163.392 21.5967 164.058 22.239 164.058 23.0308Z" fill="#242424"/>
<path d="M107.484 91.166C107.484 90.9214 107.346 90.6999 107.125 90.5802L102.209 87.9871L99.5181 83.2404C99.2786 82.8144 98.5525 82.8144 98.3084 83.2404L95.627 87.9871L90.7104 90.5802C90.4894 90.6954 90.3516 90.9222 90.3516 91.166C90.3516 91.4106 90.4894 91.6321 90.7104 91.7518L95.627 94.3493L98.3084 99.096C98.4277 99.3094 98.6626 99.4424 98.9151 99.4424C99.1685 99.4424 99.398 99.3094 99.5181 99.096L102.209 94.3493L107.13 91.7518C107.346 91.6321 107.484 91.4106 107.484 91.166Z" fill="#242424"/>
<path d="M107.569 85.7982C107.689 86.0116 107.924 86.1447 108.176 86.1447C108.43 86.1447 108.659 86.0116 108.779 85.7982L110.215 83.2714L112.827 81.8901C113.048 81.7749 113.186 81.5481 113.186 81.3043C113.186 81.0597 113.048 80.8381 112.827 80.7184L110.215 79.3372L108.779 76.8103C108.66 76.5969 108.425 76.4639 108.176 76.4639C107.928 76.4639 107.693 76.5969 107.569 76.8103L106.139 79.3372L103.527 80.7184C103.306 80.8337 103.168 81.0604 103.168 81.3043C103.168 81.5489 103.306 81.7704 103.527 81.8901L106.14 83.2714L107.569 85.7982Z" fill="#242424"/>
<path d="M112.254 98.9563L110.819 96.4294C110.7 96.2161 110.465 96.083 110.216 96.083C109.963 96.083 109.733 96.2161 109.609 96.4294L108.183 98.9563L105.566 100.338C105.345 100.453 105.207 100.68 105.207 100.923C105.207 101.168 105.345 101.39 105.566 101.509L108.183 102.895L109.609 105.417C109.729 105.631 109.963 105.764 110.216 105.764C110.469 105.764 110.699 105.631 110.819 105.417L112.254 102.895L114.872 101.509C115.093 101.394 115.23 101.167 115.23 100.923C115.23 100.679 115.093 100.457 114.872 100.338L112.254 98.9563Z" fill="#242424"/>
<path d="M198.942 31.8426C198.942 31.4828 198.758 31.1408 198.454 30.9364C198.146 30.7319 197.755 30.6791 197.401 30.8033L177.894 37.6332C175.249 38.7699 173.626 41.2746 173.547 43.9301L154.679 35.6395C154.306 35.4172 145.507 30.4034 134.136 38.0995L114.316 39.5968C114.873 36.4573 113.162 33.2286 109.983 31.883L90.5362 25.1379C90.1866 25.0175 89.7955 25.071 89.4874 25.271C89.184 25.4799 89 25.8219 89 26.1854L89.0647 71.464C89.0647 72.081 89.5798 72.5739 90.2143 72.5739L97.4265 72.565C100.292 72.5606 102.804 70.8997 103.995 68.4307L138.786 94.2055C139.922 94.8002 141.665 95.3779 143.492 95.3779C145.392 95.3779 147.374 94.7519 148.851 92.8777C150.456 93.5795 152.912 93.9832 155.106 93.1572C156.431 92.6599 158.078 91.5544 158.952 89.116C161.155 90.0089 163.432 90.0349 165.245 89.1606C167.061 88.2811 168.289 86.5676 168.781 84.2799C170.621 84.3684 172.995 83.8978 174.756 82.3217C175.86 81.3315 176.992 79.4795 176.761 76.4375L183.435 72.7516L183.706 73.5017C184.727 76.3439 187.506 78.2448 190.629 78.2448H190.638L197.85 78.2359C198.154 78.2359 198.449 78.1207 198.664 77.9118C198.881 77.7029 199 77.4233 199 77.126L198.942 31.8426ZM97.4282 70.3401L91.3657 70.3491L91.3017 27.7616L109.135 33.9477C111.531 34.9647 112.727 37.6292 111.848 40.0223L102.175 67.0664C101.476 69.0246 99.5674 70.3346 97.4283 70.339L97.4282 70.3401ZM173.199 80.6872C171.824 81.9265 169.666 82.1792 168.365 81.9882L160.2 73.6349C159.763 73.1866 159.041 73.1688 158.571 73.5903C158.107 74.0118 158.093 74.7136 158.525 75.1626L166.579 83.4051C166.289 85.2392 165.498 86.5492 164.215 87.1706C162.766 87.8768 160.784 87.6501 158.907 86.6018L151.378 78.7021C150.949 78.2538 150.223 78.2181 149.754 78.6352C149.285 79.0523 149.257 79.7496 149.684 80.2031L156.929 87.7964C156.492 89.4573 155.614 90.5806 154.274 91.0868C152.453 91.7797 150.176 91.211 149.205 90.527L142.729 83.981C142.297 83.5417 141.57 83.5238 141.1 83.9454C140.641 84.3713 140.622 85.0731 141.064 85.5177L146.965 91.4859C144.49 94.5325 140.093 92.3654 140.038 92.3564L104.882 66.2981L113.612 41.8879L131.371 40.5468C127.9 44.238 124.225 49.6508 123.976 50.0373C123.921 50.1481 122.675 52.8126 123.953 55.2823C124.818 56.9565 126.571 58.0798 129.413 58.6397C132.352 58.6353 134.845 57.9602 139.408 54.4609C141.261 54.5895 144.504 53.6394 146.422 51.8939L174.489 76.3041C174.707 78.2273 174.288 79.7103 173.199 80.6872ZM175.765 74.4305L147.091 49.4874C146.847 49.274 146.516 49.1632 146.185 49.2123C145.854 49.2524 145.555 49.4257 145.371 49.6918C144.042 51.6017 140.233 52.4626 139.414 52.2232C139.046 52.1258 138.655 52.1965 138.361 52.4232C134.046 55.7939 131.963 56.4109 129.65 56.4422C127.782 56.0556 126.559 55.3322 126.016 54.3018C125.252 52.8455 126.002 51.0999 125.988 51.0999C126.158 50.8472 131.181 43.4486 134.727 40.3886C145.15 32.8168 153.144 37.3331 153.605 37.5955L173.996 46.5612L182.676 70.6174L175.765 74.4305ZM190.646 76.0244H190.636C188.493 76.0244 186.588 74.7189 185.89 72.7741L176.139 45.7432C175.256 43.3627 176.438 40.6939 178.756 39.6947L196.649 33.4337L196.713 76.0154L190.646 76.0244Z" fill="black"/>
<path d="M93.1734 39.2612C93.1734 38.7309 93.2917 38.056 93.0625 37.5977" stroke="#FF3520" stroke-width="2" stroke-linecap="round"/>
<path d="M194.504 69.6875C194.504 70.8883 194.684 72.1337 194.684 73.2808" stroke="#FF3520" stroke-width="2" stroke-linecap="round"/>
</svg>
