<svg width="288" height="120" viewBox="0 0 288 120" fill="none" xmlns="http://www.w3.org/2000/svg">
<rect width="288" height="120" rx="8" fill="#F5F5F5"/>
<path d="M176 25.5C169.478 25.5 164.3 30.5804 164.3 36.7744C164.3 42.9684 169.478 48.0489 176 48.0489C182.522 48.0489 187.7 42.9684 187.7 36.7744C187.7 30.5804 182.522 25.5 176 25.5ZM176 54.5318C163.523 54.5318 153.5 64.5053 153.5 76.9479V91.133C160.261 93.2552 167.872 94.5 176 94.5C184.116 94.5 191.748 93.2801 198.5 91.1685V76.9479C198.5 64.5063 188.477 54.5318 176 54.5318Z" fill="white" stroke="#242424" stroke-width="3"/>
<path d="M172.657 61.1502C170.019 58.5679 174.658 55.1502 176.258 54.498C183.549 55.3274 190.029 58.6388 193.256 63.8894C195.056 66.8185 196.921 69.2032 197.854 72.1067C200.059 76.0198 197.585 81.0771 197.857 82.672C198.657 87.3676 198.654 89.7154 197.854 92.0633C197.214 93.9415 189.858 93.8024 188.258 94.1937C186.125 94.4546 181.138 95.8198 178.257 95.1937C174.656 94.4111 175.057 92.0633 176.258 89.3241C177.217 87.1367 179.149 81.7423 179.857 77.585C180.656 72.8894 178.6 68.9763 178.257 68.1937C175.171 61.1502 174.256 62.7154 172.657 61.1502Z" fill="#FADFD2"/>
<path d="M182.857 27.1066C179.977 25.5413 172.856 26.9775 171.256 28.2818C167.256 30.4265 172.056 47.4554 177.256 47.8467C182.456 48.238 186.056 41.5859 187.656 39.238C189.256 36.8902 186.457 29.0631 182.857 27.1066Z" fill="#FADFD2"/>
<path d="M176 25.5C169.478 25.5 164.3 30.5804 164.3 36.7744C164.3 42.9684 169.478 48.0489 176 48.0489C182.522 48.0489 187.7 42.9684 187.7 36.7744C187.7 30.5804 182.522 25.5 176 25.5ZM176 54.5318C163.523 54.5318 153.5 64.5053 153.5 76.9479V91.133C160.261 93.2552 167.872 94.5 176 94.5C184.116 94.5 191.748 93.2801 198.5 91.1685V76.9479C198.5 64.5063 188.477 54.5318 176 54.5318Z" stroke="#242424" stroke-width="3"/>
<path d="M112 25.5C105.478 25.5 100.3 30.5804 100.3 36.7744C100.3 42.9684 105.478 48.0489 112 48.0489C118.522 48.0489 123.7 42.9684 123.7 36.7744C123.7 30.5804 118.522 25.5 112 25.5ZM112 54.5318C99.5226 54.5318 89.5 64.5053 89.5 76.9479V91.133C96.2612 93.2552 103.872 94.5 112 94.5C120.116 94.5 127.748 93.2801 134.5 91.1685V76.9479C134.5 64.5063 124.477 54.5318 112 54.5318Z" fill="white" stroke="#242424" stroke-width="3"/>
<path d="M114.121 61.1502C116.758 58.5679 112.119 55.1502 110.519 54.498C103.229 55.3274 96.748 58.6388 93.5217 63.8894C91.7218 66.8185 89.8567 69.2032 88.923 72.1067C86.7179 76.0198 89.1922 81.0771 88.9205 82.672C88.1205 87.3676 88.1229 88.7154 88.9229 91.0633C89.5629 92.9415 96.9194 93.8024 98.5194 94.1937C100.653 94.4546 105.64 95.8198 108.521 95.1937C112.122 94.4111 111.721 92.0633 110.519 89.3241C109.56 87.1367 107.628 81.7423 106.921 77.585C106.122 72.8894 108.178 68.9763 108.521 68.1937C111.606 61.1502 112.522 62.7154 114.121 61.1502Z" fill="#FADFD2"/>
<path d="M106.26 27.1066C109.14 25.5413 116.261 26.9775 117.861 28.2818C121.861 30.4265 117.061 47.4554 111.861 47.8467C106.661 48.238 103.061 41.5859 101.461 39.238C99.861 36.8902 102.66 29.0631 106.26 27.1066Z" fill="#FADFD2"/>
<path d="M112 25.5C105.478 25.5 100.3 30.5804 100.3 36.7744C100.3 42.9684 105.478 48.0489 112 48.0489C118.522 48.0489 123.7 42.9684 123.7 36.7744C123.7 30.5804 118.522 25.5 112 25.5ZM112 54.5318C99.5226 54.5318 89.5 64.5053 89.5 76.9479V91.133C96.2612 93.2552 103.872 94.5 112 94.5C120.116 94.5 127.748 93.2801 134.5 91.1685V76.9479C134.5 64.5063 124.477 54.5318 112 54.5318Z" stroke="#242424" stroke-width="3"/>
<path d="M144 15.5C152.317 15.5 159.001 22.1347 159.001 30.3229C159.001 38.5111 152.317 45.1458 144 45.1458C135.683 45.1458 128.999 38.5111 128.999 30.3229C128.999 22.1347 135.683 15.5 144 15.5ZM144 52.5962C159.771 52.5962 172.5 65.4938 172.5 81.6556V100.094C163.947 102.87 154.304 104.5 144 104.5C133.712 104.5 124.042 102.902 115.5 100.139V81.6556C115.5 65.4951 128.229 52.5962 144 52.5962Z" fill="white" stroke="#242424" stroke-width="3"/>
<path d="M148.178 61.4697C151.475 58.1701 145.677 53.8031 143.677 52.9697C134.563 54.0294 126.462 58.2607 122.429 64.9697C120.18 68.7125 117.848 71.7597 116.681 75.4697C113.925 80.4697 117.018 86.9319 116.678 88.9697C115.678 94.9697 115.681 97.9697 116.681 100.97C117.481 103.37 127.5 103 129.5 103.5C132.167 103.833 137.577 105.77 141.178 104.97C145.68 103.97 145.178 100.97 143.677 97.4697C142.478 94.6747 140.062 87.7818 139.178 82.4697C138.179 76.4697 140.749 71.4697 141.178 70.4697C145.035 61.4697 146.179 63.4697 148.178 61.4697Z" fill="#FF3520"/>
<path d="M135.43 17.9693C139.03 15.9693 147.932 17.8044 149.932 19.4711C154.932 22.2114 148.932 43.9707 142.432 44.4707C135.932 44.9707 131.432 36.4707 129.432 33.4707C127.432 30.4707 130.93 20.4693 135.43 17.9693Z" fill="#FF3520"/>
<path d="M144 15.5C152.317 15.5 159.001 22.1347 159.001 30.3229C159.001 38.5111 152.317 45.1458 144 45.1458C135.683 45.1458 128.999 38.5111 128.999 30.3229C128.999 22.1347 135.683 15.5 144 15.5ZM144 52.5962C159.771 52.5962 172.5 65.4938 172.5 81.6556V100.094C163.947 102.87 154.304 104.5 144 104.5C133.712 104.5 124.042 102.902 115.5 100.139V81.6556C115.5 65.4951 128.229 52.5962 144 52.5962Z" stroke="#242424" stroke-width="3"/>
</svg>
