<svg width="288" height="120" viewBox="0 0 288 120" fill="none" xmlns="http://www.w3.org/2000/svg">
<rect width="288" height="120" rx="8" fill="#F5F5F5"/>
<path d="M131 16.0303C139.317 16.0303 146.001 22.665 146.001 30.8531C146.001 39.0413 139.317 45.676 131 45.676C122.683 45.676 115.999 39.0413 115.999 30.8531C115.999 22.665 122.683 16.0303 131 16.0303ZM131 53.1265C146.771 53.1265 159.5 66.0241 159.5 82.1859V100.624C150.947 103.4 141.304 105.03 131 105.03C120.712 105.03 111.042 103.433 102.5 100.67V82.1859C102.5 66.0254 115.229 53.1265 131 53.1265Z" fill="white" stroke="#242424" stroke-width="3"/>
<path d="M135.178 62C138.475 58.7004 132.677 54.3333 130.677 53.5C121.563 54.5597 113.462 58.791 109.429 65.5C107.18 69.2428 104.848 72.2899 103.681 76C100.925 81 104.018 87.4621 103.678 89.5C102.678 95.5 102.681 98.5 103.681 101.5C104.481 103.9 113.677 105 115.677 105.5C118.343 105.833 124.577 106.3 128.178 105.5C132.68 104.5 132.178 101.5 130.677 98C129.478 95.205 127.062 88.3121 126.178 83C125.179 77 127.749 72 128.178 71C132.035 62 133.179 64 135.178 62Z" fill="#FF3520"/>
<path d="M122.43 18.4996C126.03 16.4996 134.932 18.3347 136.932 20.0013C141.932 22.7417 135.932 44.5009 129.432 45.0009C122.932 45.5009 118.432 37.0009 116.432 34.0009C114.432 31.0009 117.93 20.9996 122.43 18.4996Z" fill="#FF3520"/>
<path d="M131 16.0303C139.317 16.0303 146.001 22.665 146.001 30.8531C146.001 39.0413 139.317 45.676 131 45.676C122.683 45.676 115.999 39.0413 115.999 30.8531C115.999 22.665 122.683 16.0303 131 16.0303ZM131 53.1265C146.771 53.1265 159.5 66.0241 159.5 82.1859V100.624C150.947 103.4 141.304 105.03 131 105.03C120.712 105.03 111.042 103.433 102.5 100.67V82.1859C102.5 66.0254 115.229 53.1265 131 53.1265Z" stroke="#242424" stroke-width="3"/>
<path fill-rule="evenodd" clip-rule="evenodd" d="M175.699 12C176.528 12 177.199 12.6716 177.199 13.5V22H185.699C186.528 22 187.199 22.6716 187.199 23.5C187.199 24.3284 186.528 25 185.699 25H177.199V33.5C177.199 34.3284 176.528 35 175.699 35C174.871 35 174.199 34.3284 174.199 33.5V25H165.699C164.871 25 164.199 24.3284 164.199 23.5C164.199 22.6716 164.871 22 165.699 22H174.199V13.5C174.199 12.6716 174.871 12 175.699 12Z" fill="#101828"/>
</svg>
