<svg width="61" height="60" viewBox="0 0 61 60" fill="none" xmlns="http://www.w3.org/2000/svg">
<path d="M23.7303 23.8741L22.4218 27.4643H22.4222C22.3716 27.6026 22.3902 27.7575 22.4714 27.8793C22.5527 28.0008 22.6865 28.0733 22.8294 28.0736C22.8858 28.074 22.9416 28.0625 22.9939 28.0406L28.1945 25.8476C29.4055 26.1351 30.6441 26.2792 31.8867 26.2765C38.2127 26.2765 43.3593 22.625 43.3593 18.1362C43.359 13.6478 38.2125 10 31.8867 10C25.5606 10 20.4141 13.6553 20.4141 18.1393C20.4141 20.3197 21.5891 22.3473 23.7306 23.8742L23.7303 23.8741ZM31.8867 10.8998C37.7341 10.8998 42.4855 14.1472 42.4855 18.1389C42.4855 22.1306 37.7299 25.3786 31.8867 25.3786C30.6657 25.3816 29.4488 25.2345 28.2611 24.9413C28.1724 24.919 28.0791 24.9265 27.9945 24.9619L23.5888 26.8194L24.6679 23.8586C24.7397 23.6602 24.6682 23.4368 24.4962 23.3221C22.4258 21.9396 21.2827 20.1003 21.2827 18.1389C21.2827 14.1472 26.041 10.8998 31.8866 10.8998L31.8867 10.8998Z" fill="white"/>
<path d="M26.3387 16.7837H37.4387C37.6714 16.7726 37.8544 16.5742 37.8544 16.3333C37.8544 16.0928 37.6714 15.8944 37.4387 15.8833H26.3387C26.2196 15.8776 26.1037 15.9228 26.0176 16.0078C25.9314 16.0928 25.8828 16.2105 25.8828 16.3333C25.8828 16.4565 25.9314 16.5742 26.0176 16.6592C26.1037 16.7442 26.2196 16.7891 26.3387 16.7837Z" fill="white"/>
<path d="M36.3183 19.4966H27.4637C27.3446 19.4908 27.2287 19.5357 27.1426 19.6207C27.0564 19.7057 27.0078 19.8235 27.0078 19.9466C27.0078 20.0698 27.0564 20.1875 27.1426 20.2725C27.2287 20.3575 27.3446 20.4024 27.4637 20.3967H36.3183C36.4371 20.4024 36.5529 20.3575 36.6391 20.2725C36.7252 20.1875 36.7738 20.0698 36.7738 19.9466C36.7738 19.8235 36.7252 19.7057 36.6391 19.6207C36.5529 19.5357 36.4371 19.4908 36.3183 19.4966Z" fill="white"/>
<path d="M47.3663 36.1282C48.7263 35.4392 49.7099 34.1486 50.0404 32.6204C50.3706 31.0919 50.0117 29.4911 49.0647 28.269C48.1178 27.0469 46.6853 26.3359 45.1709 26.3359C43.6565 26.3359 42.2241 27.0469 41.2772 28.269C40.3302 29.4911 39.9713 31.0919 40.3015 32.6204C40.6317 34.1486 41.6155 35.4393 42.9752 36.1282C41.6821 36.6303 40.6118 37.6052 39.9667 38.8681L37.1455 44.3883V44.3887C37.0025 44.6687 36.7206 44.8435 36.4145 44.8422H29.7657C29.7298 44.8425 29.6942 44.8472 29.6596 44.8563C29.5748 44.8479 29.4887 44.8422 29.4019 44.8422H24.2472C23.9408 44.8435 23.6592 44.6687 23.5163 44.3887L20.6951 38.8685V38.8681C20.05 37.6052 18.9797 36.6304 17.6862 36.1282C19.0455 35.4392 20.0284 34.1493 20.3586 32.6214C20.6885 31.0938 20.3296 29.4938 19.3829 28.272C18.4363 27.0505 17.0044 26.3396 15.4907 26.3396C13.977 26.3396 12.5451 27.0505 11.5985 28.272C10.6519 29.4938 10.293 31.0938 10.6228 32.6214C10.9527 34.1493 11.9359 35.4392 13.2949 36.1282C12.4188 36.5021 11.6696 37.1361 11.1422 37.9507C10.6146 38.7649 10.3327 39.7229 10.332 40.703V49.5526V49.5523C10.3428 49.7932 10.5343 49.9825 10.7673 49.9825C11.0003 49.9825 11.1922 49.7932 11.2026 49.5523V40.7027C11.2036 39.6297 11.6164 38.6012 12.3499 37.8424C13.0837 37.0838 14.0783 36.657 15.1159 36.656H15.6971C16.5674 36.6547 17.4219 36.8996 18.1675 37.3643C18.9132 37.8289 19.5217 38.4957 19.9273 39.2919L22.7485 44.8125C22.8921 45.0946 23.1078 45.3308 23.3717 45.4954C23.6357 45.6604 23.9385 45.7471 24.2469 45.7468H29.4019C29.9723 45.7606 30.4934 46.0835 30.775 46.5968C31.0563 47.11 31.0563 47.7386 30.775 48.2518C30.4934 48.765 29.9723 49.0876 29.4019 49.1018H21.9739C21.4691 49.1008 21.0011 48.8284 20.7385 48.3827L17.2173 42.355C17.0888 42.1522 16.828 42.0908 16.6274 42.2164C16.4267 42.3415 16.3578 42.6088 16.4717 42.8207L19.9929 48.8484C20.4135 49.5623 21.1627 49.9993 21.971 50.002H29.399C29.4904 50.002 29.5716 49.9972 29.6568 49.9888C29.6914 49.9976 29.7269 50.002 29.7628 50.002H38.6876C39.4962 49.9993 40.2451 49.5623 40.6657 48.8484L44.1869 42.8207C44.3008 42.6088 44.2319 42.3415 44.0312 42.2164C43.8306 42.0908 43.5698 42.1522 43.4413 42.355L39.9256 48.3827C39.6636 48.8274 39.197 49.0997 38.6932 49.1018H31.2778C31.6661 48.6263 31.8779 48.0234 31.8743 47.4011C31.875 46.7938 31.6652 46.2063 31.2834 45.7447H36.4171C36.7255 45.745 37.0283 45.6583 37.2923 45.4937C37.5563 45.329 37.772 45.0928 37.9156 44.8104L40.7368 39.2902C41.1424 38.4935 41.751 37.8271 42.4965 37.3625C43.2421 36.8979 44.0967 36.6529 44.967 36.6543H45.5481C46.5858 36.6553 47.5803 37.0818 48.3142 37.8406C49.0477 38.5991 49.4605 39.6279 49.4615 40.7006V49.5502C49.4719 49.7908 49.6638 49.9801 49.8967 49.9801C50.1297 49.9801 50.3213 49.7908 50.332 49.5502V40.7023C50.3311 39.7217 50.0488 38.7638 49.5208 37.9493C48.9929 37.1351 48.243 36.501 47.3662 36.1275L47.3663 36.1282ZM11.378 31.4988C11.378 30.3698 11.8117 29.287 12.5838 28.4886C13.3558 27.6903 14.4032 27.2415 15.4951 27.2415C16.5869 27.2415 17.634 27.6902 18.4061 28.4886C19.1781 29.287 19.6122 30.3697 19.6122 31.4988C19.6122 32.6278 19.1782 33.7109 18.4061 34.5093C17.6341 35.3076 16.587 35.7561 15.4951 35.7561C14.4033 35.7548 13.3568 35.3057 12.5848 34.5077C11.813 33.7093 11.379 32.6269 11.3781 31.4978L11.378 31.4988ZM41.0519 31.4988C41.0523 30.3698 41.4863 29.287 42.2583 28.489C43.0306 27.6906 44.0777 27.2425 45.1696 27.2425C46.2614 27.2428 47.3085 27.6913 48.0806 28.4899C48.8523 29.2883 49.286 30.371 49.286 31.5001C49.286 32.6291 48.852 33.7118 48.0799 34.5103C47.3079 35.3086 46.2608 35.7571 45.1689 35.7571C44.0771 35.7557 43.0303 35.3066 42.2586 34.5079C41.4866 33.7096 41.0529 32.6268 41.0519 31.4977V31.4988Z" fill="white"/>
</svg>
