<svg width="61" height="60" viewBox="0 0 61 60" fill="none" xmlns="http://www.w3.org/2000/svg">
<path d="M8.57416 12.5C6.9743 12.5 5.66797 13.8971 5.66797 15.6082V46.8918C5.66797 48.6029 6.9743 50 8.57416 50H42.286C43.8858 50 45.1922 48.6029 45.1922 46.8918V40.7458L55.4912 29.7309C55.6043 29.6138 55.668 29.4525 55.668 29.2842C55.668 29.1156 55.6043 28.9542 55.4912 28.8372L51.4222 24.4858C51.2933 24.3488 51.1121 24.2842 50.932 24.3111C50.8019 24.3262 50.6803 24.3878 50.587 24.4858L45.1922 30.2556V15.6082C45.1922 13.8972 43.8859 12.5 42.286 12.5L8.57416 12.5ZM8.57416 13.7436H42.286C43.2619 13.7436 44.0298 14.5645 44.0298 15.6082V19.96H6.83055V15.6082C6.83055 14.5645 7.59824 13.7436 8.57416 13.7436ZM35.3111 14.9868C34.3551 14.9868 33.5673 15.8289 33.5673 16.8518C33.5673 17.8743 34.3551 18.7164 35.3111 18.7164C36.2671 18.7164 37.0549 17.8743 37.0549 16.8518C37.0549 15.8289 36.2672 14.9868 35.3111 14.9868ZM40.5421 14.9868C39.586 14.9868 38.7982 15.8289 38.7982 16.8518C38.7982 17.8743 39.586 18.7164 40.5421 18.7164C41.4981 18.7164 42.2859 17.8743 42.2859 16.8518C42.2859 15.8289 41.4981 14.9868 40.5421 14.9868ZM35.3111 16.2299C35.6391 16.2299 35.8921 16.501 35.8921 16.8518C35.8921 17.2021 35.6391 17.4732 35.3111 17.4732C34.9831 17.4732 34.7297 17.2021 34.7297 16.8518C34.7297 16.501 34.9831 16.2299 35.3111 16.2299ZM40.5421 16.2299C40.8701 16.2299 41.1235 16.501 41.1235 16.8518C41.1235 17.2021 40.8701 17.4732 40.5421 17.4732C40.2141 17.4732 39.9611 17.2021 39.9611 16.8518C39.9611 16.501 40.2141 16.2299 40.5421 16.2299ZM6.83024 21.2032H44.0295V31.4991L34.8929 41.2703C34.7851 41.3899 34.7259 41.5508 34.7296 41.7173V46.0687C34.7296 46.4121 34.9898 46.6901 35.311 46.6901H39.3795C39.5352 46.694 39.6856 46.6311 39.7971 46.5153L44.0295 41.9892V46.8921C44.0295 47.9358 43.2616 48.7567 42.2857 48.7567H8.57383C7.59794 48.7567 6.83001 47.9359 6.83001 46.8921L6.83024 21.2032ZM51.0043 25.8264L54.2373 29.2845L51.876 31.8099L48.6431 28.3518L51.0043 25.8264ZM11.3712 26.7977C11.0505 26.8298 10.8145 27.1342 10.8445 27.4776C10.8745 27.8211 11.1591 28.0734 11.4802 28.0409H32.4048C32.5605 28.0435 32.7101 27.9789 32.8212 27.8623C32.9319 27.7452 32.9943 27.586 32.9943 27.4195C32.9943 27.253 32.9319 27.0934 32.8212 26.9768C32.7101 26.8597 32.5605 26.7955 32.4048 26.7977H11.4802C11.462 26.7968 11.4441 26.7968 11.4259 26.7977C11.4077 26.7968 11.3894 26.7968 11.3712 26.7977ZM47.8075 29.2455L51.0409 32.7032L39.1255 45.4468H35.8922V41.9891L47.8075 29.2455ZM11.3712 32.3928C11.0505 32.4249 10.8145 32.7293 10.8445 33.0727C10.8745 33.4157 11.1591 33.6681 11.4802 33.636H25.4299C25.5852 33.6382 25.7352 33.574 25.8459 33.4569C25.957 33.3403 26.0195 33.1807 26.0195 33.0142C26.0195 32.8477 25.957 32.6885 25.8459 32.5714C25.7352 32.4548 25.5852 32.3902 25.4299 32.3928H11.4802C11.462 32.3915 11.4441 32.3915 11.4259 32.3928C11.4077 32.3919 11.3894 32.3919 11.3712 32.3928ZM11.3712 37.3656C11.0505 37.3981 10.8145 37.7025 10.8445 38.0455C10.8745 38.3889 11.1591 38.6413 11.4802 38.6092H30.0799C30.2355 38.6114 30.3856 38.5468 30.4962 38.4301C30.6073 38.3135 30.6694 38.1539 30.6694 37.9874C30.6694 37.8209 30.6073 37.6613 30.4962 37.5447C30.3856 37.428 30.2355 37.3634 30.0799 37.3656H11.4802C11.462 37.3647 11.4441 37.3647 11.4259 37.3656C11.4077 37.3647 11.3894 37.3647 11.3712 37.3656ZM11.3712 42.9606C11.0505 42.9927 10.8145 43.2971 10.8445 43.6405C10.8745 43.9839 11.1591 44.2359 11.4802 44.2038H25.4299C25.5852 44.2059 25.7352 44.1418 25.8459 44.0247C25.957 43.908 26.0195 43.7485 26.0195 43.5819C26.0195 43.4159 25.957 43.2563 25.8459 43.1392C25.7352 43.0226 25.5852 42.958 25.4299 42.9606H11.4802C11.462 42.9597 11.4441 42.9597 11.4259 42.9606C11.4077 42.9597 11.3894 42.9597 11.3712 42.9606Z" fill="white"/>
</svg>
