<svg width="60" height="60" viewBox="0 0 60 60" fill="none" xmlns="http://www.w3.org/2000/svg">
<path d="M17.186 10C17.0682 10.0121 16.9595 10.0701 16.8824 10.1612L10.1191 18.0187V18.019C9.97818 18.1775 9.96043 18.4128 10.0759 18.5913V23.4491C10.034 24.3366 10.5481 25.1029 11.3187 25.5921C11.8374 25.9213 12.4754 26.1405 13.1973 26.2525C13.1954 26.2768 13.1954 26.3013 13.1973 26.3259L13.4573 46.3311H11.969V46.3307C11.9545 46.3301 11.94 46.3301 11.9255 46.3307C11.6874 46.3537 11.5055 46.5574 11.5065 46.8005V49.5305C11.5065 49.7897 11.7136 50 11.969 50H48.1093C48.3647 50 48.5718 49.7897 48.5718 49.5305V46.8005C48.5718 46.5411 48.3647 46.3307 48.1093 46.3307H46.621L46.7365 26.5017C46.7388 26.4083 46.7136 26.3163 46.6642 26.2377C47.3213 26.1148 47.9277 25.8842 48.4415 25.5772C49.264 25.0858 49.8798 24.3382 49.9297 23.4195H49.93V23.4048V18.5761V18.5765C50.0416 18.3943 50.0178 18.1591 49.8723 18.0038L42.5458 10.1516C42.4593 10.0589 42.3393 10.0058 42.2135 10.0048H17.2291C17.2146 10.0042 17.2 10.0042 17.1855 10.0048L17.186 10ZM17.4318 10.9392H22.1572L18.0098 17.8522H11.478L17.4318 10.9392ZM23.2555 10.9392H27.6774L25.7556 17.8522H19.0942L23.2558 10.9392H23.2555ZM28.6453 10.9392H31.3477L33.2985 17.8522H26.6948L28.6457 10.9392H28.6453ZM32.3302 10.9392H36.7521L40.9137 17.8522H34.2523L32.3305 10.9392H32.3302ZM37.8356 10.9392H41.9972L48.4567 17.8522H41.983L37.8356 10.9392ZM11.0015 18.7914H17.7358H17.7355C17.7329 18.8209 17.7329 18.8504 17.7355 18.8796V23.488C17.7355 23.605 17.7461 23.7279 17.7645 23.8402C17.6223 24.1659 17.3471 24.4699 16.9265 24.7356C16.2905 25.1369 15.3686 25.3961 14.3255 25.3961C13.2745 25.3961 12.3746 25.1608 11.7966 24.7942C11.2186 24.4276 10.9592 23.9903 10.9873 23.4733C10.9925 23.4638 10.9973 23.454 11.0015 23.4442L11.0015 18.7914ZM18.8047 18.7914H25.4519V23.1359C25.4519 23.3338 25.4906 23.5235 25.5387 23.7082C25.4623 24.1309 25.1529 24.5312 24.6285 24.8676C24.016 25.2604 23.1199 25.5281 22.1142 25.5281C21.1084 25.5281 20.204 25.2614 19.5854 24.8676C19.1289 24.5774 18.8515 24.2429 18.7329 23.8841C18.78 23.7062 18.8051 23.5165 18.8051 23.3265V18.7914L18.8047 18.7914ZM26.478 18.7914H33.2552V23.1359C33.2552 23.6683 32.9423 24.181 32.3304 24.5888C31.7186 24.997 30.8331 25.264 29.8307 25.264C28.8278 25.264 27.9202 24.9977 27.3018 24.5888C26.8732 24.3054 26.5945 23.9749 26.4639 23.6201C26.4665 23.5768 26.4784 23.5316 26.4784 23.488V18.7914L26.478 18.7914ZM34.2955 18.7914H41.174V23.1064C41.174 23.6387 40.8611 24.1367 40.2492 24.5445C39.6373 24.9528 38.7519 25.2345 37.7495 25.2345C36.7466 25.2345 35.8389 24.9534 35.2206 24.5445C34.6023 24.1357 34.2959 23.6358 34.2959 23.1064V18.7914H34.2955ZM42.1129 18.7914H49.0056V23.3708C48.9769 23.895 48.6273 24.3782 47.9796 24.7651C47.3322 25.152 46.4084 25.3961 45.4362 25.3961C44.4724 25.3961 43.6173 25.1275 43.0228 24.7209C42.4283 24.3143 42.1126 23.8039 42.1126 23.268V18.7915L42.1129 18.7914ZM33.7895 24.4273C34.0262 24.7798 34.3501 25.0868 34.7287 25.3374C35.5283 25.8662 36.5848 26.1742 37.7488 26.1742C38.9129 26.1742 39.9602 25.8672 40.7543 25.3374C41.0772 25.1222 41.3565 24.866 41.5781 24.5741C41.8081 24.9338 42.1297 25.2434 42.5029 25.4986C43.279 26.0296 44.3056 26.3353 45.4362 26.3353C45.5716 26.3353 45.7074 26.3432 45.8406 26.3353H45.8413C45.8223 26.3871 45.8126 26.4418 45.8123 26.4968L45.6968 46.2671H43.6592V30.5779C43.6634 30.3495 43.5047 30.151 43.2837 30.1084C43.2547 30.1054 43.2257 30.1054 43.197 30.1084H16.4925C16.4638 30.1054 16.4348 30.1054 16.406 30.1084C16.1848 30.151 16.0261 30.3495 16.0303 30.5779V42.9065C16.0303 43.166 16.2373 43.3763 16.4925 43.3763H36.0295V46.2679H14.3827L14.1227 26.3365C14.1911 26.3385 14.2556 26.3365 14.325 26.3365C15.5207 26.3365 16.6007 26.0446 17.4173 25.5293C17.7237 25.336 17.9921 25.1145 18.2121 24.8541C18.443 25.165 18.744 25.4389 19.0936 25.6613C19.8929 26.1698 20.9529 26.4685 22.1137 26.4685C23.2749 26.4685 24.3258 26.1704 25.1192 25.6613C25.5066 25.4127 25.8482 25.108 26.0876 24.7512C26.2882 24.9831 26.5259 25.1892 26.7956 25.3677C27.5952 25.8965 28.6661 26.2045 29.8302 26.2045C30.9943 26.2045 32.0416 25.8975 32.8357 25.3677C33.2231 25.1093 33.5537 24.7944 33.7895 24.4285L33.7895 24.4273ZM16.9542 31.0467H36.0289V42.436H16.9542V31.0467ZM36.9537 31.0467H42.7339V46.2663H36.9537V42.9935H36.9543C36.9569 42.9644 36.9569 42.9349 36.9543 42.9057V31.0467L36.9537 31.0467ZM24.1217 32.7932L23.9917 32.8813L21.3761 35.5379L21.2461 35.9343L21.4773 36.2865L21.8963 36.3009L22.0263 36.2128L24.642 33.5562L24.7719 33.1454L24.5407 32.8079L24.1217 32.7935V32.7932ZM26.7228 33.4684L26.5782 33.5713L25.35 34.8188L25.22 35.2152L25.4512 35.5674L25.8702 35.5818L26.0002 35.4789L27.2431 34.2314L27.373 33.835L27.1273 33.4828L26.7228 33.4684ZM24.1794 36.0516L24.0349 36.1545L23.3846 36.815L23.2546 37.2114L23.4859 37.5635L23.9049 37.578L24.0349 37.4751L24.6997 36.8146L24.8297 36.4182L24.5839 36.066L24.1794 36.0516ZM20.2055 36.7707L20.0755 36.8736L19.4107 37.5341L19.2807 37.9305L19.5265 38.2827L19.931 38.2971L20.0755 38.1942L20.7258 37.5337L20.8558 37.1373L20.6245 36.7851L20.2055 36.7707ZM22.214 38.0478L22.0841 38.1359L19.4684 40.7925L19.3239 41.2034L19.5697 41.5408L19.9887 41.5552L20.1187 41.4671L22.7343 38.8105L22.8643 38.3996L22.6185 38.0622L22.214 38.0478ZM38.8172 38.3561C38.4295 38.3561 38.1092 38.667 38.1092 39.0604C38.1092 39.4542 38.4295 39.7795 38.8172 39.7795C39.2049 39.7795 39.5107 39.4542 39.5107 39.0604C39.5107 38.6666 39.2046 38.3561 38.8172 38.3561ZM12.4307 47.2654H47.646V49.0562H12.4307V47.2654Z" fill="white"/>
</svg>
