<svg width="81" height="80" viewBox="0 0 81 80" fill="none" xmlns="http://www.w3.org/2000/svg">
<path d="M13.5707 63.776L14.2621 64.4985L14.2621 64.4985L13.5707 63.776ZM21.4713 56.2159L20.7799 55.4934V55.4934L21.4713 56.2159ZM67.102 63.776L67.7933 63.0535L67.102 63.776ZM59.2014 56.2159L58.51 56.9384V56.9384L59.2014 56.2159ZM14.2621 64.4985L22.1627 56.9384L20.7799 55.4934L12.8793 63.0535L14.2621 64.4985ZM16.3362 69.666C13.6315 69.666 12.3079 66.3684 14.2621 64.4985L12.8793 63.0535C9.62243 66.17 11.8284 71.666 16.3362 71.666V69.666ZM37.7259 69.666H16.3362V71.666H37.7259V69.666ZM37.7259 71.666H42.2936V69.666H37.7259V71.666ZM42.2936 71.666H64.3365V69.666H42.2936V71.666ZM64.3365 71.666C68.8443 71.666 71.0502 66.17 67.7933 63.0535L66.4106 64.4985C68.3647 66.3684 67.0412 69.666 64.3365 69.666V71.666ZM67.7933 63.0535L59.8927 55.4934L58.51 56.9384L66.4106 64.4985L67.7933 63.0535ZM59.8927 55.4934C55.9844 51.7535 50.7835 49.666 45.3741 49.666V51.666C50.2683 51.666 54.9739 53.5547 58.51 56.9384L59.8927 55.4934ZM45.3741 49.666H42.2936V51.666H45.3741V49.666ZM42.2936 49.666H37.7259V51.666H42.2936V49.666ZM35.2986 51.666H37.7259V49.666H35.2986V51.666ZM22.1627 56.9384C25.6988 53.5547 30.4043 51.666 35.2986 51.666V49.666C29.8891 49.666 24.6883 51.7535 20.7799 55.4934L22.1627 56.9384Z" fill="white"/>
<path d="M26.1541 18L25.1822 17.7647L25.1747 17.7956L25.1692 17.8268L26.1541 18ZM40.3385 7L40.3386 6H40.3385L40.3385 7ZM26.1236 18.1716L25.1392 17.9957L25.1392 17.9957L26.1236 18.1716ZM26.1541 27.3333L25.1782 27.5514H25.1782L26.1541 27.3333ZM29.143 32.3533L28.4029 33.0257L28.4029 33.0257L29.143 32.3533ZM31.9592 36.6667L31.0075 36.9737L31.9592 36.6667ZM31.6622 40.6387L30.7002 40.3656L30.7002 40.3656L31.6622 40.6387ZM49.0149 40.6387L48.0529 40.9118L49.0149 40.6387ZM48.7179 36.6667L47.7662 36.3596L48.7179 36.6667ZM51.534 32.3533L52.2742 33.0257V33.0257L51.534 32.3533ZM54.523 27.3333L53.547 27.1152L54.523 27.3333ZM54.5535 18.1716L53.5691 18.3475V18.3475L54.5535 18.1716ZM54.523 18L55.5079 17.8268L55.5024 17.7956L55.4949 17.7647L54.523 18ZM27.126 18.2353C28.0223 14.533 30.2964 11.9833 32.8827 10.3448C35.4893 8.69352 38.3664 8.00006 40.3386 8L40.3385 6C37.9774 6.00008 34.7305 6.80662 31.8124 8.6553C28.874 10.5168 26.2225 13.4671 25.1822 17.7647L27.126 18.2353ZM27.108 18.3475C27.119 18.2861 27.1295 18.2274 27.139 18.1732L25.1692 17.8268C25.1603 17.8777 25.1503 17.9335 25.1392 17.9957L27.108 18.3475ZM27.13 27.1152C26.2493 23.1743 26.8657 19.7031 27.108 18.3475L25.1392 17.9957C24.8895 19.393 24.2054 23.1984 25.1782 27.5514L27.13 27.1152ZM29.8832 31.6809C28.6412 30.3138 27.5795 29.1263 27.13 27.1152L25.1782 27.5514C25.7543 30.1293 27.1636 31.6616 28.4029 33.0257L29.8832 31.6809ZM32.9108 36.3596C32.2296 34.2482 30.979 32.887 29.8832 31.6809L28.4029 33.0257C29.5119 34.2464 30.4743 35.321 31.0075 36.9737L32.9108 36.3596ZM32.6242 40.9118C32.9465 39.7764 33.4608 38.0641 32.9108 36.3596L31.0075 36.9737C31.3412 38.0083 31.0527 39.1238 30.7002 40.3656L32.6242 40.9118ZM32.3144 42.3333C32.3144 42.0347 32.4263 41.6087 32.6242 40.9118L30.7002 40.3656C30.5314 40.9603 30.3144 41.693 30.3144 42.3333H32.3144ZM32.8244 43.1602C32.6009 43.0157 32.4847 42.8897 32.4205 42.7834C32.3614 42.6856 32.3144 42.5524 32.3144 42.3333H30.3144C30.3144 42.8733 30.4397 43.3723 30.7086 43.8174C30.9723 44.2541 31.3397 44.5819 31.7386 44.8398L32.8244 43.1602ZM48.9384 44.8398C49.3374 44.5819 49.7047 44.2541 49.9685 43.8174C50.2374 43.3723 50.3627 42.8733 50.3627 42.3333H48.3627C48.3627 42.5524 48.3156 42.6856 48.2566 42.7834C48.1924 42.8897 48.0762 43.0157 47.8527 43.1602L48.9384 44.8398ZM50.3627 42.3333C50.3627 41.693 50.1457 40.9603 49.9769 40.3656L48.0529 40.9118C48.2507 41.6087 48.3627 42.0347 48.3627 42.3333H50.3627ZM49.9769 40.3656C49.6243 39.1238 49.3358 38.0083 49.6696 36.9737L47.7662 36.3596C47.2163 38.0641 47.7306 39.7764 48.0529 40.9118L49.9769 40.3656ZM49.6696 36.9737C50.2028 35.321 51.1652 34.2464 52.2742 33.0257L50.7939 31.6809C49.6981 32.887 48.4474 34.2482 47.7662 36.3596L49.6696 36.9737ZM52.2742 33.0257C53.5135 31.6616 54.9228 30.1293 55.4989 27.5514L53.547 27.1152C53.0976 29.1263 52.0359 30.3138 50.7939 31.6809L52.2742 33.0257ZM55.4989 27.5514C56.4717 23.1984 55.7876 19.3929 55.5379 17.9957L53.5691 18.3475C53.8113 19.7031 54.4277 23.1743 53.547 27.1152L55.4989 27.5514ZM55.5379 17.9957C55.5268 17.9335 55.5168 17.8777 55.5079 17.8268L53.5381 18.1732C53.5476 18.2274 53.5581 18.2861 53.5691 18.3475L55.5379 17.9957ZM55.4949 17.7647C54.4546 13.4671 51.8031 10.5168 48.8647 8.6553C45.9465 6.80662 42.6997 6.00008 40.3386 6L40.3385 8C42.3107 8.00006 45.1878 8.69352 47.7944 10.3448C50.3807 11.9833 52.6548 14.533 53.551 18.2353L55.4949 17.7647ZM31.7386 44.8398C31.9973 44.9588 32.2797 45 32.2805 45C32.2808 45 32.2813 45 32.2816 45C32.2823 45 32.2832 45 32.2842 45C32.2862 45 32.2892 45 32.2931 45C32.3008 45 32.3124 45 32.3277 45C32.3582 45 32.4035 45 32.4625 45C32.5805 45 32.7536 45 32.9739 45C33.4146 45 34.044 45 34.7994 45C36.3101 45.0001 38.3243 45.0001 40.3385 45.0001C42.3528 45.0001 44.367 45.0001 45.8777 45C46.6331 45 47.2625 45 47.7031 45C47.9235 45 48.0966 45 48.2146 45C48.2736 45 48.3189 45 48.3494 45C48.3646 45 48.3762 45 48.384 45C48.3879 45 48.3909 45 48.3929 45C48.3939 45 48.3948 45 48.3954 45C48.3958 45 48.3963 45 48.3966 45C48.3973 45 48.6797 44.9588 48.9384 44.8398L47.8527 43.1602C48.1114 43.0412 48.3937 43 48.3941 43C48.3942 43 48.3944 43 48.3942 43C48.3939 43 48.3933 43 48.3923 43C48.3904 43 48.3876 43 48.3837 43C48.376 43 48.3645 43 48.3492 43C48.3188 43 48.2735 43 48.2145 43C48.0965 43 47.9234 43 47.7031 43C47.2625 43 46.633 43 45.8777 43C44.367 43.0001 42.3528 43.0001 40.3385 43.0001C38.3243 43.0001 36.3101 43.0001 34.7994 43C34.044 43 33.4146 43 32.974 43C32.7537 43 32.5806 43 32.4625 43C32.4035 43 32.3583 43 32.3278 43C32.3126 43 32.3011 43 32.2934 43C32.2895 43 32.2866 43 32.2848 43C32.2838 43 32.2832 43 32.2829 43C32.2827 43 32.2829 43 32.2829 43C32.2834 43 32.5657 43.0412 32.8244 43.1602L31.7386 44.8398Z" fill="#FF3520"/>
</svg>
