<svg width="32" height="32" viewBox="0 0 32 32" fill="none" xmlns="http://www.w3.org/2000/svg">
<path d="M13.0866 15.999C13.0866 14.3906 14.3909 13.0863 16.0003 13.0863C17.6097 13.0863 18.9147 14.3906 18.9147 15.999C18.9147 17.6074 17.6097 18.9116 16.0003 18.9116C14.3909 18.9116 13.0866 17.6074 13.0866 15.999ZM11.5111 15.999C11.5111 18.4769 13.5209 20.4855 16.0003 20.4855C18.4797 20.4855 20.4895 18.4769 20.4895 15.999C20.4895 13.5211 18.4797 11.5125 16.0003 11.5125C13.5209 11.5125 11.5111 13.5211 11.5111 15.999ZM19.6181 11.3346C19.618 11.542 19.6795 11.7447 19.7947 11.9172C19.9099 12.0897 20.0737 12.2241 20.2654 12.3035C20.457 12.383 20.668 12.4038 20.8715 12.3634C21.075 12.3231 21.262 12.2233 21.4087 12.0767C21.5555 11.9301 21.6555 11.7434 21.6961 11.54C21.7366 11.3366 21.7159 11.1258 21.6366 10.9342C21.5573 10.7426 21.4229 10.5788 21.2504 10.4635C21.0779 10.3482 20.8751 10.2866 20.6676 10.2866H20.6672C20.3891 10.2867 20.1224 10.3971 19.9257 10.5936C19.729 10.7902 19.6184 11.0567 19.6181 11.3346ZM12.4683 23.1109C11.616 23.0721 11.1527 22.9302 10.8448 22.8104C10.4367 22.6515 10.1454 22.4624 9.83923 22.1568C9.53303 21.8512 9.3435 21.5604 9.18529 21.1525C9.06527 20.845 8.9233 20.3818 8.88455 19.53C8.84217 18.609 8.8337 18.3323 8.8337 15.9991C8.8337 13.6658 8.84286 13.3899 8.88455 12.4682C8.92337 11.6163 9.06639 11.1541 9.18529 10.8456C9.3442 10.4377 9.53345 10.1466 9.83923 9.84061C10.145 9.5346 10.436 9.34517 10.8448 9.18706C11.1526 9.06712 11.616 8.92522 12.4683 8.8865C13.3899 8.84414 13.6667 8.83569 16.0003 8.83569C18.3339 8.83569 18.611 8.84484 19.5333 8.8865C20.3857 8.92529 20.8482 9.06824 21.1569 9.18706C21.565 9.34517 21.8563 9.53502 22.1625 9.84061C22.4687 10.1462 22.6575 10.4377 22.8164 10.8456C22.9364 11.1532 23.0784 11.6163 23.1171 12.4682C23.1595 13.3899 23.168 13.6658 23.168 15.9991C23.168 18.3323 23.1595 18.6082 23.1171 19.53C23.0783 20.3818 22.9357 20.8448 22.8164 21.1525C22.6575 21.5604 22.4682 21.8515 22.1625 22.1568C21.8567 22.4621 21.565 22.6515 21.1569 22.8104C20.8491 22.9303 20.3857 23.0722 19.5333 23.1109C18.6118 23.1533 18.335 23.1617 16.0003 23.1617C13.6657 23.1617 13.3896 23.1533 12.4683 23.1109ZM12.396 7.31463C11.4653 7.35699 10.8293 7.50447 10.2739 7.72046C9.69872 7.94351 9.2118 8.24274 8.72523 8.72825C8.23865 9.21376 7.94001 9.70116 7.71683 10.276C7.50071 10.8314 7.35314 11.4667 7.31076 12.3968C7.26767 13.3284 7.25781 13.6262 7.25781 15.999C7.25781 18.3717 7.26767 18.6696 7.31076 19.6012C7.35314 20.5314 7.50071 21.1666 7.71683 21.722C7.94001 22.2965 8.23872 22.7844 8.72523 23.2697C9.21173 23.755 9.69872 24.0538 10.2739 24.2775C10.8304 24.4935 11.4653 24.641 12.396 24.6833C13.3286 24.7257 13.6261 24.7363 16.0003 24.7363C18.3745 24.7363 18.6725 24.7264 19.6047 24.6833C20.5354 24.641 21.171 24.4935 21.7267 24.2775C22.3016 24.0538 22.7888 23.7552 23.2754 23.2697C23.762 22.7842 24.06 22.2965 24.2838 21.722C24.4999 21.1666 24.6482 20.5313 24.6899 19.6012C24.7323 18.6689 24.7421 18.3717 24.7421 15.999C24.7421 13.6262 24.7323 13.3284 24.6899 12.3968C24.6475 11.4666 24.4999 10.8311 24.2838 10.276C24.06 9.70151 23.7612 9.21453 23.2754 8.72825C22.7896 8.24197 22.3016 7.94351 21.7274 7.72046C21.171 7.50447 20.5354 7.35629 19.6054 7.31463C18.6732 7.27227 18.3752 7.26172 16.001 7.26172C13.6268 7.26172 13.3286 7.27157 12.396 7.31463Z" fill="#424242"/>
<path d="M13.0866 15.999C13.0866 14.3906 14.3909 13.0863 16.0003 13.0863C17.6097 13.0863 18.9147 14.3906 18.9147 15.999C18.9147 17.6074 17.6097 18.9116 16.0003 18.9116C14.3909 18.9116 13.0866 17.6074 13.0866 15.999ZM11.5111 15.999C11.5111 18.4769 13.5209 20.4855 16.0003 20.4855C18.4797 20.4855 20.4895 18.4769 20.4895 15.999C20.4895 13.5211 18.4797 11.5125 16.0003 11.5125C13.5209 11.5125 11.5111 13.5211 11.5111 15.999ZM19.6181 11.3346C19.618 11.542 19.6795 11.7447 19.7947 11.9172C19.9099 12.0897 20.0737 12.2241 20.2654 12.3035C20.457 12.383 20.668 12.4038 20.8715 12.3634C21.075 12.3231 21.262 12.2233 21.4087 12.0767C21.5555 11.9301 21.6555 11.7434 21.6961 11.54C21.7366 11.3366 21.7159 11.1258 21.6366 10.9342C21.5573 10.7426 21.4229 10.5788 21.2504 10.4635C21.0779 10.3482 20.8751 10.2866 20.6676 10.2866H20.6672C20.3891 10.2867 20.1224 10.3971 19.9257 10.5936C19.729 10.7902 19.6184 11.0567 19.6181 11.3346ZM12.4683 23.1109C11.616 23.0721 11.1527 22.9302 10.8448 22.8104C10.4367 22.6515 10.1454 22.4624 9.83923 22.1568C9.53303 21.8512 9.3435 21.5604 9.18529 21.1525C9.06527 20.845 8.9233 20.3818 8.88455 19.53C8.84217 18.609 8.8337 18.3323 8.8337 15.9991C8.8337 13.6658 8.84286 13.3899 8.88455 12.4682C8.92337 11.6163 9.06639 11.1541 9.18529 10.8456C9.3442 10.4377 9.53345 10.1466 9.83923 9.84061C10.145 9.5346 10.436 9.34517 10.8448 9.18706C11.1526 9.06712 11.616 8.92522 12.4683 8.8865C13.3899 8.84414 13.6667 8.83569 16.0003 8.83569C18.3339 8.83569 18.611 8.84484 19.5333 8.8865C20.3857 8.92529 20.8482 9.06824 21.1569 9.18706C21.565 9.34517 21.8563 9.53502 22.1625 9.84061C22.4687 10.1462 22.6575 10.4377 22.8164 10.8456C22.9364 11.1532 23.0784 11.6163 23.1171 12.4682C23.1595 13.3899 23.168 13.6658 23.168 15.9991C23.168 18.3323 23.1595 18.6082 23.1171 19.53C23.0783 20.3818 22.9357 20.8448 22.8164 21.1525C22.6575 21.5604 22.4682 21.8515 22.1625 22.1568C21.8567 22.4621 21.565 22.6515 21.1569 22.8104C20.8491 22.9303 20.3857 23.0722 19.5333 23.1109C18.6118 23.1533 18.335 23.1617 16.0003 23.1617C13.6657 23.1617 13.3896 23.1533 12.4683 23.1109ZM12.396 7.31463C11.4653 7.35699 10.8293 7.50447 10.2739 7.72046C9.69872 7.94351 9.2118 8.24274 8.72523 8.72825C8.23865 9.21376 7.94001 9.70116 7.71683 10.276C7.50071 10.8314 7.35314 11.4667 7.31076 12.3968C7.26767 13.3284 7.25781 13.6262 7.25781 15.999C7.25781 18.3717 7.26767 18.6696 7.31076 19.6012C7.35314 20.5314 7.50071 21.1666 7.71683 21.722C7.94001 22.2965 8.23872 22.7844 8.72523 23.2697C9.21173 23.755 9.69872 24.0538 10.2739 24.2775C10.8304 24.4935 11.4653 24.641 12.396 24.6833C13.3286 24.7257 13.6261 24.7363 16.0003 24.7363C18.3745 24.7363 18.6725 24.7264 19.6047 24.6833C20.5354 24.641 21.171 24.4935 21.7267 24.2775C22.3016 24.0538 22.7888 23.7552 23.2754 23.2697C23.762 22.7842 24.06 22.2965 24.2838 21.722C24.4999 21.1666 24.6482 20.5313 24.6899 19.6012C24.7323 18.6689 24.7421 18.3717 24.7421 15.999C24.7421 13.6262 24.7323 13.3284 24.6899 12.3968C24.6475 11.4666 24.4999 10.8311 24.2838 10.276C24.06 9.70151 23.7612 9.21453 23.2754 8.72825C22.7896 8.24197 22.3016 7.94351 21.7274 7.72046C21.171 7.50447 20.5354 7.35629 19.6054 7.31463C18.6732 7.27227 18.3752 7.26172 16.001 7.26172C13.6268 7.26172 13.3286 7.27157 12.396 7.31463Z" fill="#424242"/>
</svg>
