<svg width="32" height="32" viewBox="0 0 32 32" fill="none" xmlns="http://www.w3.org/2000/svg">
<path d="M7.33594 8.59234C7.33594 7.901 7.91472 7.33984 8.62819 7.33984H23.5287C24.2424 7.33984 24.821 7.901 24.821 8.59234V23.5726C24.821 24.2641 24.2424 24.8249 23.5287 24.8249H8.62819C7.91479 24.8249 7.33594 24.2642 7.33594 23.5728V8.59214V8.59234Z" fill="#424242"/>
<path d="M12.6457 21.9731V14.1013H10.0292V21.9731H12.646H12.6457ZM11.338 13.0267C12.2502 13.0267 12.8182 12.4223 12.8182 11.6669C12.8011 10.8942 12.2502 10.3066 11.3554 10.3066C10.4599 10.3066 9.875 10.8942 9.875 11.6668C9.875 12.4222 10.4427 13.0267 11.3209 13.0267H11.3378L11.338 13.0267ZM14.0939 21.9731H16.7102V17.5776C16.7102 17.3427 16.7273 17.1071 16.7964 16.9393C16.9855 16.469 17.416 15.9822 18.1389 15.9822C19.0854 15.9822 19.4643 16.704 19.4643 17.7624V21.9731H22.0805V17.4597C22.0805 15.0419 20.7899 13.9168 19.0685 13.9168C17.6572 13.9168 17.0374 14.7056 16.693 15.2428H16.7104V14.1016H14.0941C14.1282 14.84 14.0939 21.9734 14.0939 21.9734L14.0939 21.9731Z" fill="white"/>
</svg>
