<svg width="24" height="24" viewBox="0 0 24 24" fill="none" xmlns="http://www.w3.org/2000/svg">
<g clip-path="url(#clip0_1941_9270)">
<path d="M17.9982 10H16.7382C16.364 8.551 15.591 7.23599 14.5068 6.2044C13.4226 5.1728 12.0709 4.46599 10.6051 4.16428C9.13928 3.86256 7.61825 3.97804 6.21481 4.49759C4.81137 5.01714 3.5818 5.91993 2.66581 7.10338C1.74982 8.28683 1.18415 9.70348 1.03306 11.1924C0.881982 12.6812 1.15155 14.1826 1.81113 15.526C2.47072 16.8693 3.49387 18.0007 4.76434 18.7916C6.0348 19.5824 7.50164 20.0011 8.99816 20H17.9982C19.3242 20 20.596 19.4732 21.5337 18.5355C22.4714 17.5979 22.9982 16.3261 22.9982 15C22.9982 13.6739 22.4714 12.4021 21.5337 11.4645C20.596 10.5268 19.3242 10 17.9982 10Z" stroke="#101828" stroke-width="2" stroke-linecap="round" stroke-linejoin="round"/>
</g>
<defs>
<clipPath id="clip0_1941_9270">
<rect width="24" height="24" fill="white"/>
</clipPath>
</defs>
</svg>
