<svg width="24" height="24" viewBox="0 0 24 24" fill="none" xmlns="http://www.w3.org/2000/svg">
<g clip-path="url(#clip0_1941_9212)">
<path d="M19.9981 17.5802C21.0493 17.1198 21.9102 16.3118 22.4362 15.2917C22.9621 14.2717 23.1212 13.1018 22.8867 11.9784C22.6521 10.855 22.0383 9.84641 21.1481 9.12204C20.258 8.39766 19.1457 8.00155 17.9981 8.0002H16.7381C16.4211 6.77272 15.8169 5.63815 14.9754 4.69C14.1338 3.74185 13.079 3.00728 11.8978 2.54682C10.7167 2.08637 9.44299 1.91322 8.18176 2.04165C6.92054 2.17007 5.70789 2.5964 4.64377 3.28548C3.57966 3.97457 2.69454 4.90669 2.06138 6.005C1.42823 7.10331 1.06515 8.33637 1.00209 9.60255C0.939031 10.8687 1.17779 12.1318 1.69868 13.2876C2.21958 14.4433 3.0077 15.4588 3.99808 16.2502M7.99808 16.0002H8.00808M7.99808 20.0002H8.00808M11.9981 18.0002H12.0081M11.9981 22.0002H12.0081M15.9981 16.0002H16.0081M15.9981 20.0002H16.0081" stroke="#101828" stroke-width="2" stroke-linecap="round" stroke-linejoin="round"/>
</g>
<defs>
<clipPath id="clip0_1941_9212">
<rect width="24" height="24" fill="white"/>
</clipPath>
</defs>
</svg>
