<svg width="24" height="24" viewBox="0 0 24 24" fill="none" xmlns="http://www.w3.org/2000/svg">
<g clip-path="url(#clip0_1941_9558)">
<path d="M7.99808 19.0002V21.0002M7.99808 13.0002V15.0002M15.9981 19.0002V21.0002M15.9981 13.0002V15.0002M11.9981 21.0002V23.0002M11.9981 15.0002V17.0002M19.9981 16.5802C21.0493 16.1198 21.9102 15.3118 22.4362 14.2917C22.9621 13.2717 23.1212 12.1018 22.8867 10.9784C22.6521 9.85496 22.0383 8.84641 21.1481 8.12204C20.258 7.39766 19.1457 7.00155 17.9981 7.0002H16.7381C16.4211 5.77272 15.8169 4.63815 14.9754 3.69C14.1338 2.74185 13.079 2.00728 11.8978 1.54682C10.7167 1.08637 9.44299 0.913218 8.18176 1.04165C6.92054 1.17007 5.70789 1.5964 4.64377 2.28548C3.57966 2.97457 2.69454 3.90669 2.06138 5.005C1.42823 6.10331 1.06515 7.33637 1.00209 8.60255C0.939031 9.86873 1.17779 11.1318 1.69868 12.2876C2.21958 13.4433 3.0077 14.4588 3.99808 15.2502" stroke="#101828" stroke-width="2" stroke-linecap="round" stroke-linejoin="round"/>
</g>
<defs>
<clipPath id="clip0_1941_9558">
<rect width="24" height="24" fill="white"/>
</clipPath>
</defs>
</svg>
