<svg width="24" height="24" viewBox="0 0 24 24" fill="none" xmlns="http://www.w3.org/2000/svg">
<g clip-path="url(#clip0_1941_9614)">
<path d="M19.0019 16.8998C20.217 16.6531 21.2972 15.9636 22.0326 14.9653C22.768 13.967 23.1062 12.731 22.9816 11.4973C22.857 10.2636 22.2784 9.12028 21.3582 8.28919C20.438 7.45809 19.2418 6.99857 18.0019 6.99981H16.7419C16.4106 5.71713 15.7659 4.5368 14.8658 3.5648C13.9656 2.59279 12.8382 1.85954 11.5847 1.43087C10.3312 1.00221 8.99086 0.891543 7.68402 1.10882C6.37718 1.32609 5.14476 1.86451 4.09739 2.67572C3.05003 3.48693 2.22051 4.54555 1.68332 5.75652C1.14613 6.9675 0.918077 8.29292 1.01964 9.6138C1.1212 10.9347 1.5492 12.2097 2.26521 13.3243C2.98122 14.4389 3.96282 15.3583 5.12189 15.9998M13.0019 10.9998L9.00189 16.9998H15.0019L11.0019 22.9998" stroke="#101828" stroke-width="2" stroke-linecap="round" stroke-linejoin="round"/>
</g>
<defs>
<clipPath id="clip0_1941_9614">
<rect width="24" height="24" fill="white"/>
</clipPath>
</defs>
</svg>
