<svg width="24" height="24" viewBox="0 0 24 24" fill="none" xmlns="http://www.w3.org/2000/svg">
<path d="M16.2418 7.76018C16.7996 8.31741 17.2422 8.97914 17.5441 9.70753C17.8461 10.4359 18.0015 11.2167 18.0015 12.0052C18.0015 12.7937 17.8461 13.5744 17.5441 14.3028C17.2422 15.0312 16.7996 15.6929 16.2418 16.2502M7.76177 16.2402C7.20391 15.6829 6.76136 15.0212 6.45941 14.2928C6.15747 13.5644 6.00205 12.7837 6.00205 11.9952C6.00205 11.2067 6.15747 10.4259 6.45941 9.69753C6.76136 8.96915 7.20391 8.30741 7.76177 7.75018M19.0718 4.93018C20.9465 6.80545 21.9996 9.34853 21.9996 12.0002C21.9996 14.6518 20.9465 17.1949 19.0718 19.0702M4.93177 19.0702C3.05706 17.1949 2.00391 14.6518 2.00391 12.0002C2.00391 9.34853 3.05706 6.80545 4.93177 4.93018M14.0018 12.0002C14.0018 13.1047 13.1063 14.0002 12.0018 14.0002C10.8972 14.0002 10.0018 13.1047 10.0018 12.0002C10.0018 10.8956 10.8972 10.0002 12.0018 10.0002C13.1063 10.0002 14.0018 10.8956 14.0018 12.0002Z" stroke="#101828" stroke-width="2" stroke-linecap="round" stroke-linejoin="round"/>
</svg>
