<svg width="24" height="24" viewBox="0 0 24 24" fill="none" xmlns="http://www.w3.org/2000/svg">
<path d="M14.6994 6.30022C14.5161 6.48715 14.4135 6.73847 14.4135 7.00022C14.4135 7.26198 14.5161 7.5133 14.6994 7.70022L16.2994 9.30022C16.4863 9.48345 16.7376 9.58608 16.9994 9.58608C17.2611 9.58608 17.5124 9.48345 17.6994 9.30022L21.4694 5.53022C21.9722 6.64141 22.1245 7.87946 21.9058 9.07937C21.6872 10.2793 21.1081 11.3841 20.2456 12.2465C19.3832 13.1089 18.2784 13.6881 17.0785 13.9067C15.8786 14.1253 14.6406 13.9731 13.5294 13.4702L6.61937 20.3802C6.22154 20.778 5.68198 21.0015 5.11937 21.0015C4.55676 21.0015 4.01719 20.778 3.61937 20.3802C3.22154 19.9824 2.99805 19.4428 2.99805 18.8802C2.99805 18.3176 3.22154 17.778 3.61937 17.3802L10.5294 10.4702C10.0265 9.35904 9.87428 8.12099 10.0929 6.92108C10.3115 5.72117 10.8907 4.61638 11.7531 3.75395C12.6155 2.89151 13.7203 2.31239 14.9202 2.09377C16.1201 1.87514 17.3582 2.02739 18.4694 2.53022L14.7094 6.29022L14.6994 6.30022Z" stroke="#101828" stroke-width="2" stroke-linecap="round" stroke-linejoin="round"/>
</svg>
