<svg width="20" height="20" viewBox="0 0 20 20" fill="none" xmlns="http://www.w3.org/2000/svg">
<path d="M17.3651 3.84319C16.9395 3.41736 16.4342 3.07956 15.8779 2.84909C15.3217 2.61862 14.7255 2.5 14.1235 2.5C13.5214 2.5 12.9252 2.61862 12.369 2.84909C11.8128 3.07956 11.3074 3.41736 10.8818 3.84319L9.99847 4.72652L9.11514 3.84319C8.25539 2.98344 7.08933 2.50045 5.87347 2.50045C4.65761 2.50045 3.49155 2.98344 2.6318 3.84319C1.77206 4.70293 1.28906 5.86899 1.28906 7.08485C1.28906 8.30072 1.77206 9.46678 2.6318 10.3265L3.51514 11.2099L9.99847 17.6932L16.4818 11.2099L17.3651 10.3265C17.791 9.90089 18.1288 9.39553 18.3592 8.83932C18.5897 8.2831 18.7083 7.68693 18.7083 7.08485C18.7083 6.48278 18.5897 5.88661 18.3592 5.33039C18.1288 4.77418 17.791 4.26882 17.3651 3.84319V3.84319Z" stroke="#242424" stroke-width="1.5" stroke-linecap="round" stroke-linejoin="round"/>
</svg>
