<svg width="120" height="32" viewBox="0 0 120 32" fill="none" xmlns="http://www.w3.org/2000/svg">
<path fill-rule="evenodd" clip-rule="evenodd" d="M22.4568 6.39844H6.41406V19.1984H9.62262V9.59844H19.2483V19.1984H22.4568V6.39844ZM12.8312 25.5984H28.874V12.7984H25.6654V22.3984H16.0397V12.7984H12.8312V25.5984ZM6.41406 22.3984H9.62262V25.5984H6.41406V22.3984ZM28.874 6.39844H25.6654V9.59844H28.874V6.39844Z" fill="#242424"/>
<path d="M40.8115 22.4016C44.1603 22.4016 46.3079 20.6354 46.3079 17.5765V10.2388H43.6689V17.4673C43.6689 19.106 42.5587 19.9253 40.9753 19.9253C39.3919 19.9253 38.2817 19.106 38.2817 17.4673V10.2388H35.2969V17.5765C35.2969 20.6354 37.4627 22.4016 40.8115 22.4016Z" fill="#242424"/>
<path d="M52.3052 22.3651C53.0514 22.3651 53.8158 22.2195 54.0524 22.1649V20.071C53.743 20.1438 53.1788 20.1984 52.7966 20.1984C51.7046 20.1984 51.2678 19.9071 51.2678 18.9785V15.3734H54.1434V13.2249H51.2678V11.1856H48.9928L48.8654 12.442C48.8108 12.9882 48.6652 13.2249 48.2466 13.2249H47.1728V15.3734H48.5014V19.1242C48.5014 21.127 49.5024 22.3651 52.3052 22.3651Z" fill="#242424"/>
<path d="M59.9656 22.3651C60.7118 22.3651 61.4762 22.2195 61.7128 22.1649V20.071C61.4034 20.1438 60.8392 20.1984 60.457 20.1984C59.365 20.1984 58.9282 19.9071 58.9282 18.9785V15.3734H61.8038V13.2249H58.9282V11.1856H56.6532L56.5258 12.442C56.4712 12.9882 56.3256 13.2249 55.907 13.2249H54.8332V15.3734H56.1618V19.1242C56.1618 21.127 57.1628 22.3651 59.9656 22.3651Z" fill="#242424"/>
<path d="M71.5869 17.4673C71.5869 14.5176 69.8215 13.0792 67.3099 13.0792C64.2705 13.0792 62.4141 14.8454 62.4141 17.8132C62.4141 20.6718 64.2705 22.3651 67.2553 22.3651C69.8215 22.3651 71.5323 21.1634 71.5869 19.106H69.1481C69.0753 19.9799 68.3837 20.3623 67.3099 20.3623C66.0723 20.3623 65.3261 19.725 65.1987 18.2502H71.5869V17.4673ZM69.1481 16.7754H65.2715C65.4899 15.5919 66.1451 15.0821 67.3099 15.0821C68.4565 15.0821 69.1481 15.6101 69.1481 16.6297V16.7754Z" fill="#242424"/>
<path d="M72.7976 22.2195H75.564V18.3412C75.564 16.3384 76.3831 15.3734 77.5661 15.3734C78.4397 15.3734 78.9675 15.9014 78.9675 17.2124C78.9675 17.4855 78.9493 17.9407 78.9129 18.3777H81.4245C81.4609 17.9043 81.5155 17.1031 81.5155 16.5933C81.5155 14.2627 80.4417 13.0792 78.6035 13.0792C76.8381 13.0792 75.8735 14.0807 75.4912 15.7922H75.4548L75.564 13.2249H72.7976V22.2195Z" fill="#242424"/>
<path d="M87.2657 22.3651C88.0119 22.3651 88.7763 22.2195 89.0129 22.1649V20.071C88.7035 20.1438 88.1393 20.1984 87.7571 20.1984C86.6651 20.1984 86.2283 19.9071 86.2283 18.9785V15.3734H89.1039V13.2249H86.2283V11.1856H83.9533L83.8259 12.442C83.7713 12.9882 83.6257 13.2249 83.2071 13.2249H82.1333V15.3734H83.4619V19.1242C83.4619 21.127 84.4629 22.3651 87.2657 22.3651Z" fill="#242424"/>
<path d="M93.46 22.3651C95.098 22.3651 96.1172 21.6733 96.3902 20.3987H96.4084C96.4084 20.9449 96.3356 21.7643 96.281 22.2195H99.0474V16.7572C99.0474 14.3538 97.373 13.0792 94.5156 13.0792C91.7856 13.0792 90.1839 14.1535 90.1839 15.9743C90.1839 16.1563 90.2021 16.3566 90.2203 16.5023H92.7684C92.7502 16.3202 92.7502 16.1745 92.7502 16.1199C92.7502 15.3916 93.3507 14.9546 94.3882 14.9546C95.6622 14.9546 96.281 15.3916 96.281 16.4841V17.0849H93.3508C90.9665 17.0849 89.9109 18.1592 89.9109 19.634C89.9109 21.4548 91.3669 22.3651 93.46 22.3651ZM94.006 20.4898C93.005 20.4898 92.4044 20.1256 92.4044 19.4337C92.4044 18.9239 92.8594 18.5779 93.6056 18.5779H96.281V18.76C96.281 19.8525 95.4438 20.4898 94.006 20.4898Z" fill="#242424"/>
<path d="M100.383 22.2195H103.149V9.60156H100.383V22.2195Z" fill="#242424"/>
<path d="M113.586 17.4673C113.586 14.5176 111.82 13.0792 109.309 13.0792C106.269 13.0792 104.413 14.8454 104.413 17.8132C104.413 20.6718 106.269 22.3651 109.254 22.3651C111.82 22.3651 113.531 21.1634 113.586 19.106H111.147C111.074 19.9799 110.382 20.3623 109.309 20.3623C108.071 20.3623 107.325 19.725 107.197 18.2502H113.586V17.4673ZM111.147 16.7754H107.27C107.489 15.5919 108.144 15.0821 109.309 15.0821C110.455 15.0821 111.147 15.6101 111.147 16.6297V16.7754Z" fill="#242424"/>
</svg>
