<svg width="118" height="32" viewBox="0 0 118 32" fill="none" xmlns="http://www.w3.org/2000/svg">
<path fill-rule="evenodd" clip-rule="evenodd" d="M20.8432 6.39844H4.81055V19.1984H8.01707V9.59844H17.6366V19.1984H20.8432V6.39844ZM11.2236 25.5984H27.2562V12.7984H24.0497L24.0497 22.3984H14.4301V12.7984H11.2236V25.5984ZM4.81055 22.3984H8.01707V25.5984H4.81055V22.3984ZM27.2562 6.39844H24.0497V9.59844H27.2562V6.39844Z" fill="#242424"/>
<path d="M41.3329 22.4016C44.6247 22.4016 46.7358 20.6354 46.7358 17.5765V10.2388H44.1417V17.4673C44.1417 19.106 43.0504 19.9253 41.4939 19.9253C39.9374 19.9253 38.8461 19.106 38.8461 17.4673V10.2388H35.9121V17.5765C35.9121 20.6354 38.0411 22.4016 41.3329 22.4016Z" fill="#FF3520"/>
<path d="M52.631 22.3651C53.3646 22.3651 54.1159 22.2195 54.3485 22.1649V20.071C54.0444 20.1438 53.4898 20.1984 53.1141 20.1984C52.0407 20.1984 51.6113 19.9071 51.6113 18.9785V15.3734H54.438V13.2249H51.6113V11.1856H49.375L49.2498 12.442C49.1961 12.9882 49.053 13.2249 48.6415 13.2249H47.586V15.3734H48.892V19.1242C48.892 21.127 49.8759 22.3651 52.631 22.3651Z" fill="#FF3520"/>
<path d="M60.1611 22.3651C60.8946 22.3651 61.646 22.2195 61.8785 22.1649V20.071C61.5744 20.1438 61.0198 20.1984 60.6441 20.1984C59.5707 20.1984 59.1413 19.9071 59.1413 18.9785V15.3734H61.968V13.2249H59.1413V11.1856H56.905L56.7798 12.442C56.7261 12.9882 56.583 13.2249 56.1715 13.2249H55.116V15.3734H56.422V19.1242C56.422 21.127 57.4059 22.3651 60.1611 22.3651Z" fill="#FF3520"/>
<path d="M71.5846 17.4673C71.5846 14.5176 69.8492 13.0792 67.3804 13.0792C64.3927 13.0792 62.5679 14.8454 62.5679 17.8132C62.5679 20.6718 64.3927 22.3651 67.3267 22.3651C69.8492 22.3651 71.5309 21.1634 71.5846 19.106H69.1873C69.1157 19.9799 68.4359 20.3623 67.3804 20.3623C66.1638 20.3623 65.4303 19.725 65.3051 18.2502H71.5846V17.4673ZM69.1873 16.7754H65.3767C65.5913 15.5919 66.2354 15.0821 67.3804 15.0821C68.5075 15.0821 69.1873 15.6101 69.1873 16.6297V16.7754Z" fill="#FF3520"/>
<path d="M72.7747 22.2195H75.4941V18.3412C75.4941 16.3384 76.2991 15.3734 77.462 15.3734C78.3207 15.3734 78.8395 15.9014 78.8395 17.2124C78.8395 17.4855 78.8217 17.9407 78.7859 18.3777H81.2547C81.2905 17.9043 81.3442 17.1031 81.3442 16.5933C81.3442 14.2627 80.2887 13.0792 78.4817 13.0792C76.7464 13.0792 75.7982 14.0807 75.4225 15.7922H75.3867L75.4941 13.2249H72.7747V22.2195Z" fill="#FF3520"/>
<path d="M86.9966 22.3651C87.7301 22.3651 88.4815 22.2195 88.714 22.1649V20.071C88.4099 20.1438 87.8553 20.1984 87.4796 20.1984C86.4062 20.1984 85.9768 19.9071 85.9768 18.9785V15.3734H88.8035V13.2249H85.9768V11.1856H83.7405L83.6153 12.442C83.5616 12.9882 83.4185 13.2249 83.007 13.2249H81.9515V15.3734H83.2575V19.1242C83.2575 21.127 84.2414 22.3651 86.9966 22.3651Z" fill="#FF3520"/>
<path d="M93.0854 22.3651C94.6956 22.3651 95.6974 21.6733 95.9658 20.3987H95.9837C95.9837 20.9449 95.9121 21.7643 95.8584 22.2195H98.5778V16.7572C98.5778 14.3538 96.9318 13.0792 94.1231 13.0792C91.4395 13.0792 89.8652 14.1535 89.8652 15.9743C89.8652 16.1563 89.8831 16.3566 89.9009 16.5023H92.4056C92.3877 16.3202 92.3877 16.1745 92.3877 16.1199C92.3877 15.3916 92.9781 14.9546 93.9978 14.9546C95.2501 14.9546 95.8584 15.3916 95.8584 16.4841V17.0849H92.9781C90.6344 17.0849 89.5968 18.1592 89.5968 19.634C89.5968 21.4548 91.028 22.3651 93.0854 22.3651ZM93.6221 20.4898C92.6382 20.4898 92.0478 20.1256 92.0478 19.4337C92.0478 18.9239 92.495 18.578 93.2285 18.578H95.8584V18.76C95.8584 19.8525 95.0355 20.4898 93.6221 20.4898Z" fill="#FF3520"/>
<path d="M99.8906 22.2195H102.61V9.60156H99.8906V22.2195Z" fill="#FF3520"/>
<path d="M112.869 17.4673C112.869 14.5176 111.133 13.0792 108.664 13.0792C105.677 13.0792 103.852 14.8454 103.852 17.8132C103.852 20.6718 105.677 22.3651 108.611 22.3651C111.133 22.3651 112.815 21.1634 112.869 19.106H110.471C110.4 19.9799 109.72 20.3623 108.664 20.3623C107.448 20.3623 106.714 19.725 106.589 18.2502H112.869V17.4673ZM110.471 16.7754H106.661C106.875 15.5919 107.519 15.0821 108.664 15.0821C109.792 15.0821 110.471 15.6101 110.471 16.6297V16.7754Z" fill="#FF3520"/>
</svg>
